G04*
G04 #@! TF.GenerationSoftware,Altium Limited,Altium Designer,18.1.6 (161)*
G04*
G04 Layer_Color=8421504*
%FSLAX44Y44*%
%MOMM*%
G71*
G01*
G75*
%ADD12R,5.6000X5.6000*%
%ADD13O,1.5000X0.2500*%
%ADD14O,0.2500X1.5000*%
%ADD15R,1.9000X1.5000*%
%ADD16R,1.5000X1.9000*%
%ADD17R,0.5000X0.6000*%
%ADD18R,0.7000X0.7000*%
%ADD19R,0.7000X0.7000*%
%ADD20R,1.7000X1.7000*%
%ADD21O,0.2750X0.9500*%
%ADD22O,0.9500X0.2750*%
%ADD23R,0.8000X0.9000*%
%ADD24R,0.6500X1.1000*%
%ADD25R,0.6500X0.9000*%
%ADD26R,0.9000X0.8000*%
%ADD27R,0.6000X0.5000*%
%ADD28R,1.2000X1.1000*%
%ADD29R,1.7000X1.1000*%
%ADD30R,1.0500X1.0000*%
%ADD31R,2.2000X1.0500*%
D12*
X150000Y130000D02*
D03*
D13*
X112250Y102500D02*
D03*
Y107500D02*
D03*
Y112500D02*
D03*
Y117500D02*
D03*
Y122500D02*
D03*
Y127500D02*
D03*
Y132500D02*
D03*
Y137500D02*
D03*
Y142500D02*
D03*
Y147500D02*
D03*
Y152500D02*
D03*
Y157500D02*
D03*
X187750D02*
D03*
Y152500D02*
D03*
Y147500D02*
D03*
Y142500D02*
D03*
Y137500D02*
D03*
Y132500D02*
D03*
Y127500D02*
D03*
Y122500D02*
D03*
Y117500D02*
D03*
Y112500D02*
D03*
Y107500D02*
D03*
Y102500D02*
D03*
D14*
X122500Y167750D02*
D03*
X127500D02*
D03*
X132500D02*
D03*
X137500D02*
D03*
X142500D02*
D03*
X147500D02*
D03*
X152500D02*
D03*
X157500D02*
D03*
X162500D02*
D03*
X167500D02*
D03*
X172500D02*
D03*
X177500D02*
D03*
Y92250D02*
D03*
X172500D02*
D03*
X167500D02*
D03*
X162500D02*
D03*
X157500D02*
D03*
X152500D02*
D03*
X147500D02*
D03*
X142500D02*
D03*
X137500D02*
D03*
X132500D02*
D03*
X127500D02*
D03*
X122500D02*
D03*
D15*
X45800Y235900D02*
D03*
X223600D02*
D03*
X198200D02*
D03*
X172800D02*
D03*
X147400D02*
D03*
X122000D02*
D03*
X96600D02*
D03*
X71200D02*
D03*
Y7700D02*
D03*
X96600D02*
D03*
X122000D02*
D03*
X147400D02*
D03*
X172800D02*
D03*
X198200D02*
D03*
X223600D02*
D03*
X45800D02*
D03*
D16*
X7900Y198000D02*
D03*
Y45600D02*
D03*
Y71000D02*
D03*
Y96400D02*
D03*
Y121800D02*
D03*
Y147200D02*
D03*
Y172600D02*
D03*
D17*
X122500Y58000D02*
D03*
Y68000D02*
D03*
X401000Y132000D02*
D03*
Y122000D02*
D03*
X375000Y112000D02*
D03*
Y122000D02*
D03*
X349000Y132000D02*
D03*
Y122000D02*
D03*
X312000Y131000D02*
D03*
Y141000D02*
D03*
X321000Y84000D02*
D03*
Y94000D02*
D03*
X312000Y103000D02*
D03*
Y113000D02*
D03*
X114000Y193000D02*
D03*
Y183000D02*
D03*
X142500Y60000D02*
D03*
Y70000D02*
D03*
X304000Y161000D02*
D03*
Y151000D02*
D03*
X313000Y161000D02*
D03*
Y151000D02*
D03*
X322000Y161000D02*
D03*
Y151000D02*
D03*
X80000Y190000D02*
D03*
Y180000D02*
D03*
X88000Y180000D02*
D03*
Y190000D02*
D03*
X190000Y186000D02*
D03*
Y196000D02*
D03*
X96000Y190000D02*
D03*
Y180000D02*
D03*
X174000Y196000D02*
D03*
Y186000D02*
D03*
X182000Y196000D02*
D03*
Y186000D02*
D03*
X166000Y196000D02*
D03*
Y186000D02*
D03*
X158000Y196000D02*
D03*
Y186000D02*
D03*
X98500Y68000D02*
D03*
Y58000D02*
D03*
X80000Y113000D02*
D03*
Y123000D02*
D03*
X90500Y68000D02*
D03*
Y58000D02*
D03*
X114500Y68000D02*
D03*
Y58000D02*
D03*
X106500Y58000D02*
D03*
Y68000D02*
D03*
D18*
X262500Y100500D02*
D03*
X291500Y129500D02*
D03*
D19*
X262500D02*
D03*
X291500Y100500D02*
D03*
D20*
X277000Y115000D02*
D03*
D21*
X284500Y99250D02*
D03*
X279500D02*
D03*
X274500D02*
D03*
X269500D02*
D03*
Y130750D02*
D03*
X274500D02*
D03*
X279500D02*
D03*
X284500D02*
D03*
D22*
X261250Y107500D02*
D03*
Y112500D02*
D03*
Y117500D02*
D03*
Y122500D02*
D03*
X292750D02*
D03*
Y117500D02*
D03*
Y112500D02*
D03*
Y107500D02*
D03*
D23*
X281002Y155000D02*
D03*
X267002D02*
D03*
X142598Y49200D02*
D03*
X156598D02*
D03*
X167598D02*
D03*
X181598D02*
D03*
X192598D02*
D03*
X206598D02*
D03*
X217598D02*
D03*
X231598D02*
D03*
D24*
X249000Y197375D02*
D03*
X57600Y179825D02*
D03*
D25*
X258500Y176625D02*
D03*
X239500D02*
D03*
X48100Y200575D02*
D03*
X67100D02*
D03*
D26*
X24000Y24002D02*
D03*
Y10002D02*
D03*
X293000Y151998D02*
D03*
Y165998D02*
D03*
D27*
X393000Y122000D02*
D03*
X383000D02*
D03*
X367000D02*
D03*
X357000D02*
D03*
X322500D02*
D03*
X312500D02*
D03*
X341000D02*
D03*
X331000D02*
D03*
Y103000D02*
D03*
X321000D02*
D03*
X331000Y113000D02*
D03*
X321000D02*
D03*
X237000Y158000D02*
D03*
X247000D02*
D03*
X226000Y182000D02*
D03*
X216000D02*
D03*
X91000Y88000D02*
D03*
X101000D02*
D03*
X91000Y96000D02*
D03*
X101000D02*
D03*
X42000Y57000D02*
D03*
X52000D02*
D03*
X73000Y57000D02*
D03*
X63000D02*
D03*
X226000Y174000D02*
D03*
X216000D02*
D03*
X237000Y166000D02*
D03*
X247000D02*
D03*
X146600Y39200D02*
D03*
X156600D02*
D03*
X216000Y142000D02*
D03*
X226000D02*
D03*
X171600Y39200D02*
D03*
X181600D02*
D03*
X216000Y150000D02*
D03*
X226000D02*
D03*
X196600Y39200D02*
D03*
X206600D02*
D03*
X216000Y158000D02*
D03*
X226000D02*
D03*
X221600Y39200D02*
D03*
X231600D02*
D03*
X241000Y99000D02*
D03*
X231000D02*
D03*
X241000Y123000D02*
D03*
X231000D02*
D03*
X241000Y115000D02*
D03*
X231000D02*
D03*
X241000Y107000D02*
D03*
X231000D02*
D03*
X216000Y166000D02*
D03*
X226000D02*
D03*
X231000Y91000D02*
D03*
X241000D02*
D03*
D28*
X286500Y64000D02*
D03*
X269500D02*
D03*
Y78000D02*
D03*
X286500D02*
D03*
D29*
X276000Y195500D02*
D03*
Y168500D02*
D03*
D30*
X415750Y120000D02*
D03*
D31*
X431000Y105250D02*
D03*
Y134750D02*
D03*
M02*
