G04*
G04 #@! TF.GenerationSoftware,Altium Limited,Altium Designer,18.1.6 (161)*
G04*
G04 Layer_Color=128*
%FSLAX44Y44*%
%MOMM*%
G71*
G01*
G75*
%ADD70C,0.0508*%
D70*
X41300Y243400D02*
X50300D01*
X45800Y238900D02*
Y247900D01*
X219100Y243400D02*
X228100D01*
X223600Y238900D02*
Y247900D01*
X219100Y223400D02*
X228100D01*
X223600Y218900D02*
Y227900D01*
X193700Y243400D02*
X202700D01*
X198200Y238900D02*
Y247900D01*
X193700Y223400D02*
X202700D01*
X198200Y218900D02*
Y227900D01*
X168300Y243400D02*
X177300D01*
X172800Y238900D02*
Y247900D01*
X168300Y223400D02*
X177300D01*
X172800Y218900D02*
Y227900D01*
X142900Y243400D02*
X151900D01*
X147400Y238900D02*
Y247900D01*
X142900Y223400D02*
X151900D01*
X147400Y218900D02*
Y227900D01*
X117500Y243400D02*
X126500D01*
X122000Y238900D02*
Y247900D01*
X117500Y223400D02*
X126500D01*
X122000Y218900D02*
Y227900D01*
X92100Y243400D02*
X101100D01*
X96600Y238900D02*
Y247900D01*
X92100Y223400D02*
X101100D01*
X96600Y218900D02*
Y227900D01*
X66700Y243400D02*
X75700D01*
X71200Y238900D02*
Y247900D01*
X66700Y223400D02*
X75700D01*
X71200Y218900D02*
Y227900D01*
X41300Y223400D02*
X50300D01*
X45800Y218900D02*
Y227900D01*
X-4100Y198000D02*
X4900D01*
X400Y193500D02*
Y202500D01*
X-4100Y45600D02*
X4900D01*
X400Y41100D02*
Y50100D01*
X15900Y45600D02*
X24900D01*
X20400Y41100D02*
Y50100D01*
X-4100Y71000D02*
X4900D01*
X400Y66500D02*
Y75500D01*
X15900Y71000D02*
X24900D01*
X20400Y66500D02*
Y75500D01*
X-4100Y96400D02*
X4900D01*
X400Y91900D02*
Y100900D01*
X15900Y96400D02*
X24900D01*
X20400Y91900D02*
Y100900D01*
X-4100Y121800D02*
X4900D01*
X400Y117300D02*
Y126300D01*
X15900Y121800D02*
X24900D01*
X20400Y117300D02*
Y126300D01*
X-4100Y147200D02*
X4900D01*
X400Y142700D02*
Y151700D01*
X15900Y147200D02*
X24900D01*
X20400Y142700D02*
Y151700D01*
X-4100Y172600D02*
X4900D01*
X400Y168100D02*
Y177100D01*
X15900Y172600D02*
X24900D01*
X20400Y168100D02*
Y177100D01*
X15900Y198000D02*
X24900D01*
X20400Y193500D02*
Y202500D01*
X41300Y20200D02*
X50300D01*
X45800Y15700D02*
Y24700D01*
X66700Y20200D02*
X75700D01*
X71200Y15700D02*
Y24700D01*
X66700Y200D02*
X75700D01*
X71200Y-4300D02*
Y4700D01*
X92100Y20200D02*
X101100D01*
X96600Y15700D02*
Y24700D01*
X92100Y200D02*
X101100D01*
X96600Y-4300D02*
Y4700D01*
X117500Y20200D02*
X126500D01*
X122000Y15700D02*
Y24700D01*
X117500Y200D02*
X126500D01*
X122000Y-4300D02*
Y4700D01*
X142900Y20200D02*
X151900D01*
X147400Y15700D02*
Y24700D01*
X142900Y200D02*
X151900D01*
X147400Y-4300D02*
Y4700D01*
X168300Y20200D02*
X177300D01*
X172800Y15700D02*
Y24700D01*
X168300Y200D02*
X177300D01*
X172800Y-4300D02*
Y4700D01*
X193700Y20200D02*
X202700D01*
X198200Y15700D02*
Y24700D01*
X193700Y200D02*
X202700D01*
X198200Y-4300D02*
Y4700D01*
X219100Y20200D02*
X228100D01*
X223600Y15700D02*
Y24700D01*
X219100Y200D02*
X228100D01*
X223600Y-4300D02*
Y4700D01*
X41300Y200D02*
X50300D01*
X45800Y-4300D02*
Y4700D01*
X60750Y71000D02*
X65750D01*
X63250Y68500D02*
Y73500D01*
X49750Y71000D02*
X54750D01*
X52250Y68500D02*
Y73500D01*
X152500Y74000D02*
X155500D01*
X154000Y72500D02*
Y75500D01*
X143500Y79000D02*
X146500D01*
X145000Y77500D02*
Y80500D01*
X198500Y144000D02*
X201500D01*
X200000Y142500D02*
Y145500D01*
X206500Y117000D02*
X209500D01*
X208000Y115500D02*
Y118500D01*
X213500Y111000D02*
X216500D01*
X215000Y109500D02*
Y112500D01*
X219500Y128000D02*
X222500D01*
X221000Y126500D02*
Y129500D01*
X227500Y131000D02*
X230500D01*
X229000Y129500D02*
Y132500D01*
X246500Y132000D02*
X249500D01*
X248000Y130500D02*
Y133500D01*
X214500Y91000D02*
X217500D01*
X216000Y89500D02*
Y92500D01*
X149500Y201000D02*
X152500D01*
X151000Y199500D02*
Y202500D01*
X131015Y182000D02*
X134015D01*
X132515Y180500D02*
Y183500D01*
X140500Y181000D02*
X143500D01*
X142000Y179500D02*
Y182500D01*
X120500Y183000D02*
X123500D01*
X122000Y181500D02*
Y184500D01*
X135500Y205000D02*
X138500D01*
X137000Y203500D02*
Y206500D01*
X170500Y152000D02*
X173500D01*
X172000Y150500D02*
Y153500D01*
X170500Y141000D02*
X173500D01*
X172000Y139500D02*
Y142500D01*
X170500Y130000D02*
X173500D01*
X172000Y128500D02*
Y131500D01*
X170500Y119000D02*
X173500D01*
X172000Y117500D02*
Y120500D01*
X170500Y108000D02*
X173500D01*
X172000Y106500D02*
Y109500D01*
X159500Y152000D02*
X162500D01*
X161000Y150500D02*
Y153500D01*
X159500Y141000D02*
X162500D01*
X161000Y139500D02*
Y142500D01*
X159500Y130000D02*
X162500D01*
X161000Y128500D02*
Y131500D01*
X159500Y119000D02*
X162500D01*
X161000Y117500D02*
Y120500D01*
X159500Y108000D02*
X162500D01*
X161000Y106500D02*
Y109500D01*
X148500Y152000D02*
X151500D01*
X150000Y150500D02*
Y153500D01*
X148500Y141000D02*
X151500D01*
X150000Y139500D02*
Y142500D01*
X148500Y130000D02*
X151500D01*
X150000Y128500D02*
Y131500D01*
X148500Y119000D02*
X151500D01*
X150000Y117500D02*
Y120500D01*
X148500Y108000D02*
X151500D01*
X150000Y106500D02*
Y109500D01*
X137500Y152000D02*
X140500D01*
X139000Y150500D02*
Y153500D01*
X137500Y141000D02*
X140500D01*
X139000Y139500D02*
Y142500D01*
X137500Y130000D02*
X140500D01*
X139000Y128500D02*
Y131500D01*
X137500Y119000D02*
X140500D01*
X139000Y117500D02*
Y120500D01*
X137500Y108000D02*
X140500D01*
X139000Y106500D02*
Y109500D01*
X126500Y152000D02*
X129500D01*
X128000Y150500D02*
Y153500D01*
X126500Y141000D02*
X129500D01*
X128000Y139500D02*
Y142500D01*
X126500Y130000D02*
X129500D01*
X128000Y128500D02*
Y131500D01*
X126500Y119000D02*
X129500D01*
X128000Y117500D02*
Y120500D01*
X126500Y108000D02*
X129500D01*
X128000Y106500D02*
Y109500D01*
X66500Y167000D02*
X69500D01*
X68000Y165500D02*
Y168500D01*
X196500Y173000D02*
X199500D01*
X198000Y171500D02*
Y174500D01*
X188500Y83000D02*
X191500D01*
X190000Y81500D02*
Y84500D01*
X82500Y88000D02*
X85500D01*
X84000Y86500D02*
Y89500D01*
X14500Y24000D02*
X17500D01*
X16000Y22500D02*
Y25500D01*
X132500Y46000D02*
X135500D01*
X134000Y44500D02*
Y47500D01*
X147500Y60000D02*
X150500D01*
X149000Y58500D02*
Y61500D01*
X438500Y144000D02*
X441500D01*
X440000Y142500D02*
Y145500D01*
X423500Y144000D02*
X426500D01*
X425000Y142500D02*
Y145500D01*
X438500Y95000D02*
X441500D01*
X440000Y93500D02*
Y96500D01*
X423500Y95000D02*
X426500D01*
X425000Y93500D02*
Y96500D01*
X296250Y64000D02*
X299250D01*
X297750Y62500D02*
Y65500D01*
X257500Y78000D02*
X260500D01*
X259000Y76500D02*
Y79500D01*
X292500Y90500D02*
X295500D01*
X294000Y89000D02*
Y92000D01*
X319500Y77000D02*
X322500D01*
X321000Y75500D02*
Y78500D01*
X399500Y139000D02*
X402500D01*
X401000Y137500D02*
Y140500D01*
X373500Y105000D02*
X376500D01*
X375000Y103500D02*
Y106500D01*
X347500Y139000D02*
X350500D01*
X349000Y137500D02*
Y140500D01*
X257500Y154000D02*
X260500D01*
X259000Y152500D02*
Y155500D01*
X231500Y142000D02*
X234500D01*
X233000Y140500D02*
Y143500D01*
X235500Y151000D02*
X238500D01*
X237000Y149500D02*
Y152500D01*
X224500Y189000D02*
X227500D01*
X226000Y187500D02*
Y190500D01*
X78500Y106000D02*
X81500D01*
X80000Y104500D02*
Y107500D01*
X82500Y96000D02*
X85500D01*
X84000Y94500D02*
Y97500D01*
X83500Y69000D02*
X86500D01*
X85000Y67500D02*
Y70500D01*
X216500Y58000D02*
X219500D01*
X218000Y56500D02*
Y59500D01*
X191500Y58000D02*
X194500D01*
X193000Y56500D02*
Y59500D01*
X49500Y112000D02*
X52500D01*
X51000Y110500D02*
Y113500D01*
X67500Y87000D02*
X70500D01*
X69000Y85500D02*
Y88500D01*
X166098Y57598D02*
X169098D01*
X167598Y56098D02*
Y59098D01*
X320500Y168000D02*
X323500D01*
X322000Y166500D02*
Y169500D01*
X311500Y168000D02*
X314500D01*
X313000Y166500D02*
Y169500D01*
X302500Y168000D02*
X305500D01*
X304000Y166500D02*
Y169500D01*
X291500Y174000D02*
X294500D01*
X293000Y172500D02*
Y175500D01*
X267500Y144000D02*
X270500D01*
X269000Y142500D02*
Y145500D01*
X172500Y202000D02*
X175500D01*
X174000Y200500D02*
Y203500D01*
X439202Y221552D02*
X442202D01*
X440702Y220052D02*
Y223052D01*
X449202Y201552D02*
X452202D01*
X450702Y200052D02*
Y203052D01*
X439202Y181552D02*
X442202D01*
X440702Y180052D02*
Y183052D01*
X449202Y161552D02*
X452202D01*
X450702Y160052D02*
Y163052D01*
X449202Y121552D02*
X452202D01*
X450702Y120052D02*
Y123052D01*
X449202Y81552D02*
X452202D01*
X450702Y80052D02*
Y83052D01*
X439202Y61552D02*
X442202D01*
X440702Y60052D02*
Y63052D01*
X449202Y41552D02*
X452202D01*
X450702Y40052D02*
Y43052D01*
X439202Y21552D02*
X442202D01*
X440702Y20052D02*
Y23052D01*
X419202Y221552D02*
X422202D01*
X420702Y220052D02*
Y223052D01*
X429202Y201552D02*
X432202D01*
X430702Y200052D02*
Y203052D01*
X419202Y181552D02*
X422202D01*
X420702Y180052D02*
Y183052D01*
X429202Y161552D02*
X432202D01*
X430702Y160052D02*
Y163052D01*
X429202Y81552D02*
X432202D01*
X430702Y80052D02*
Y83052D01*
X419202Y61552D02*
X422202D01*
X420702Y60052D02*
Y63052D01*
X429202Y41552D02*
X432202D01*
X430702Y40052D02*
Y43052D01*
X419202Y21552D02*
X422202D01*
X420702Y20052D02*
Y23052D01*
X399202Y221552D02*
X402202D01*
X400702Y220052D02*
Y223052D01*
X409202Y201552D02*
X412202D01*
X410702Y200052D02*
Y203052D01*
X399202Y181552D02*
X402202D01*
X400702Y180052D02*
Y183052D01*
X409202Y161552D02*
X412202D01*
X410702Y160052D02*
Y163052D01*
X399202Y101552D02*
X402202D01*
X400702Y100052D02*
Y103052D01*
X409202Y81552D02*
X412202D01*
X410702Y80052D02*
Y83052D01*
X399202Y61552D02*
X402202D01*
X400702Y60052D02*
Y63052D01*
X409202Y41552D02*
X412202D01*
X410702Y40052D02*
Y43052D01*
X399202Y21552D02*
X402202D01*
X400702Y20052D02*
Y23052D01*
X379202Y221552D02*
X382202D01*
X380702Y220052D02*
Y223052D01*
X389202Y201552D02*
X392202D01*
X390702Y200052D02*
Y203052D01*
X379202Y181552D02*
X382202D01*
X380702Y180052D02*
Y183052D01*
X389202Y161552D02*
X392202D01*
X390702Y160052D02*
Y163052D01*
X379202Y141552D02*
X382202D01*
X380702Y140052D02*
Y143052D01*
X389202Y81552D02*
X392202D01*
X390702Y80052D02*
Y83052D01*
X379202Y61552D02*
X382202D01*
X380702Y60052D02*
Y63052D01*
X389202Y41552D02*
X392202D01*
X390702Y40052D02*
Y43052D01*
X379202Y21552D02*
X382202D01*
X380702Y20052D02*
Y23052D01*
X359202Y221552D02*
X362202D01*
X360702Y220052D02*
Y223052D01*
X369202Y201552D02*
X372202D01*
X370702Y200052D02*
Y203052D01*
X359202Y181552D02*
X362202D01*
X360702Y180052D02*
Y183052D01*
X369202Y161552D02*
X372202D01*
X370702Y160052D02*
Y163052D01*
X359202Y141552D02*
X362202D01*
X360702Y140052D02*
Y143052D01*
X359202Y101552D02*
X362202D01*
X360702Y100052D02*
Y103052D01*
X369202Y81552D02*
X372202D01*
X370702Y80052D02*
Y83052D01*
X359202Y61552D02*
X362202D01*
X360702Y60052D02*
Y63052D01*
X369202Y41552D02*
X372202D01*
X370702Y40052D02*
Y43052D01*
X359202Y21552D02*
X362202D01*
X360702Y20052D02*
Y23052D01*
X339202Y221552D02*
X342202D01*
X340702Y220052D02*
Y223052D01*
X349202Y201552D02*
X352202D01*
X350702Y200052D02*
Y203052D01*
X339202Y181552D02*
X342202D01*
X340702Y180052D02*
Y183052D01*
X349202Y161552D02*
X352202D01*
X350702Y160052D02*
Y163052D01*
X339202Y141552D02*
X342202D01*
X340702Y140052D02*
Y143052D01*
X339202Y101552D02*
X342202D01*
X340702Y100052D02*
Y103052D01*
X349202Y81552D02*
X352202D01*
X350702Y80052D02*
Y83052D01*
X339202Y61552D02*
X342202D01*
X340702Y60052D02*
Y63052D01*
X349202Y41552D02*
X352202D01*
X350702Y40052D02*
Y43052D01*
X339202Y21552D02*
X342202D01*
X340702Y20052D02*
Y23052D01*
X319202Y221552D02*
X322202D01*
X320702Y220052D02*
Y223052D01*
X329202Y201552D02*
X332202D01*
X330702Y200052D02*
Y203052D01*
X319202Y181552D02*
X322202D01*
X320702Y180052D02*
Y183052D01*
X329202Y81552D02*
X332202D01*
X330702Y80052D02*
Y83052D01*
X319202Y61552D02*
X322202D01*
X320702Y60052D02*
Y63052D01*
X329202Y41552D02*
X332202D01*
X330702Y40052D02*
Y43052D01*
X319202Y21552D02*
X322202D01*
X320702Y20052D02*
Y23052D01*
X299202Y221552D02*
X302202D01*
X300702Y220052D02*
Y223052D01*
X309202Y201552D02*
X312202D01*
X310702Y200052D02*
Y203052D01*
X299202Y181552D02*
X302202D01*
X300702Y180052D02*
Y183052D01*
X309202Y41552D02*
X312202D01*
X310702Y40052D02*
Y43052D01*
X299202Y21552D02*
X302202D01*
X300702Y20052D02*
Y23052D01*
X279202Y221552D02*
X282202D01*
X280702Y220052D02*
Y223052D01*
X289202Y41552D02*
X292202D01*
X290702Y40052D02*
Y43052D01*
X279202Y21552D02*
X282202D01*
X280702Y20052D02*
Y23052D01*
X259202Y221552D02*
X262202D01*
X260702Y220052D02*
Y223052D01*
X259202Y141552D02*
X262202D01*
X260702Y140052D02*
Y143052D01*
X269202Y41552D02*
X272202D01*
X270702Y40052D02*
Y43052D01*
X259202Y21552D02*
X262202D01*
X260702Y20052D02*
Y23052D01*
X239202Y221552D02*
X242202D01*
X240702Y220052D02*
Y223052D01*
X239202Y141552D02*
X242202D01*
X240702Y140052D02*
Y143052D01*
X229202Y201552D02*
X232202D01*
X230702Y200052D02*
Y203052D01*
X39202Y181552D02*
X42202D01*
X40702Y180052D02*
Y183052D01*
X49202Y121552D02*
X52202D01*
X50702Y120052D02*
Y123052D01*
X19202Y221552D02*
X22202D01*
X20702Y220052D02*
Y223052D01*
X29202Y161552D02*
X32202D01*
X30702Y160052D02*
Y163052D01*
X301500Y130000D02*
X304500D01*
X303000Y128500D02*
Y131500D01*
X97000Y50500D02*
X100000D01*
X98500Y49000D02*
Y52000D01*
X271000Y119500D02*
X274000D01*
X272500Y118000D02*
Y121000D01*
X280000Y119500D02*
X283000D01*
X281500Y118000D02*
Y121000D01*
X271000Y110500D02*
X274000D01*
X272500Y109000D02*
Y112000D01*
X280000Y110500D02*
X283000D01*
X281500Y109000D02*
Y112000D01*
X180500Y202000D02*
X183500D01*
X182000Y200500D02*
Y203500D01*
X201500Y88000D02*
X204500D01*
X203000Y86500D02*
Y89500D01*
X208500Y83000D02*
X211500D01*
X210000Y81500D02*
Y84500D01*
X93500Y110000D02*
X96500D01*
X95000Y108500D02*
Y111500D01*
X87500Y116000D02*
X90500D01*
X89000Y114500D02*
Y117500D01*
X54500Y136000D02*
X57500D01*
X56000Y134500D02*
Y137500D01*
X78500Y143743D02*
X81500D01*
X80000Y142243D02*
Y145243D01*
X78500Y152000D02*
X81500D01*
X80000Y150500D02*
Y153500D01*
X78500Y161000D02*
X81500D01*
X80000Y159500D02*
Y162500D01*
X78500Y170000D02*
X81500D01*
X80000Y168500D02*
Y171500D01*
X40500Y49000D02*
X43500D01*
X42000Y47500D02*
Y50500D01*
X79500Y57000D02*
X82500D01*
X81000Y55500D02*
Y58500D01*
X88500Y129000D02*
X91500D01*
X90000Y127500D02*
Y130500D01*
X82500Y136000D02*
X85500D01*
X84000Y134500D02*
Y137500D01*
X40500Y136000D02*
X43500D01*
X42000Y134500D02*
Y137500D01*
X35500Y205000D02*
X38500D01*
X37000Y203500D02*
Y206500D01*
X60500Y104000D02*
X63500D01*
X62000Y102500D02*
Y105500D01*
M02*
