G04*
G04 #@! TF.GenerationSoftware,Altium Limited,Altium Designer,18.1.6 (161)*
G04*
G04 Layer_Physical_Order=1*
G04 Layer_Color=3162822*
%FSLAX44Y44*%
%MOMM*%
G71*
G01*
G75*
%ADD10C,0.2500*%
%ADD11C,0.2000*%
%ADD12R,5.6000X5.6000*%
%ADD13O,1.5000X0.2500*%
%ADD14O,0.2500X1.5000*%
%ADD15R,1.9000X1.5000*%
%ADD16R,1.5000X1.9000*%
%ADD17R,0.5000X0.6000*%
%ADD18R,0.7000X0.7000*%
%ADD19R,0.7000X0.7000*%
%ADD20R,1.7000X1.7000*%
%ADD21O,0.2750X0.9500*%
%ADD22O,0.9500X0.2750*%
%ADD23R,0.8000X0.9000*%
%ADD24R,0.6500X1.1000*%
%ADD25R,0.6500X0.9000*%
%ADD26R,0.9000X0.8000*%
%ADD27R,0.6000X0.5000*%
%ADD28R,1.2000X1.1000*%
%ADD29R,1.7000X1.1000*%
%ADD30R,1.0500X1.0000*%
%ADD31R,2.2000X1.0500*%
%ADD56C,0.3500*%
%ADD57C,0.3000*%
%ADD58C,0.1500*%
%ADD59C,0.4500*%
%ADD60C,1.5000*%
%ADD61R,1.5000X1.5000*%
%ADD62R,1.5000X1.5000*%
%ADD63C,0.9000*%
%ADD64C,0.6000*%
G36*
X32800Y224900D02*
X34800D01*
Y212400D01*
X40702D01*
Y212200D01*
X41090Y210249D01*
X41360Y209845D01*
X41350Y208575D01*
X41350D01*
Y192575D01*
X52247D01*
Y188825D01*
X50850D01*
Y170825D01*
X52247D01*
Y165817D01*
X32646Y146216D01*
X31444Y146810D01*
X31495Y147200D01*
X31117Y150072D01*
X30008Y152747D01*
X28245Y155045D01*
X25947Y156809D01*
X23272Y157917D01*
X20400Y158295D01*
X19855Y158223D01*
X18900Y159060D01*
Y160739D01*
X19150Y160959D01*
Y172600D01*
Y184241D01*
X18900Y184461D01*
Y187000D01*
X31400D01*
Y209000D01*
X18900D01*
Y211000D01*
X4588D01*
Y239412D01*
X32800D01*
Y224900D01*
D02*
G37*
G36*
X73995Y173556D02*
X73997Y173457D01*
X73905Y172269D01*
X73667Y171696D01*
X73444Y170000D01*
X73667Y168303D01*
X74322Y166722D01*
X75260Y165500D01*
X74322Y164278D01*
X73667Y162697D01*
X73444Y161000D01*
X73667Y159303D01*
X74322Y157722D01*
X75260Y156500D01*
X74322Y155278D01*
X73667Y153696D01*
X73444Y152000D01*
X73667Y150303D01*
X74322Y148722D01*
X74975Y147871D01*
X74322Y147021D01*
X73667Y145440D01*
X73444Y143743D01*
X73667Y142046D01*
X73834Y141644D01*
X73128Y140588D01*
X60672D01*
X60636Y140636D01*
X59278Y141678D01*
X57697Y142333D01*
X56000Y142556D01*
X54303Y142333D01*
X52722Y141678D01*
X51364Y140636D01*
X50619Y139665D01*
X49588Y139350D01*
X49001Y139407D01*
X47756Y140239D01*
X46793Y140430D01*
X46636Y140636D01*
X45278Y141678D01*
X44898Y141835D01*
X44651Y143081D01*
X61385Y159815D01*
X62545Y161552D01*
X62953Y163600D01*
Y170825D01*
X64350D01*
Y174727D01*
X73896D01*
X73995Y173556D01*
D02*
G37*
G36*
X49756Y125756D02*
X51244Y124761D01*
X53000Y124412D01*
X61264D01*
X61750Y123238D01*
X58756Y120244D01*
X57761Y118756D01*
X57412Y117000D01*
Y116407D01*
X56142Y115976D01*
X55636Y116636D01*
X54278Y117678D01*
X52697Y118333D01*
X51000Y118556D01*
X49303Y118333D01*
X47722Y117678D01*
X46364Y116636D01*
X45322Y115278D01*
X44667Y113697D01*
X44444Y112000D01*
X44667Y110303D01*
X45322Y108722D01*
X46364Y107364D01*
X46412Y107328D01*
Y105000D01*
X46761Y103244D01*
X47756Y101756D01*
X62452Y87060D01*
X62444Y87000D01*
X62535Y86308D01*
X61698Y85353D01*
X40353D01*
Y128698D01*
X41308Y129535D01*
X42000Y129444D01*
X43697Y129667D01*
X45215Y130296D01*
X49756Y125756D01*
D02*
G37*
G36*
X74000Y114250D02*
X80000D01*
Y113000D01*
X81250D01*
Y106500D01*
X86000D01*
Y109064D01*
X87056Y109770D01*
X87303Y109667D01*
X88509Y109509D01*
X88667Y108303D01*
X89322Y106722D01*
X90364Y105364D01*
X91722Y104322D01*
X93303Y103667D01*
X95000Y103444D01*
X95639Y103528D01*
X96364Y102343D01*
X96129Y102000D01*
X92250D01*
Y96000D01*
X91000D01*
Y94750D01*
X84500D01*
Y90000D01*
Y89250D01*
X91000D01*
Y86750D01*
X84500D01*
Y85353D01*
X76302D01*
X75465Y86308D01*
X75556Y87000D01*
X75333Y88697D01*
X74678Y90278D01*
X73636Y91636D01*
X72278Y92678D01*
X70697Y93333D01*
X69000Y93556D01*
X68940Y93548D01*
X65359Y97129D01*
X65665Y98619D01*
X66636Y99364D01*
X67678Y100722D01*
X68333Y102303D01*
X68556Y104000D01*
X68333Y105697D01*
X67678Y107278D01*
X66636Y108636D01*
X66588Y108672D01*
Y115099D01*
X69401Y117912D01*
X74000D01*
Y114250D01*
D02*
G37*
G36*
X9150Y32600D02*
X15586D01*
X16000Y31502D01*
X16000D01*
Y25252D01*
X24000D01*
Y22752D01*
X16000D01*
Y16502D01*
Y4588D01*
X4588D01*
Y32600D01*
X6650D01*
Y45600D01*
X9150D01*
Y32600D01*
D02*
G37*
G36*
X130502Y205442D02*
X130444Y205000D01*
X130667Y203303D01*
X131322Y201722D01*
X132364Y200364D01*
X133722Y199322D01*
X135303Y198667D01*
X137000Y198444D01*
X138697Y198667D01*
X140278Y199322D01*
X141636Y200364D01*
X141672Y200412D01*
X144521D01*
X144667Y199303D01*
X145322Y197722D01*
X146364Y196364D01*
X147722Y195322D01*
X149303Y194667D01*
X151000Y194444D01*
X151045Y194450D01*
X152000Y193612D01*
Y190076D01*
X150756Y189244D01*
X149756Y188244D01*
X148761Y186756D01*
X148476Y185324D01*
X147619Y184985D01*
X147142Y184976D01*
X146636Y185636D01*
X145278Y186678D01*
X143697Y187333D01*
X142000Y187556D01*
X140303Y187333D01*
X138722Y186678D01*
X138425Y186450D01*
X137166Y186616D01*
X137151Y186636D01*
X135793Y187678D01*
X134212Y188333D01*
X132515Y188556D01*
X130818Y188333D01*
X129237Y187678D01*
X127879Y186636D01*
X126837Y185278D01*
X126182Y183697D01*
X125959Y182000D01*
X126182Y180303D01*
X126292Y180037D01*
X125745Y178850D01*
X124466Y178399D01*
X124353Y178474D01*
X122500Y178843D01*
X121270Y178598D01*
X120000Y179454D01*
Y186500D01*
Y191750D01*
X114000D01*
Y193000D01*
X112750D01*
Y199500D01*
X112353D01*
Y204854D01*
X113048Y204992D01*
X114785Y206152D01*
X115030Y206397D01*
X129665D01*
X130502Y205442D01*
D02*
G37*
G36*
X242250Y188375D02*
X253657D01*
Y184625D01*
X251750D01*
Y177277D01*
X250480Y176892D01*
X250244Y177244D01*
X247619Y179869D01*
X246250Y180784D01*
Y184625D01*
X232750D01*
X232500Y185791D01*
Y188000D01*
X227250D01*
Y182000D01*
X224750D01*
Y188000D01*
X211353D01*
Y193000D01*
X211353Y193000D01*
Y204585D01*
X242250D01*
Y188375D01*
D02*
G37*
G36*
X200647Y182000D02*
Y174000D01*
X200647Y174000D01*
Y170496D01*
X192494Y162343D01*
X182343D01*
Y174000D01*
Y177500D01*
X182198Y178230D01*
X183240Y179500D01*
X188000D01*
Y179500D01*
X196000D01*
Y190647D01*
X200647D01*
Y182000D01*
D02*
G37*
G36*
X238250Y152000D02*
X253500D01*
Y153157D01*
X254000D01*
X255853Y153526D01*
X257425Y154576D01*
X258328Y155479D01*
X259502Y154993D01*
Y147000D01*
X265752D01*
Y155000D01*
X268252D01*
Y147000D01*
X275578D01*
X275948Y145730D01*
X275026Y144350D01*
X274657Y142497D01*
Y139224D01*
X274500Y139095D01*
X272598Y138717D01*
X272000Y138318D01*
X271402Y138717D01*
X269500Y139095D01*
X267598Y138717D01*
X265985Y137640D01*
X265224Y136500D01*
X255500D01*
Y134197D01*
X254230Y133945D01*
X253678Y135278D01*
X252636Y136636D01*
X251278Y137678D01*
X249697Y138333D01*
X248000Y138556D01*
X246303Y138333D01*
X244722Y137678D01*
X243364Y136636D01*
X242322Y135278D01*
X241667Y133697D01*
X241444Y132000D01*
X241667Y130303D01*
X241770Y130056D01*
X241064Y129000D01*
X236249D01*
X235453Y130214D01*
X235556Y131000D01*
X235333Y132697D01*
X234678Y134278D01*
X233636Y135636D01*
X232500Y136507D01*
Y140750D01*
X226000D01*
Y143250D01*
X232500D01*
Y144000D01*
Y148750D01*
X226000D01*
Y151250D01*
X232500D01*
Y152000D01*
X235750D01*
Y158000D01*
X238250D01*
Y152000D01*
D02*
G37*
G36*
X459412Y4588D02*
X236600D01*
Y15691D01*
X237956Y15961D01*
X239444Y16956D01*
X248244Y25756D01*
X249239Y27244D01*
X249588Y29000D01*
Y52264D01*
X250762Y52750D01*
X255756Y47756D01*
X257244Y46761D01*
X259000Y46412D01*
X300000D01*
X301756Y46761D01*
X303244Y47756D01*
X307244Y51756D01*
X308239Y53244D01*
X308588Y55000D01*
Y96500D01*
X315000D01*
Y87500D01*
Y85250D01*
X321000D01*
X327000D01*
Y87500D01*
Y97000D01*
X337500D01*
Y107137D01*
X338000D01*
X340243Y107584D01*
X342146Y108854D01*
X345145Y111854D01*
X346416Y113756D01*
X346763Y115500D01*
X355000D01*
Y116000D01*
X369000D01*
Y113250D01*
X375000D01*
X381000D01*
Y116000D01*
X395000D01*
Y115500D01*
X404385D01*
X405756Y114584D01*
X407000Y114336D01*
Y111500D01*
X416500D01*
Y106500D01*
X429750D01*
Y114000D01*
X429000D01*
Y126000D01*
X429750D01*
Y133500D01*
X416500D01*
Y128500D01*
X407000D01*
Y130750D01*
X395000D01*
Y128000D01*
X381000D01*
Y128500D01*
X369000D01*
Y128000D01*
X355000D01*
Y130750D01*
X343000D01*
Y128000D01*
X318000D01*
Y134500D01*
Y144500D01*
X328000D01*
Y154500D01*
Y159750D01*
X322000D01*
Y161000D01*
X320750D01*
Y167500D01*
X314250D01*
Y161000D01*
X311750D01*
Y167500D01*
X305250D01*
Y161000D01*
X302750D01*
Y167500D01*
X301000D01*
Y173498D01*
X294250D01*
Y165998D01*
X291750D01*
Y173498D01*
X288000D01*
Y175000D01*
X288000D01*
Y191000D01*
X288000D01*
Y204500D01*
X264000D01*
Y200343D01*
X261500D01*
X261500Y200343D01*
X259647Y199974D01*
X258075Y198925D01*
X256923Y197773D01*
X255750Y198258D01*
Y206375D01*
X254278D01*
X253945Y208048D01*
X252785Y209785D01*
X248848Y213722D01*
X247111Y214883D01*
X245063Y215290D01*
X232843D01*
X232217Y216560D01*
X233209Y217852D01*
X234317Y220528D01*
X234695Y223400D01*
X234623Y223945D01*
X235460Y224900D01*
X236600D01*
Y239412D01*
X459412D01*
Y4588D01*
D02*
G37*
%LPC*%
G36*
X21650Y183530D02*
Y173850D01*
X31330D01*
X31117Y175472D01*
X30008Y178148D01*
X28245Y180445D01*
X25947Y182208D01*
X23272Y183317D01*
X21650Y183530D01*
D02*
G37*
G36*
X31330Y171350D02*
X21650D01*
Y161670D01*
X23272Y161883D01*
X25947Y162992D01*
X28245Y164755D01*
X30008Y167052D01*
X31117Y169728D01*
X31330Y171350D01*
D02*
G37*
G36*
X78750Y111750D02*
X74000D01*
Y106500D01*
X78750D01*
Y111750D01*
D02*
G37*
G36*
X89750Y102000D02*
X84500D01*
Y97250D01*
X89750D01*
Y102000D01*
D02*
G37*
G36*
X120000Y199500D02*
X115250D01*
Y194250D01*
X120000D01*
Y199500D01*
D02*
G37*
G36*
X328000Y167500D02*
X323250D01*
Y162250D01*
X328000D01*
Y167500D01*
D02*
G37*
G36*
X445500Y143500D02*
X432250D01*
Y136000D01*
X445500D01*
Y143500D01*
D02*
G37*
G36*
X429750D02*
X416500D01*
Y136000D01*
X429750D01*
Y143500D01*
D02*
G37*
G36*
X355000Y138500D02*
X350250D01*
Y133250D01*
X355000D01*
Y138500D01*
D02*
G37*
G36*
X347750D02*
X343000D01*
Y133250D01*
X347750D01*
Y138500D01*
D02*
G37*
G36*
X407000Y138500D02*
X402250D01*
Y133250D01*
X407000D01*
Y138500D01*
D02*
G37*
G36*
X399750D02*
X395000D01*
Y133250D01*
X399750D01*
Y138500D01*
D02*
G37*
G36*
X445500Y133500D02*
X432250D01*
Y126000D01*
X445500D01*
Y133500D01*
D02*
G37*
G36*
Y114000D02*
X432250D01*
Y106500D01*
X445500D01*
Y114000D01*
D02*
G37*
G36*
X381000Y110750D02*
X376250D01*
Y105500D01*
X381000D01*
Y110750D01*
D02*
G37*
G36*
X373750D02*
X369000D01*
Y105500D01*
X373750D01*
Y110750D01*
D02*
G37*
G36*
X445500Y104000D02*
X432250D01*
Y96500D01*
X445500D01*
Y104000D01*
D02*
G37*
G36*
X429750D02*
X416500D01*
Y96500D01*
X429750D01*
Y104000D01*
D02*
G37*
G36*
X327000Y82750D02*
X322250D01*
Y77500D01*
X327000D01*
Y82750D01*
D02*
G37*
G36*
X319750D02*
X315000D01*
Y77500D01*
X319750D01*
Y82750D01*
D02*
G37*
%LPD*%
D10*
X157500Y94750D02*
Y122500D01*
X194500Y157500D02*
X206000Y169000D01*
X187750Y157500D02*
X194500D01*
X115250Y167750D02*
X122500D01*
X114000Y169000D02*
X115250Y167750D01*
X114000Y169000D02*
Y183000D01*
X182000Y186000D02*
X190000D01*
X174000D02*
X182000D01*
X190000D02*
X190000Y186000D01*
X174000Y181000D02*
Y186000D01*
Y181000D02*
X177500Y177500D01*
Y167750D02*
Y177500D01*
X127500Y152500D02*
Y167750D01*
Y107500D02*
X128000Y108000D01*
X114750Y107500D02*
X127500D01*
X258000Y169000D02*
Y176625D01*
X247000Y157000D02*
X248000Y158000D01*
X258000Y162000D02*
Y169000D01*
X254000Y158000D02*
X258000Y162000D01*
X248000Y158000D02*
X254000D01*
X313500Y151000D02*
X322500D01*
X292498Y153000D02*
X294499Y151000D01*
X312500D01*
Y139500D02*
Y151000D01*
X258000Y169000D02*
X258000Y169000D01*
X282000Y154002D02*
X283002Y153000D01*
X282000Y144997D02*
X282002Y144998D01*
X279500Y142497D02*
X282000Y144997D01*
X281002Y155000D02*
X282000Y154002D01*
Y144997D02*
Y154002D01*
X284500Y130750D02*
Y142500D01*
X282002Y144998D02*
X284500Y142500D01*
X279500Y130750D02*
Y142497D01*
X291998Y153000D02*
X293000Y151998D01*
X283002Y153000D02*
X291998D01*
X258500Y192500D02*
X261500Y195500D01*
X258500Y176625D02*
Y192500D01*
X261500Y195500D02*
X276000D01*
X322500Y151000D02*
X323000Y150500D01*
X172500Y152500D02*
X185250D01*
X128000Y152000D02*
X139000Y141000D01*
X150000Y130000D02*
X157500Y122500D01*
X161000Y141000D02*
X172000Y152000D01*
D11*
X97500Y112500D02*
X112250D01*
X95000Y110000D02*
X97500Y112500D01*
X102382Y107250D02*
X114500D01*
X98132Y103000D02*
X102382Y107250D01*
X103500Y102500D02*
X112250D01*
X101000Y100000D02*
X103500Y102500D01*
X89000Y116000D02*
X93000D01*
X94500Y117500D01*
X112250D01*
X114750D01*
X291000Y93500D02*
Y101000D01*
X274500Y117500D02*
Y130750D01*
X85000Y69000D02*
X90500D01*
X157500Y78500D02*
Y92250D01*
X154000Y75000D02*
X157500Y78500D01*
X154000Y74000D02*
Y75000D01*
X122500Y69000D02*
X129657D01*
X152500Y82500D02*
Y92250D01*
X149000Y79000D02*
X152500Y82500D01*
X145000Y79000D02*
X149000D01*
X162500Y74015D02*
Y92250D01*
X156485Y68000D02*
X162500Y74015D01*
X151515Y68000D02*
X156485D01*
X149515Y70000D02*
X151515Y68000D01*
X142500Y70000D02*
X149515D01*
X152500Y92250D02*
Y94750D01*
X101000Y88500D02*
X122500D01*
X100200Y96200D02*
X101000Y97000D01*
X132500Y83157D02*
Y92250D01*
X127343Y78000D02*
X132500Y83157D01*
X112000Y78000D02*
X127343D01*
X137500Y82500D02*
Y92250D01*
X129000Y74000D02*
X137500Y82500D01*
X116500Y74000D02*
X129000D01*
X139657Y79000D02*
X145000D01*
X129657Y69000D02*
X139657Y79000D01*
X106500Y72500D02*
X112000Y78000D01*
X114500Y72000D02*
X116500Y74000D01*
X106500Y69000D02*
Y72500D01*
X114500Y69000D02*
Y72000D01*
X101000Y88500D02*
Y95000D01*
Y88000D02*
Y88500D01*
X127500Y92250D02*
Y94750D01*
X132500Y92250D02*
Y94750D01*
X137500Y92250D02*
Y94750D01*
X202000Y158000D02*
X210000Y166000D01*
X202000Y154490D02*
Y158000D01*
X195010Y147500D02*
X202000Y154490D01*
X210000Y158000D02*
X216000D01*
X206000Y154000D02*
X210000Y158000D01*
X206000Y141000D02*
Y154000D01*
X185750Y117000D02*
X208000D01*
X229000Y131000D02*
X231000Y129000D01*
Y123000D02*
Y129000D01*
X187750Y107500D02*
X200500D01*
X185250D02*
X187750D01*
X185250Y112500D02*
X201157D01*
X202657Y111000D01*
X215000D01*
X203000Y105000D02*
X216000D01*
X200500Y107500D02*
X203000Y105000D01*
X224000Y107000D02*
X231000D01*
X221000Y110000D02*
X224000Y107000D01*
X221000Y110000D02*
Y113485D01*
X210985Y123500D02*
X221000Y113485D01*
X202500Y123500D02*
X210985D01*
X198500Y142500D02*
X200000Y144000D01*
X187750Y142500D02*
X198500D01*
X202500Y137500D02*
X206000Y141000D01*
X187750Y137500D02*
X202500D01*
X206657Y132500D02*
X210000Y135843D01*
X187750Y132500D02*
X206657D01*
X201500Y122500D02*
X202500Y123500D01*
X207314Y127500D02*
X216000Y136186D01*
X187750Y127500D02*
X207314D01*
X216000Y136186D02*
Y142000D01*
X187750Y122500D02*
X201500D01*
X210000Y166000D02*
X216000D01*
X187750Y147500D02*
X195010D01*
X210000Y135843D02*
Y149000D01*
X211000Y150000D01*
X216000D01*
X185250Y117500D02*
X185750Y117000D01*
X221000Y119142D02*
X225142Y115000D01*
X229000D01*
X221000Y119142D02*
Y128000D01*
X185250Y122500D02*
X187750D01*
X248000Y127500D02*
Y132000D01*
Y127500D02*
X253000Y122500D01*
X216000Y91000D02*
X229000D01*
X197000Y75000D02*
Y85000D01*
X188000Y94000D02*
X197000Y85000D01*
X188000Y94000D02*
Y102250D01*
X187750Y102500D02*
X188000Y102250D01*
X185250Y102500D02*
X187750D01*
X185250Y137500D02*
X187750D01*
X185250Y132500D02*
X187750D01*
X158000Y196000D02*
Y200000D01*
X157000Y201000D02*
X158000Y200000D01*
X151000Y201000D02*
X157000D01*
X161485Y207000D02*
X166000Y202485D01*
X148515Y207000D02*
X161485D01*
X165000Y194000D02*
Y196000D01*
X146515Y205000D02*
X148515Y207000D01*
X137000Y205000D02*
X146515D01*
X182000Y202000D02*
X182000Y202000D01*
Y196000D02*
Y202000D01*
X166000Y196000D02*
Y202485D01*
X174000Y196000D02*
Y202000D01*
X132515Y182000D02*
X137500Y177015D01*
X142500Y167750D02*
Y180500D01*
X142000Y181000D02*
X142500Y180500D01*
X137500Y167750D02*
Y177015D01*
X127500Y167750D02*
Y177500D01*
X122000Y183000D02*
X127500Y177500D01*
X122000Y183000D02*
Y192000D01*
X121000Y193000D02*
X122000Y192000D01*
X114000Y193000D02*
X121000D01*
X99250Y190000D02*
X101500Y187750D01*
Y175757D02*
Y187750D01*
X96000Y190000D02*
X99250D01*
X162500Y92250D02*
Y94750D01*
X122500Y92250D02*
Y94750D01*
Y88500D02*
Y92250D01*
X112250Y102500D02*
X114750D01*
X147500Y176015D02*
X153000Y181515D01*
Y185000D01*
X154000Y186000D01*
X158000D01*
X155392Y178250D02*
X163750D01*
X152500Y175358D02*
X155392Y178250D01*
X166000Y180500D02*
Y183000D01*
X163750Y178250D02*
X166000Y180500D01*
X152500Y165250D02*
Y167750D01*
Y175358D01*
X147500Y165250D02*
Y167750D01*
Y176015D01*
X112250Y112500D02*
X114750D01*
X157500Y92250D02*
Y94750D01*
X101000Y151490D02*
X104990Y147500D01*
X101000Y151490D02*
Y175257D01*
X104990Y147500D02*
X112250D01*
X96000Y150000D02*
Y167000D01*
Y150000D02*
X103500Y142500D01*
X112250Y137500D02*
X114750D01*
X102843D02*
X112250D01*
X80000Y143743D02*
X85287D01*
X88000Y146686D02*
Y151000D01*
Y146686D02*
X102186Y132500D01*
X92000Y148343D02*
Y152657D01*
X85287Y143743D02*
X101530Y127500D01*
X114750D01*
X102186Y132500D02*
X114750D01*
X92000Y152657D02*
Y159000D01*
X92000Y152657D02*
X92000Y152657D01*
X92000Y148343D02*
X102843Y137500D01*
X112250Y142500D02*
X114750D01*
X103500D02*
X112250D01*
Y147500D02*
X114750D01*
X101000Y175257D02*
X101500Y175757D01*
X224000Y69000D02*
X231598Y61402D01*
X203000Y69000D02*
X224000D01*
X197000Y75000D02*
X203000Y69000D01*
X224657Y74000D02*
X241000Y57657D01*
X205000Y74000D02*
X224657D01*
X203000Y76000D02*
X205000Y74000D01*
X221314Y83000D02*
X245000Y59314D01*
X210000Y83000D02*
X221314D01*
X200000Y65000D02*
X206598Y58402D01*
X183000Y65000D02*
X200000D01*
X177500Y70500D02*
X183000Y65000D01*
X177500Y70500D02*
Y94750D01*
X181598Y49200D02*
Y60402D01*
X172500Y69500D02*
X181598Y60402D01*
X172500Y69500D02*
Y94750D01*
X259000Y154000D02*
X266000D01*
X269000Y144000D02*
Y153002D01*
X294000Y90500D02*
X297750Y86750D01*
X291000Y93500D02*
X294000Y90500D01*
X91000Y88000D02*
X91000Y88000D01*
X84000Y88000D02*
X91000D01*
X16000Y24000D02*
X16002Y24002D01*
X24000D01*
X134000Y46000D02*
X137200Y49200D01*
X142598D01*
X142500Y60000D02*
X149000D01*
X142500D02*
X142598Y59902D01*
Y49200D02*
Y59902D01*
X440000Y134750D02*
Y144000D01*
X425000Y134750D02*
Y144000D01*
X440000Y95000D02*
Y104250D01*
X425000Y95000D02*
Y104250D01*
X259000Y78000D02*
X269500D01*
X252000Y67000D02*
Y86000D01*
Y67000D02*
X255000Y64000D01*
X252000Y86000D02*
X255000Y89000D01*
X321000Y84000D02*
X321000Y84000D01*
Y77000D02*
Y84000D01*
X401000Y132000D02*
X401000Y132000D01*
X401000Y132000D02*
Y139000D01*
X375000Y112000D02*
X375000Y112000D01*
Y105000D02*
Y112000D01*
X349000Y132000D02*
X349000Y132000D01*
X349000Y132000D02*
Y139000D01*
X266000Y154000D02*
X266000Y154000D01*
X226000Y150000D02*
Y158000D01*
Y142000D02*
Y150000D01*
Y142000D02*
X226000Y142000D01*
X233000D01*
X237000Y158000D02*
X237000Y158000D01*
Y151000D02*
Y158000D01*
X226000Y182000D02*
X226000Y182000D01*
X226000Y182000D02*
Y189000D01*
X80000Y113000D02*
X80000Y113000D01*
Y106000D02*
Y113000D01*
X91000Y96000D02*
X91000Y96000D01*
X84000Y96000D02*
X91000D01*
X218000Y49602D02*
Y58000D01*
X217598Y49200D02*
X218000Y49602D01*
X193000D02*
Y58000D01*
X192598Y49200D02*
X193000Y49602D01*
X51000Y105000D02*
X69000Y87000D01*
X51000Y105000D02*
Y112000D01*
X167500Y72500D02*
Y94750D01*
X156598Y61598D02*
X167500Y72500D01*
X156598Y49200D02*
Y61598D01*
X322000Y161000D02*
X322500D01*
X313000D02*
X322000D01*
X304500D02*
X313000D01*
X322000D02*
Y168000D01*
X313000Y161000D02*
Y168000D01*
X304000Y161000D02*
Y168000D01*
X293000Y174000D02*
X293000Y174000D01*
Y165998D02*
Y174000D01*
X267002Y155000D02*
X269000Y153002D01*
X269500Y144000D02*
X274500Y139000D01*
X269000Y144000D02*
X269500D01*
X174000Y202000D02*
Y203000D01*
Y202000D02*
X174000Y202000D01*
X67500Y122500D02*
X114750D01*
X51250Y57002D02*
X52250Y58002D01*
X63250Y57502D02*
X63750Y57002D01*
X63000Y56252D02*
X63750Y57002D01*
X414750Y121000D02*
X415750Y120000D01*
X224000Y166000D02*
X237000D01*
X247000D02*
Y174000D01*
Y165000D02*
Y166000D01*
X233625Y176625D02*
X239500D01*
X233000Y174000D02*
X235625Y176625D01*
X226000Y174000D02*
X233000D01*
X239500Y176625D02*
X244375D01*
X247000Y174000D01*
X91000Y102000D02*
X92000Y103000D01*
X222000Y99000D02*
X229000D01*
X216000Y105000D02*
X222000Y99000D01*
X239000Y123000D02*
X239000Y123000D01*
X245500D01*
X239000Y115000D02*
X246500D01*
X239000Y107000D02*
X239500Y107500D01*
X250500Y101000D02*
X263000D01*
X239000Y99000D02*
X248500D01*
X250500Y101000D01*
X292000Y130000D02*
X303000D01*
X291500Y129500D02*
X292000Y130000D01*
X320000Y103000D02*
X321000Y104000D01*
Y103000D02*
Y104000D01*
Y95000D02*
Y103000D01*
X306000Y113000D02*
X312000D01*
X301500Y117500D02*
X306000Y113000D01*
X295000Y117500D02*
X301500D01*
X298657Y112500D02*
X308157Y103000D01*
X295000Y112500D02*
X298657D01*
X298000Y107500D02*
X304000Y101500D01*
X292750Y107500D02*
X298000D01*
X255000Y64000D02*
X269500D01*
X255000Y89000D02*
X267500D01*
X308157Y103000D02*
X312000D01*
X98500Y50500D02*
Y59000D01*
X122500Y69000D02*
X122500Y69000D01*
X90500Y59000D02*
X98500D01*
X91000Y88000D02*
Y96000D01*
Y102000D01*
X114500Y44500D02*
Y59000D01*
X106500Y45500D02*
Y59000D01*
X231598Y49200D02*
X231600Y49198D01*
Y39200D02*
Y49198D01*
X231598Y49200D02*
Y61402D01*
X206598Y49200D02*
Y58402D01*
X167598Y49200D02*
Y57598D01*
X206598Y39202D02*
Y49200D01*
X181598Y39202D02*
X181600Y39200D01*
X181598Y39202D02*
Y49200D01*
X156598Y39202D02*
X156600Y39200D01*
X156598Y39202D02*
Y49200D01*
X52000Y47000D02*
Y57000D01*
X63000Y47000D02*
Y57000D01*
X52250Y58002D02*
Y71000D01*
X63250Y57502D02*
Y71000D01*
X245500Y123000D02*
X251000Y117500D01*
X249000Y112500D02*
X261250D01*
X239500Y107500D02*
X261250D01*
X251000Y117500D02*
X261250D01*
X274500Y99250D02*
Y100000D01*
X269500Y99250D02*
Y100000D01*
X274500Y130750D02*
Y139000D01*
X295000Y122500D02*
X312000D01*
X312500Y122000D01*
Y129500D01*
X331000Y104000D02*
Y113000D01*
X312000D02*
X321000D01*
X312000Y113000D02*
X312000Y113000D01*
X321000Y95000D02*
X321000Y95000D01*
X312000Y103000D02*
X320000D01*
X283000Y89000D02*
X286500Y85500D01*
Y78000D02*
Y85500D01*
X122500Y165250D02*
X122550Y165300D01*
X267500Y89000D02*
X269500Y91000D01*
X274500Y91000D02*
X276500Y89000D01*
X283000D01*
X261250Y107500D02*
X262000D01*
X261250Y112500D02*
X262000D01*
X269500Y91000D02*
Y99250D01*
X261250Y117500D02*
X262000D01*
X274500Y91000D02*
Y99250D01*
X172000Y152000D02*
X172500Y152500D01*
X114500Y107250D02*
X114750Y107500D01*
X246500Y115000D02*
X249000Y112500D01*
X253000Y122500D02*
X261250D01*
X274500Y117500D02*
X277000Y115000D01*
X92000Y103000D02*
X98132D01*
X101000Y97000D02*
Y100000D01*
X94632Y109000D02*
X95000Y109368D01*
X203000Y76000D02*
Y88000D01*
X139000Y119000D02*
X150000Y130000D01*
X127500Y152500D02*
X128000Y152000D01*
X150000Y130000D02*
X161000Y141000D01*
X139000D02*
X150000Y130000D01*
X95000Y109368D02*
Y110000D01*
X128000Y108000D02*
X139000Y119000D01*
X80000Y170000D02*
X80000Y170000D01*
X93000D01*
X96000Y167000D01*
X67100Y192900D02*
Y200575D01*
Y192900D02*
X70000Y190000D01*
X80000D01*
X88000D01*
X88000Y190000D01*
X63000Y47000D02*
X66000Y44000D01*
X105000D01*
X106500Y45500D01*
X52000Y47000D02*
X59000Y40000D01*
X110000D01*
X114500Y44500D01*
X198200Y20200D02*
X207200D01*
X241000Y37700D02*
Y57657D01*
X223600Y20200D02*
X236200D01*
X245000Y29000D01*
Y59314D01*
X207200Y20200D02*
X219000Y32000D01*
X235300D01*
X241000Y37700D01*
X183200Y20200D02*
X195000Y32000D01*
X172800Y20200D02*
X183200D01*
X195000Y32000D02*
X210000D01*
X217200Y39200D01*
X221600D01*
X147400Y20200D02*
X157200D01*
X169000Y32000D01*
X185000D01*
X192200Y39200D01*
X196600D01*
X122000Y20200D02*
X132200D01*
X144000Y32000D01*
X160000D01*
X167200Y39200D01*
X171600D01*
X96600Y20200D02*
X106200D01*
X118000Y32000D01*
X135000D01*
X142200Y39200D01*
X146600D01*
X42000Y57000D02*
X42000Y57000D01*
X42000Y49000D02*
Y57000D01*
X73000Y57000D02*
X81000D01*
X46000Y136000D02*
X53000Y129000D01*
X90000D01*
X56000Y136000D02*
X84000D01*
X80000Y161000D02*
X90000D01*
X92000Y159000D01*
X42000Y136000D02*
X46000D01*
X80000Y152000D02*
X87000D01*
X88000Y151000D01*
X62000Y117000D02*
X67500Y122500D01*
X62000Y104000D02*
Y117000D01*
X239000Y71000D02*
Y91000D01*
X286500Y64000D02*
X297750D01*
Y86750D01*
X304000Y55000D02*
Y101500D01*
X239000Y71000D02*
X259000Y51000D01*
X300000D01*
X304000Y55000D01*
D12*
X150000Y130000D02*
D03*
D13*
X112250Y102500D02*
D03*
Y107500D02*
D03*
Y112500D02*
D03*
Y117500D02*
D03*
Y122500D02*
D03*
Y127500D02*
D03*
Y132500D02*
D03*
Y137500D02*
D03*
Y142500D02*
D03*
Y147500D02*
D03*
Y152500D02*
D03*
Y157500D02*
D03*
X187750D02*
D03*
Y152500D02*
D03*
Y147500D02*
D03*
Y142500D02*
D03*
Y137500D02*
D03*
Y132500D02*
D03*
Y127500D02*
D03*
Y122500D02*
D03*
Y117500D02*
D03*
Y112500D02*
D03*
Y107500D02*
D03*
Y102500D02*
D03*
D14*
X122500Y167750D02*
D03*
X127500D02*
D03*
X132500D02*
D03*
X137500D02*
D03*
X142500D02*
D03*
X147500D02*
D03*
X152500D02*
D03*
X157500D02*
D03*
X162500D02*
D03*
X167500D02*
D03*
X172500D02*
D03*
X177500D02*
D03*
Y92250D02*
D03*
X172500D02*
D03*
X167500D02*
D03*
X162500D02*
D03*
X157500D02*
D03*
X152500D02*
D03*
X147500D02*
D03*
X142500D02*
D03*
X137500D02*
D03*
X132500D02*
D03*
X127500D02*
D03*
X122500D02*
D03*
D15*
X45800Y235900D02*
D03*
X223600D02*
D03*
X198200D02*
D03*
X172800D02*
D03*
X147400D02*
D03*
X122000D02*
D03*
X96600D02*
D03*
X71200D02*
D03*
Y7700D02*
D03*
X96600D02*
D03*
X122000D02*
D03*
X147400D02*
D03*
X172800D02*
D03*
X198200D02*
D03*
X223600D02*
D03*
X45800D02*
D03*
D16*
X7900Y198000D02*
D03*
Y45600D02*
D03*
Y71000D02*
D03*
Y96400D02*
D03*
Y121800D02*
D03*
Y147200D02*
D03*
Y172600D02*
D03*
D17*
X122500Y58000D02*
D03*
Y68000D02*
D03*
X401000Y132000D02*
D03*
Y122000D02*
D03*
X375000Y112000D02*
D03*
Y122000D02*
D03*
X349000Y132000D02*
D03*
Y122000D02*
D03*
X312000Y131000D02*
D03*
Y141000D02*
D03*
X321000Y84000D02*
D03*
Y94000D02*
D03*
X312000Y103000D02*
D03*
Y113000D02*
D03*
X114000Y193000D02*
D03*
Y183000D02*
D03*
X142500Y60000D02*
D03*
Y70000D02*
D03*
X304000Y161000D02*
D03*
Y151000D02*
D03*
X313000Y161000D02*
D03*
Y151000D02*
D03*
X322000Y161000D02*
D03*
Y151000D02*
D03*
X80000Y190000D02*
D03*
Y180000D02*
D03*
X88000Y180000D02*
D03*
Y190000D02*
D03*
X190000Y186000D02*
D03*
Y196000D02*
D03*
X96000Y190000D02*
D03*
Y180000D02*
D03*
X174000Y196000D02*
D03*
Y186000D02*
D03*
X182000Y196000D02*
D03*
Y186000D02*
D03*
X166000Y196000D02*
D03*
Y186000D02*
D03*
X158000Y196000D02*
D03*
Y186000D02*
D03*
X98500Y68000D02*
D03*
Y58000D02*
D03*
X80000Y113000D02*
D03*
Y123000D02*
D03*
X90500Y68000D02*
D03*
Y58000D02*
D03*
X114500Y68000D02*
D03*
Y58000D02*
D03*
X106500Y58000D02*
D03*
Y68000D02*
D03*
D18*
X262500Y100500D02*
D03*
X291500Y129500D02*
D03*
D19*
X262500D02*
D03*
X291500Y100500D02*
D03*
D20*
X277000Y115000D02*
D03*
D21*
X284500Y99250D02*
D03*
X279500D02*
D03*
X274500D02*
D03*
X269500D02*
D03*
Y130750D02*
D03*
X274500D02*
D03*
X279500D02*
D03*
X284500D02*
D03*
D22*
X261250Y107500D02*
D03*
Y112500D02*
D03*
Y117500D02*
D03*
Y122500D02*
D03*
X292750D02*
D03*
Y117500D02*
D03*
Y112500D02*
D03*
Y107500D02*
D03*
D23*
X281002Y155000D02*
D03*
X267002D02*
D03*
X142598Y49200D02*
D03*
X156598D02*
D03*
X167598D02*
D03*
X181598D02*
D03*
X192598D02*
D03*
X206598D02*
D03*
X217598D02*
D03*
X231598D02*
D03*
D24*
X249000Y197375D02*
D03*
X57600Y179825D02*
D03*
D25*
X258500Y176625D02*
D03*
X239500D02*
D03*
X48100Y200575D02*
D03*
X67100D02*
D03*
D26*
X24000Y24002D02*
D03*
Y10002D02*
D03*
X293000Y151998D02*
D03*
Y165998D02*
D03*
D27*
X393000Y122000D02*
D03*
X383000D02*
D03*
X367000D02*
D03*
X357000D02*
D03*
X322500D02*
D03*
X312500D02*
D03*
X341000D02*
D03*
X331000D02*
D03*
Y103000D02*
D03*
X321000D02*
D03*
X331000Y113000D02*
D03*
X321000D02*
D03*
X237000Y158000D02*
D03*
X247000D02*
D03*
X226000Y182000D02*
D03*
X216000D02*
D03*
X91000Y88000D02*
D03*
X101000D02*
D03*
X91000Y96000D02*
D03*
X101000D02*
D03*
X42000Y57000D02*
D03*
X52000D02*
D03*
X73000Y57000D02*
D03*
X63000D02*
D03*
X226000Y174000D02*
D03*
X216000D02*
D03*
X237000Y166000D02*
D03*
X247000D02*
D03*
X146600Y39200D02*
D03*
X156600D02*
D03*
X216000Y142000D02*
D03*
X226000D02*
D03*
X171600Y39200D02*
D03*
X181600D02*
D03*
X216000Y150000D02*
D03*
X226000D02*
D03*
X196600Y39200D02*
D03*
X206600D02*
D03*
X216000Y158000D02*
D03*
X226000D02*
D03*
X221600Y39200D02*
D03*
X231600D02*
D03*
X241000Y99000D02*
D03*
X231000D02*
D03*
X241000Y123000D02*
D03*
X231000D02*
D03*
X241000Y115000D02*
D03*
X231000D02*
D03*
X241000Y107000D02*
D03*
X231000D02*
D03*
X216000Y166000D02*
D03*
X226000D02*
D03*
X231000Y91000D02*
D03*
X241000D02*
D03*
D28*
X286500Y64000D02*
D03*
X269500D02*
D03*
Y78000D02*
D03*
X286500D02*
D03*
D29*
X276000Y195500D02*
D03*
Y168500D02*
D03*
D30*
X415750Y120000D02*
D03*
D31*
X431000Y105250D02*
D03*
Y134750D02*
D03*
D56*
X122500Y59000D02*
X130000D01*
X137500Y70000D02*
X142500D01*
X130000Y62500D02*
X137500Y70000D01*
X101000Y83000D02*
Y88000D01*
X112812Y211750D02*
X204188D01*
X109000Y183000D02*
X114000D01*
X107000Y185000D02*
X109000Y183000D01*
X107000Y185000D02*
Y209937D01*
X111000D01*
X62962D02*
X106000D01*
X57600Y204575D02*
X62962Y209937D01*
X204188Y211750D02*
X206000Y209937D01*
X111000D02*
X112812Y211750D01*
X130000Y52000D02*
Y59000D01*
X111000Y33000D02*
X130000Y52000D01*
Y59000D02*
Y62500D01*
X98000Y80000D02*
X101000Y83000D01*
X35000Y80000D02*
X98000D01*
X35000Y71000D02*
Y80000D01*
X206000Y209937D02*
X245063D01*
X206000Y193000D02*
Y209937D01*
X245063D02*
X249000Y206000D01*
Y197375D02*
Y206000D01*
X20400Y71000D02*
X35000D01*
X57600Y179825D02*
Y204575D01*
X206000Y174000D02*
X214000D01*
X206000Y169000D02*
Y174000D01*
X206000Y182000D02*
X214000D01*
X206000Y174000D02*
Y182000D01*
X206000Y174000D02*
X206000Y174000D01*
X190000Y196000D02*
X206000D01*
X206000Y193000D02*
X206000Y193000D01*
Y182000D02*
Y193000D01*
X45000Y21000D02*
X45800Y20200D01*
X35000Y42000D02*
Y71000D01*
X45000Y21000D02*
Y32000D01*
X35000Y42000D02*
X44000Y33000D01*
X45000Y32000D01*
X44000Y33000D02*
X111000D01*
X35000Y141000D02*
X57600Y163600D01*
Y179825D01*
X35000Y81000D02*
Y141000D01*
D57*
X57600Y179825D02*
X80000D01*
X26000Y12002D02*
X28002Y10000D01*
X43500D02*
X45800Y7700D01*
X28002Y10000D02*
X43500D01*
X48100Y200575D02*
Y209900D01*
X45800Y212200D02*
Y223400D01*
X276000Y168500D02*
X281002Y163498D01*
Y155000D02*
Y163498D01*
X45800Y212200D02*
X48100Y209900D01*
X88000Y180000D02*
X96000D01*
X96000Y180000D01*
X226000Y158000D02*
X237000D01*
D58*
X127500Y83500D02*
Y92250D01*
X126000Y82000D02*
X127500Y83500D01*
X109000Y82000D02*
X126000D01*
X98500Y68000D02*
Y71500D01*
X109000Y82000D01*
X206598Y39202D02*
X206600Y39200D01*
D59*
X408000Y120000D02*
X415750D01*
X406000Y122000D02*
X408000Y120000D01*
X401000Y122000D02*
X406000D01*
X322500D02*
X331000D01*
Y113000D02*
X338000D01*
X341000Y116000D01*
Y122000D01*
X357000D01*
X367000D02*
X375000D01*
X375000Y122000D01*
X383000D01*
X383000Y122000D01*
X393000D02*
X401000D01*
D60*
X45800Y243400D02*
D03*
X223600D02*
D03*
Y223400D02*
D03*
X198200Y243400D02*
D03*
Y223400D02*
D03*
X172800Y243400D02*
D03*
Y223400D02*
D03*
X147400Y243400D02*
D03*
Y223400D02*
D03*
X122000Y243400D02*
D03*
Y223400D02*
D03*
X96600Y243400D02*
D03*
Y223400D02*
D03*
X71200Y243400D02*
D03*
Y223400D02*
D03*
X400Y198000D02*
D03*
Y45600D02*
D03*
X20400D02*
D03*
X400Y71000D02*
D03*
X20400D02*
D03*
X400Y96400D02*
D03*
X20400D02*
D03*
X400Y121800D02*
D03*
X20400D02*
D03*
X400Y147200D02*
D03*
X20400D02*
D03*
X400Y172600D02*
D03*
X20400D02*
D03*
X71200Y20200D02*
D03*
Y200D02*
D03*
X96600Y20200D02*
D03*
Y200D02*
D03*
X122000Y20200D02*
D03*
Y200D02*
D03*
X147400Y20200D02*
D03*
Y200D02*
D03*
X172800Y20200D02*
D03*
Y200D02*
D03*
X198200Y20200D02*
D03*
Y200D02*
D03*
X223600Y20200D02*
D03*
Y200D02*
D03*
X45800D02*
D03*
D61*
Y223400D02*
D03*
Y20200D02*
D03*
D62*
X20400Y198000D02*
D03*
D63*
X63250Y71000D02*
D03*
X52250D02*
D03*
D64*
X154000Y74000D02*
D03*
X145000Y79000D02*
D03*
X200000Y144000D02*
D03*
X208000Y117000D02*
D03*
X215000Y111000D02*
D03*
X221000Y128000D02*
D03*
X229000Y131000D02*
D03*
X248000Y132000D02*
D03*
X216000Y91000D02*
D03*
X151000Y201000D02*
D03*
X132515Y182000D02*
D03*
X142000Y181000D02*
D03*
X122000Y183000D02*
D03*
X137000Y205000D02*
D03*
X172000Y152000D02*
D03*
Y141000D02*
D03*
Y130000D02*
D03*
Y119000D02*
D03*
Y108000D02*
D03*
X161000Y152000D02*
D03*
Y141000D02*
D03*
Y130000D02*
D03*
Y119000D02*
D03*
Y108000D02*
D03*
X150000Y152000D02*
D03*
Y141000D02*
D03*
Y130000D02*
D03*
Y119000D02*
D03*
Y108000D02*
D03*
X139000Y152000D02*
D03*
Y141000D02*
D03*
Y130000D02*
D03*
Y119000D02*
D03*
Y108000D02*
D03*
X128000Y152000D02*
D03*
Y141000D02*
D03*
Y130000D02*
D03*
Y119000D02*
D03*
Y108000D02*
D03*
X68000Y167000D02*
D03*
X198000Y173000D02*
D03*
X190000Y83000D02*
D03*
X84000Y88000D02*
D03*
X16000Y24000D02*
D03*
X134000Y46000D02*
D03*
X149000Y60000D02*
D03*
X440000Y144000D02*
D03*
X425000D02*
D03*
X440000Y95000D02*
D03*
X425000D02*
D03*
X297750Y64000D02*
D03*
X259000Y78000D02*
D03*
X294000Y90500D02*
D03*
X321000Y77000D02*
D03*
X401000Y139000D02*
D03*
X375000Y105000D02*
D03*
X349000Y139000D02*
D03*
X259000Y154000D02*
D03*
X233000Y142000D02*
D03*
X237000Y151000D02*
D03*
X226000Y189000D02*
D03*
X80000Y106000D02*
D03*
X84000Y96000D02*
D03*
X85000Y69000D02*
D03*
X218000Y58000D02*
D03*
X193000D02*
D03*
X51000Y112000D02*
D03*
X69000Y87000D02*
D03*
X167598Y57598D02*
D03*
X322000Y168000D02*
D03*
X313000D02*
D03*
X304000Y168000D02*
D03*
X293000Y174000D02*
D03*
X269000Y144000D02*
D03*
X174000Y202000D02*
D03*
X440702Y221552D02*
D03*
X450702Y201552D02*
D03*
X440702Y181552D02*
D03*
X450702Y161552D02*
D03*
Y121552D02*
D03*
Y81552D02*
D03*
X440702Y61552D02*
D03*
X450702Y41552D02*
D03*
X440702Y21552D02*
D03*
X420702Y221552D02*
D03*
X430702Y201552D02*
D03*
X420702Y181552D02*
D03*
X430702Y161552D02*
D03*
Y81552D02*
D03*
X420702Y61552D02*
D03*
X430702Y41552D02*
D03*
X420702Y21552D02*
D03*
X400702Y221552D02*
D03*
X410702Y201552D02*
D03*
X400702Y181552D02*
D03*
X410702Y161552D02*
D03*
X400702Y101552D02*
D03*
X410702Y81552D02*
D03*
X400702Y61552D02*
D03*
X410702Y41552D02*
D03*
X400702Y21552D02*
D03*
X380702Y221552D02*
D03*
X390702Y201552D02*
D03*
X380702Y181552D02*
D03*
X390702Y161552D02*
D03*
X380702Y141552D02*
D03*
X390702Y81552D02*
D03*
X380702Y61552D02*
D03*
X390702Y41552D02*
D03*
X380702Y21552D02*
D03*
X360702Y221552D02*
D03*
X370702Y201552D02*
D03*
X360702Y181552D02*
D03*
X370702Y161552D02*
D03*
X360702Y141552D02*
D03*
Y101552D02*
D03*
X370702Y81552D02*
D03*
X360702Y61552D02*
D03*
X370702Y41552D02*
D03*
X360702Y21552D02*
D03*
X340702Y221552D02*
D03*
X350702Y201552D02*
D03*
X340702Y181552D02*
D03*
X350702Y161552D02*
D03*
X340702Y141552D02*
D03*
Y101552D02*
D03*
X350702Y81552D02*
D03*
X340702Y61552D02*
D03*
X350702Y41552D02*
D03*
X340702Y21552D02*
D03*
X320702Y221552D02*
D03*
X330702Y201552D02*
D03*
X320702Y181552D02*
D03*
X330702Y81552D02*
D03*
X320702Y61552D02*
D03*
X330702Y41552D02*
D03*
X320702Y21552D02*
D03*
X300702Y221552D02*
D03*
X310702Y201552D02*
D03*
X300702Y181552D02*
D03*
X310702Y41552D02*
D03*
X300702Y21552D02*
D03*
X280702Y221552D02*
D03*
X290702Y41552D02*
D03*
X280702Y21552D02*
D03*
X260702Y221552D02*
D03*
Y141552D02*
D03*
X270702Y41552D02*
D03*
X260702Y21552D02*
D03*
X240702Y221552D02*
D03*
Y141552D02*
D03*
X230702Y201552D02*
D03*
X40702Y181552D02*
D03*
X50702Y121552D02*
D03*
X20702Y221552D02*
D03*
X30702Y161552D02*
D03*
X303000Y130000D02*
D03*
X98500Y50500D02*
D03*
X272500Y119500D02*
D03*
X281500D02*
D03*
X272500Y110500D02*
D03*
X281500D02*
D03*
X182000Y202000D02*
D03*
X203000Y88000D02*
D03*
X210000Y83000D02*
D03*
X95000Y110000D02*
D03*
X89000Y116000D02*
D03*
X56000Y136000D02*
D03*
X80000Y143743D02*
D03*
X80000Y152000D02*
D03*
X80000Y161000D02*
D03*
X80000Y170000D02*
D03*
X42000Y49000D02*
D03*
X81000Y57000D02*
D03*
X90000Y129000D02*
D03*
X84000Y136000D02*
D03*
X42000D02*
D03*
X37000Y205000D02*
D03*
X62000Y104000D02*
D03*
M02*
