G04 Layer_Color=128*
%FSLAX44Y44*%
%MOMM*%
G71*
G01*
G75*
%ADD66C,0.0508*%
D66*
X92100Y20800D02*
X101100D01*
X96600Y16300D02*
Y25300D01*
X117500Y20800D02*
X126500D01*
X122000Y16300D02*
Y25300D01*
X117500Y800D02*
X126500D01*
X122000Y-3700D02*
Y5300D01*
X142900Y20800D02*
X151900D01*
X147400Y16300D02*
Y25300D01*
X142900Y800D02*
X151900D01*
X147400Y-3700D02*
Y5300D01*
X168300Y20800D02*
X177300D01*
X172800Y16300D02*
Y25300D01*
X168300Y800D02*
X177300D01*
X172800Y-3700D02*
Y5300D01*
X193700Y20800D02*
X202700D01*
X198200Y16300D02*
Y25300D01*
X193700Y800D02*
X202700D01*
X198200Y-3700D02*
Y5300D01*
X219100Y20800D02*
X228100D01*
X223600Y16300D02*
Y25300D01*
X219100Y800D02*
X228100D01*
X223600Y-3700D02*
Y5300D01*
X244500Y20800D02*
X253500D01*
X249000Y16300D02*
Y25300D01*
X244500Y800D02*
X253500D01*
X249000Y-3700D02*
Y5300D01*
X269900Y20800D02*
X278900D01*
X274400Y16300D02*
Y25300D01*
X269900Y800D02*
X278900D01*
X274400Y-3700D02*
Y5300D01*
X92100Y800D02*
X101100D01*
X96600Y-3700D02*
Y5300D01*
X92100Y274800D02*
X101100D01*
X96600Y270300D02*
Y279300D01*
X117500Y274800D02*
X126500D01*
X122000Y270300D02*
Y279300D01*
X117500Y294800D02*
X126500D01*
X122000Y290300D02*
Y299300D01*
X142900Y274800D02*
X151900D01*
X147400Y270300D02*
Y279300D01*
X142900Y294800D02*
X151900D01*
X147400Y290300D02*
Y299300D01*
X168300Y274800D02*
X177300D01*
X172800Y270300D02*
Y279300D01*
X168300Y294800D02*
X177300D01*
X172800Y290300D02*
Y299300D01*
X193700Y274800D02*
X202700D01*
X198200Y270300D02*
Y279300D01*
X193700Y294800D02*
X202700D01*
X198200Y290300D02*
Y299300D01*
X219100Y274800D02*
X228100D01*
X223600Y270300D02*
Y279300D01*
X219100Y294800D02*
X228100D01*
X223600Y290300D02*
Y299300D01*
X244500Y274800D02*
X253500D01*
X249000Y270300D02*
Y279300D01*
X244500Y294800D02*
X253500D01*
X249000Y290300D02*
Y299300D01*
X269900Y274800D02*
X278900D01*
X274400Y270300D02*
Y279300D01*
X269900Y294800D02*
X278900D01*
X274400Y290300D02*
Y299300D01*
X92100Y294800D02*
X101100D01*
X96600Y290300D02*
Y299300D01*
X-4100Y224000D02*
X4900D01*
X400Y219500D02*
Y228500D01*
X-4100Y71600D02*
X4900D01*
X400Y67100D02*
Y76100D01*
X15900Y71600D02*
X24900D01*
X20400Y67100D02*
Y76100D01*
X-4100Y97000D02*
X4900D01*
X400Y92500D02*
Y101500D01*
X15900Y97000D02*
X24900D01*
X20400Y92500D02*
Y101500D01*
X-4100Y122400D02*
X4900D01*
X400Y117900D02*
Y126900D01*
X15900Y122400D02*
X24900D01*
X20400Y117900D02*
Y126900D01*
X-4100Y147800D02*
X4900D01*
X400Y143300D02*
Y152300D01*
X15900Y147800D02*
X24900D01*
X20400Y143300D02*
Y152300D01*
X-4100Y173200D02*
X4900D01*
X400Y168700D02*
Y177700D01*
X15900Y173200D02*
X24900D01*
X20400Y168700D02*
Y177700D01*
X-4100Y198600D02*
X4900D01*
X400Y194100D02*
Y203100D01*
X15900Y198600D02*
X24900D01*
X20400Y194100D02*
Y203100D01*
X15900Y224000D02*
X24900D01*
X20400Y219500D02*
Y228500D01*
X-681300Y-278450D02*
X-649300D01*
X-665300Y-294450D02*
Y-262450D01*
X60750Y97000D02*
X65750D01*
X63250Y94500D02*
Y99500D01*
X49750Y97000D02*
X54750D01*
X52250Y94500D02*
Y99500D01*
X270500Y157500D02*
X273500D01*
X272000Y156000D02*
Y159000D01*
X279500Y157500D02*
X282500D01*
X281000Y156000D02*
Y159000D01*
X270500Y148500D02*
X273500D01*
X272000Y147000D02*
Y150000D01*
X279500Y148500D02*
X282500D01*
X281000Y147000D02*
Y150000D01*
X171000Y178000D02*
X173000D01*
X172000Y177000D02*
Y179000D01*
X171000Y167000D02*
X173000D01*
X172000Y166000D02*
Y168000D01*
X171000Y156000D02*
X173000D01*
X172000Y155000D02*
Y157000D01*
X171000Y145000D02*
X173000D01*
X172000Y144000D02*
Y146000D01*
X171000Y134000D02*
X173000D01*
X172000Y133000D02*
Y135000D01*
X160000Y178000D02*
X162000D01*
X161000Y177000D02*
Y179000D01*
X160000Y167000D02*
X162000D01*
X161000Y166000D02*
Y168000D01*
X160000Y156000D02*
X162000D01*
X161000Y155000D02*
Y157000D01*
X160000Y145000D02*
X162000D01*
X161000Y144000D02*
Y146000D01*
X160000Y134000D02*
X162000D01*
X161000Y133000D02*
Y135000D01*
X149000Y178000D02*
X151000D01*
X150000Y177000D02*
Y179000D01*
X149000Y167000D02*
X151000D01*
X150000Y166000D02*
Y168000D01*
X149000Y156000D02*
X151000D01*
X150000Y155000D02*
Y157000D01*
X149000Y145000D02*
X151000D01*
X150000Y144000D02*
Y146000D01*
X149000Y134000D02*
X151000D01*
X150000Y133000D02*
Y135000D01*
X138000Y178000D02*
X140000D01*
X139000Y177000D02*
Y179000D01*
X138000Y167000D02*
X140000D01*
X139000Y166000D02*
Y168000D01*
X138000Y156000D02*
X140000D01*
X139000Y155000D02*
Y157000D01*
X138000Y145000D02*
X140000D01*
X139000Y144000D02*
Y146000D01*
X138000Y134000D02*
X140000D01*
X139000Y133000D02*
Y135000D01*
X127000Y178000D02*
X129000D01*
X128000Y177000D02*
Y179000D01*
X127000Y167000D02*
X129000D01*
X128000Y166000D02*
Y168000D01*
X127000Y156000D02*
X129000D01*
X128000Y155000D02*
Y157000D01*
X127000Y145000D02*
X129000D01*
X128000Y144000D02*
Y146000D01*
X127000Y134000D02*
X129000D01*
X128000Y133000D02*
Y135000D01*
X361699Y32549D02*
X364699D01*
X363199Y31049D02*
Y34049D01*
X369199Y17549D02*
X372199D01*
X370699Y16049D02*
Y19049D01*
X376699Y32549D02*
X379699D01*
X378199Y31049D02*
Y34049D01*
X384199Y17549D02*
X387199D01*
X385699Y16049D02*
Y19049D01*
X391699Y32549D02*
X394699D01*
X393199Y31049D02*
Y34049D01*
X399199Y17549D02*
X402199D01*
X400699Y16049D02*
Y19049D01*
X406699Y32549D02*
X409699D01*
X408199Y31049D02*
Y34049D01*
X414199Y17549D02*
X417199D01*
X415699Y16049D02*
Y19049D01*
X421699Y32549D02*
X424699D01*
X423199Y31049D02*
Y34049D01*
X429199Y17549D02*
X432199D01*
X430699Y16049D02*
Y19049D01*
X436699Y32549D02*
X439699D01*
X438199Y31049D02*
Y34049D01*
X444199Y17549D02*
X447199D01*
X445699Y16049D02*
Y19049D01*
X235500Y169000D02*
X238500D01*
X237000Y167500D02*
Y170500D01*
X301500Y118000D02*
X304500D01*
X303000Y116500D02*
Y119500D01*
X249500Y119000D02*
X252500D01*
X251000Y117500D02*
Y120500D01*
X269500Y180000D02*
X272500D01*
X271000Y178500D02*
Y181500D01*
X300000Y167500D02*
X303000D01*
X301500Y166000D02*
Y169000D01*
X291500Y213000D02*
X294500D01*
X293000Y211500D02*
Y214500D01*
X73500Y58000D02*
X76500D01*
X75000Y56500D02*
Y59500D01*
X141500Y110000D02*
X144500D01*
X143000Y108500D02*
Y111500D01*
X219500Y115000D02*
X222500D01*
X221000Y113500D02*
Y116500D01*
X217500Y95000D02*
X220500D01*
X219000Y93500D02*
Y96500D01*
X148500Y88000D02*
X151500D01*
X150000Y86500D02*
Y89500D01*
X47500Y156000D02*
X50500D01*
X49000Y154500D02*
Y157500D01*
X47500Y165000D02*
X50500D01*
X49000Y163500D02*
Y166500D01*
X-616800Y-228450D02*
X-613800D01*
X-615300Y-229950D02*
Y-226950D01*
X148500Y76000D02*
X151500D01*
X150000Y74500D02*
Y77500D01*
X170500Y76000D02*
X173500D01*
X172000Y74500D02*
Y77500D01*
X195500Y76000D02*
X198500D01*
X197000Y74500D02*
Y77500D01*
X220500Y76000D02*
X223500D01*
X222000Y74500D02*
Y77500D01*
X73500Y45000D02*
X76500D01*
X75000Y43500D02*
Y46500D01*
X80500Y80900D02*
X83500D01*
X82000Y79400D02*
Y82400D01*
X104500Y71000D02*
X107500D01*
X106000Y69500D02*
Y72500D01*
X213500Y160000D02*
X216500D01*
X215000Y158500D02*
Y161500D01*
X193500Y170000D02*
X196500D01*
X195000Y168500D02*
Y171500D01*
X228500Y173000D02*
X231500D01*
X230000Y171500D02*
Y174500D01*
X78500Y114000D02*
X81500D01*
X80000Y112500D02*
Y115500D01*
X208500Y214000D02*
X211500D01*
X210000Y212500D02*
Y215500D01*
X109500Y258000D02*
X112500D01*
X111000Y256500D02*
Y259500D01*
X90500Y241000D02*
X93500D01*
X92000Y239500D02*
Y242500D01*
X102500Y253000D02*
X105500D01*
X104000Y251500D02*
Y254500D01*
X75500Y200000D02*
X78500D01*
X77000Y198500D02*
Y201500D01*
X99500Y200000D02*
X102500D01*
X101000Y198500D02*
Y201500D01*
X91500Y200000D02*
X94500D01*
X93000Y198500D02*
Y201500D01*
X83500Y200000D02*
X86500D01*
X85000Y198500D02*
Y201500D01*
X96500Y246999D02*
X99500D01*
X98000Y245499D02*
Y248500D01*
X131500Y227000D02*
X134500D01*
X133000Y225500D02*
Y228500D01*
X139500Y222999D02*
X142500D01*
X141000Y221500D02*
Y224499D01*
X121050Y227450D02*
X124050D01*
X122550Y225950D02*
Y228950D01*
X81500Y188000D02*
X84500D01*
X83000Y186500D02*
Y189500D01*
X74500Y182000D02*
X77500D01*
X76000Y180500D02*
Y183500D01*
X198500Y143500D02*
X201500D01*
X200000Y142000D02*
Y145000D01*
X208500Y152000D02*
X211500D01*
X210000Y150500D02*
Y153500D01*
X205500Y137000D02*
X208500D01*
X207000Y135500D02*
Y138500D01*
X211500Y125000D02*
X214500D01*
X213000Y123500D02*
Y126500D01*
X201500Y114000D02*
X204500D01*
X203000Y112500D02*
Y115500D01*
X209500Y114000D02*
X212500D01*
X211000Y112500D02*
Y115500D01*
X141000Y201500D02*
X144000D01*
X142500Y200000D02*
Y203000D01*
X134500Y207000D02*
X137500D01*
X136000Y205500D02*
Y208500D01*
X178500Y228000D02*
X181500D01*
X180000Y226500D02*
Y229500D01*
X94500Y135000D02*
X97500D01*
X96000Y133500D02*
Y136500D01*
X169500Y228000D02*
X172500D01*
X171000Y226500D02*
Y229500D01*
X222500Y245000D02*
X225500D01*
X224000Y243500D02*
Y246500D01*
X229000Y250500D02*
X232000D01*
X230500Y249000D02*
Y252000D01*
X87500Y142000D02*
X90500D01*
X89000Y140500D02*
Y143500D01*
X347000Y178500D02*
X350000D01*
X348500Y177000D02*
Y180000D01*
X373000Y141500D02*
X376000D01*
X374500Y140000D02*
Y143000D01*
X399000Y178500D02*
X402000D01*
X400500Y177000D02*
Y180000D01*
X301250Y105250D02*
X304250D01*
X302750Y103750D02*
Y106750D01*
X429500Y171000D02*
X432500D01*
X431000Y169500D02*
Y172500D01*
X429500Y121000D02*
X432500D01*
X431000Y119500D02*
Y122500D01*
X60500Y148000D02*
X63500D01*
X62000Y146500D02*
Y149500D01*
X24199Y17549D02*
X27199D01*
X25699Y16049D02*
Y19049D01*
X31699Y32549D02*
X34699D01*
X33199Y31049D02*
Y34049D01*
X24199Y47549D02*
X27199D01*
X25699Y46049D02*
Y49049D01*
X31699Y212549D02*
X34699D01*
X33199Y211049D02*
Y214049D01*
X31699Y242549D02*
X34699D01*
X33199Y241049D02*
Y244049D01*
X24199Y257549D02*
X27199D01*
X25699Y256049D02*
Y259049D01*
X31699Y272549D02*
X34699D01*
X33199Y271049D02*
Y274049D01*
X39199Y17549D02*
X42199D01*
X40699Y16049D02*
Y19049D01*
X46699Y62549D02*
X49699D01*
X48199Y61049D02*
Y64049D01*
X46699Y182549D02*
X49699D01*
X48199Y181049D02*
Y184049D01*
X39199Y257549D02*
X42199D01*
X40699Y256049D02*
Y259049D01*
X46699Y272549D02*
X49699D01*
X48199Y271049D02*
Y274049D01*
X61699Y32549D02*
X64699D01*
X63199Y31049D02*
Y34049D01*
X54199Y47549D02*
X57199D01*
X55699Y46049D02*
Y49049D01*
X54199Y137549D02*
X57199D01*
X55699Y136049D02*
Y139049D01*
X61699Y182549D02*
X64699D01*
X63199Y181049D02*
Y184049D01*
X54199Y197549D02*
X57199D01*
X55699Y196049D02*
Y199049D01*
X76699Y92549D02*
X79699D01*
X78199Y91049D02*
Y94049D01*
X69199Y257549D02*
X72199D01*
X70699Y256049D02*
Y259049D01*
X84199Y257549D02*
X87199D01*
X85699Y256049D02*
Y259049D01*
X106699Y32549D02*
X109699D01*
X108199Y31049D02*
Y34049D01*
X136699Y32549D02*
X139699D01*
X138199Y31049D02*
Y34049D01*
X211699Y32549D02*
X214699D01*
X213199Y31049D02*
Y34049D01*
X241699Y92549D02*
X244699D01*
X243199Y91049D02*
Y94049D01*
X234199Y107549D02*
X237199D01*
X235699Y106049D02*
Y109049D01*
X234199Y227549D02*
X237199D01*
X235699Y226049D02*
Y229049D01*
X249199Y77549D02*
X252199D01*
X250699Y76049D02*
Y79049D01*
X256699Y92549D02*
X259699D01*
X258199Y91049D02*
Y94049D01*
X249199Y107549D02*
X252199D01*
X250699Y106049D02*
Y109049D01*
X271699Y62549D02*
X274699D01*
X273199Y61049D02*
Y64049D01*
X264199Y77549D02*
X267199D01*
X265699Y76049D02*
Y79049D01*
X271699Y242549D02*
X274699D01*
X273199Y241049D02*
Y244049D01*
X286699Y32549D02*
X289699D01*
X288199Y31049D02*
Y34049D01*
X279199Y47549D02*
X282199D01*
X280699Y46049D02*
Y49049D01*
X286699Y62549D02*
X289699D01*
X288199Y61049D02*
Y64049D01*
X279199Y77549D02*
X282199D01*
X280699Y76049D02*
Y79049D01*
X286699Y242549D02*
X289699D01*
X288199Y241049D02*
Y244049D01*
X279199Y257549D02*
X282199D01*
X280699Y256049D02*
Y259049D01*
X286699Y272549D02*
X289699D01*
X288199Y271049D02*
Y274049D01*
X294199Y17549D02*
X297199D01*
X295699Y16049D02*
Y19049D01*
X301699Y32549D02*
X304699D01*
X303199Y31049D02*
Y34049D01*
X294199Y47549D02*
X297199D01*
X295699Y46049D02*
Y49049D01*
X301699Y62549D02*
X304699D01*
X303199Y61049D02*
Y64049D01*
X294199Y77549D02*
X297199D01*
X295699Y76049D02*
Y79049D01*
X301699Y92549D02*
X304699D01*
X303199Y91049D02*
Y94049D01*
X294199Y227549D02*
X297199D01*
X295699Y226049D02*
Y229049D01*
X301699Y242549D02*
X304699D01*
X303199Y241049D02*
Y244049D01*
X294199Y257549D02*
X297199D01*
X295699Y256049D02*
Y259049D01*
X301699Y272549D02*
X304699D01*
X303199Y271049D02*
Y274049D01*
X309199Y17549D02*
X312199D01*
X310699Y16049D02*
Y19049D01*
X316699Y32549D02*
X319699D01*
X318199Y31049D02*
Y34049D01*
X309199Y47549D02*
X312199D01*
X310699Y46049D02*
Y49049D01*
X316699Y62549D02*
X319699D01*
X318199Y61049D02*
Y64049D01*
X309199Y77549D02*
X312199D01*
X310699Y76049D02*
Y79049D01*
X316699Y92549D02*
X319699D01*
X318199Y91049D02*
Y94049D01*
X309199Y107549D02*
X312199D01*
X310699Y106049D02*
Y109049D01*
X316699Y212549D02*
X319699D01*
X318199Y211049D02*
Y214049D01*
X309199Y227549D02*
X312199D01*
X310699Y226049D02*
Y229049D01*
X316699Y242549D02*
X319699D01*
X318199Y241049D02*
Y244049D01*
X309199Y257549D02*
X312199D01*
X310699Y256049D02*
Y259049D01*
X316699Y272549D02*
X319699D01*
X318199Y271049D02*
Y274049D01*
X324199Y17549D02*
X327199D01*
X325699Y16049D02*
Y19049D01*
X331699Y32549D02*
X334699D01*
X333199Y31049D02*
Y34049D01*
X324199Y47549D02*
X327199D01*
X325699Y46049D02*
Y49049D01*
X331699Y62549D02*
X334699D01*
X333199Y61049D02*
Y64049D01*
X324199Y77549D02*
X327199D01*
X325699Y76049D02*
Y79049D01*
X331699Y92549D02*
X334699D01*
X333199Y91049D02*
Y94049D01*
X324199Y107549D02*
X327199D01*
X325699Y106049D02*
Y109049D01*
X331699Y122549D02*
X334699D01*
X333199Y121049D02*
Y124049D01*
X324199Y167549D02*
X327199D01*
X325699Y166049D02*
Y169049D01*
X331699Y182549D02*
X334699D01*
X333199Y181049D02*
Y184049D01*
X331699Y212549D02*
X334699D01*
X333199Y211049D02*
Y214049D01*
X324199Y227549D02*
X327199D01*
X325699Y226049D02*
Y229049D01*
X331699Y242549D02*
X334699D01*
X333199Y241049D02*
Y244049D01*
X324199Y257549D02*
X327199D01*
X325699Y256049D02*
Y259049D01*
X331699Y272549D02*
X334699D01*
X333199Y271049D02*
Y274049D01*
X339199Y17549D02*
X342199D01*
X340699Y16049D02*
Y19049D01*
X346699Y32549D02*
X349699D01*
X348199Y31049D02*
Y34049D01*
X339199Y47549D02*
X342199D01*
X340699Y46049D02*
Y49049D01*
X346699Y62549D02*
X349699D01*
X348199Y61049D02*
Y64049D01*
X339199Y77549D02*
X342199D01*
X340699Y76049D02*
Y79049D01*
X346699Y92549D02*
X349699D01*
X348199Y91049D02*
Y94049D01*
X339199Y107549D02*
X342199D01*
X340699Y106049D02*
Y109049D01*
X346699Y122549D02*
X349699D01*
X348199Y121049D02*
Y124049D01*
X339199Y137549D02*
X342199D01*
X340699Y136049D02*
Y139049D01*
X339199Y197549D02*
X342199D01*
X340699Y196049D02*
Y199049D01*
X346699Y212549D02*
X349699D01*
X348199Y211049D02*
Y214049D01*
X339199Y227549D02*
X342199D01*
X340699Y226049D02*
Y229049D01*
X346699Y242549D02*
X349699D01*
X348199Y241049D02*
Y244049D01*
X339199Y257549D02*
X342199D01*
X340699Y256049D02*
Y259049D01*
X346699Y272549D02*
X349699D01*
X348199Y271049D02*
Y274049D01*
X354199Y17549D02*
X357199D01*
X355699Y16049D02*
Y19049D01*
X354199Y47549D02*
X357199D01*
X355699Y46049D02*
Y49049D01*
X361699Y62549D02*
X364699D01*
X363199Y61049D02*
Y64049D01*
X354199Y77549D02*
X357199D01*
X355699Y76049D02*
Y79049D01*
X361699Y92549D02*
X364699D01*
X363199Y91049D02*
Y94049D01*
X354199Y107549D02*
X357199D01*
X355699Y106049D02*
Y109049D01*
X361699Y122549D02*
X364699D01*
X363199Y121049D02*
Y124049D01*
X354199Y137549D02*
X357199D01*
X355699Y136049D02*
Y139049D01*
X361699Y182549D02*
X364699D01*
X363199Y181049D02*
Y184049D01*
X354199Y197549D02*
X357199D01*
X355699Y196049D02*
Y199049D01*
X361699Y212549D02*
X364699D01*
X363199Y211049D02*
Y214049D01*
X354199Y227549D02*
X357199D01*
X355699Y226049D02*
Y229049D01*
X361699Y242549D02*
X364699D01*
X363199Y241049D02*
Y244049D01*
X354199Y257549D02*
X357199D01*
X355699Y256049D02*
Y259049D01*
X361699Y272549D02*
X364699D01*
X363199Y271049D02*
Y274049D01*
X369199Y47549D02*
X372199D01*
X370699Y46049D02*
Y49049D01*
X376699Y62549D02*
X379699D01*
X378199Y61049D02*
Y64049D01*
X369199Y77549D02*
X372199D01*
X370699Y76049D02*
Y79049D01*
X376699Y92549D02*
X379699D01*
X378199Y91049D02*
Y94049D01*
X369199Y107549D02*
X372199D01*
X370699Y106049D02*
Y109049D01*
X376699Y122549D02*
X379699D01*
X378199Y121049D02*
Y124049D01*
X376699Y182549D02*
X379699D01*
X378199Y181049D02*
Y184049D01*
X369199Y197549D02*
X372199D01*
X370699Y196049D02*
Y199049D01*
X376699Y212549D02*
X379699D01*
X378199Y211049D02*
Y214049D01*
X369199Y227549D02*
X372199D01*
X370699Y226049D02*
Y229049D01*
X376699Y242549D02*
X379699D01*
X378199Y241049D02*
Y244049D01*
X369199Y257549D02*
X372199D01*
X370699Y256049D02*
Y259049D01*
X376699Y272549D02*
X379699D01*
X378199Y271049D02*
Y274049D01*
X384199Y47549D02*
X387199D01*
X385699Y46049D02*
Y49049D01*
X391699Y62549D02*
X394699D01*
X393199Y61049D02*
Y64049D01*
X384199Y77549D02*
X387199D01*
X385699Y76049D02*
Y79049D01*
X391699Y92549D02*
X394699D01*
X393199Y91049D02*
Y94049D01*
X384199Y107549D02*
X387199D01*
X385699Y106049D02*
Y109049D01*
X391699Y122549D02*
X394699D01*
X393199Y121049D02*
Y124049D01*
X384199Y137549D02*
X387199D01*
X385699Y136049D02*
Y139049D01*
X384199Y167549D02*
X387199D01*
X385699Y166049D02*
Y169049D01*
X391699Y182549D02*
X394699D01*
X393199Y181049D02*
Y184049D01*
X384199Y197549D02*
X387199D01*
X385699Y196049D02*
Y199049D01*
X391699Y212549D02*
X394699D01*
X393199Y211049D02*
Y214049D01*
X384199Y227549D02*
X387199D01*
X385699Y226049D02*
Y229049D01*
X391699Y242549D02*
X394699D01*
X393199Y241049D02*
Y244049D01*
X384199Y257549D02*
X387199D01*
X385699Y256049D02*
Y259049D01*
X391699Y272549D02*
X394699D01*
X393199Y271049D02*
Y274049D01*
X399199Y47549D02*
X402199D01*
X400699Y46049D02*
Y49049D01*
X406699Y62549D02*
X409699D01*
X408199Y61049D02*
Y64049D01*
X399199Y77549D02*
X402199D01*
X400699Y76049D02*
Y79049D01*
X406699Y92549D02*
X409699D01*
X408199Y91049D02*
Y94049D01*
X399199Y107549D02*
X402199D01*
X400699Y106049D02*
Y109049D01*
X406699Y122549D02*
X409699D01*
X408199Y121049D02*
Y124049D01*
X399199Y137549D02*
X402199D01*
X400699Y136049D02*
Y139049D01*
X406699Y182549D02*
X409699D01*
X408199Y181049D02*
Y184049D01*
X399199Y197549D02*
X402199D01*
X400699Y196049D02*
Y199049D01*
X406699Y212549D02*
X409699D01*
X408199Y211049D02*
Y214049D01*
X399199Y227549D02*
X402199D01*
X400699Y226049D02*
Y229049D01*
X406699Y242549D02*
X409699D01*
X408199Y241049D02*
Y244049D01*
X399199Y257549D02*
X402199D01*
X400699Y256049D02*
Y259049D01*
X406699Y272549D02*
X409699D01*
X408199Y271049D02*
Y274049D01*
X414199Y47549D02*
X417199D01*
X415699Y46049D02*
Y49049D01*
X421699Y62549D02*
X424699D01*
X423199Y61049D02*
Y64049D01*
X414199Y77549D02*
X417199D01*
X415699Y76049D02*
Y79049D01*
X421699Y92549D02*
X424699D01*
X423199Y91049D02*
Y94049D01*
X414199Y107549D02*
X417199D01*
X415699Y106049D02*
Y109049D01*
X421699Y182549D02*
X424699D01*
X423199Y181049D02*
Y184049D01*
X414199Y197549D02*
X417199D01*
X415699Y196049D02*
Y199049D01*
X421699Y212549D02*
X424699D01*
X423199Y211049D02*
Y214049D01*
X414199Y227549D02*
X417199D01*
X415699Y226049D02*
Y229049D01*
X421699Y242549D02*
X424699D01*
X423199Y241049D02*
Y244049D01*
X414199Y257549D02*
X417199D01*
X415699Y256049D02*
Y259049D01*
X421699Y272549D02*
X424699D01*
X423199Y271049D02*
Y274049D01*
X429199Y47549D02*
X432199D01*
X430699Y46049D02*
Y49049D01*
X436699Y62549D02*
X439699D01*
X438199Y61049D02*
Y64049D01*
X429199Y77549D02*
X432199D01*
X430699Y76049D02*
Y79049D01*
X436699Y92549D02*
X439699D01*
X438199Y91049D02*
Y94049D01*
X429199Y107549D02*
X432199D01*
X430699Y106049D02*
Y109049D01*
X436699Y182549D02*
X439699D01*
X438199Y181049D02*
Y184049D01*
X429199Y197549D02*
X432199D01*
X430699Y196049D02*
Y199049D01*
X436699Y212549D02*
X439699D01*
X438199Y211049D02*
Y214049D01*
X429199Y227549D02*
X432199D01*
X430699Y226049D02*
Y229049D01*
X436699Y242549D02*
X439699D01*
X438199Y241049D02*
Y244049D01*
X429199Y257549D02*
X432199D01*
X430699Y256049D02*
Y259049D01*
X436699Y272549D02*
X439699D01*
X438199Y271049D02*
Y274049D01*
X444199Y47549D02*
X447199D01*
X445699Y46049D02*
Y49049D01*
X444199Y77549D02*
X447199D01*
X445699Y76049D02*
Y79049D01*
X444199Y107549D02*
X447199D01*
X445699Y106049D02*
Y109049D01*
X444199Y197549D02*
X447199D01*
X445699Y196049D02*
Y199049D01*
X444199Y227549D02*
X447199D01*
X445699Y226049D02*
Y229049D01*
X444199Y257549D02*
X447199D01*
X445699Y256049D02*
Y259049D01*
M02*
