G04 Layer_Color=16711935*
%FSLAX44Y44*%
%MOMM*%
G71*
G01*
G75*
%ADD48R,1.6000X1.6000*%
%ADD49R,1.6000X1.6000*%
%ADD60C,1.6000*%
%ADD61C,1.0000*%
D48*
X274400Y8300D02*
D03*
X249000D02*
D03*
X223600D02*
D03*
X198200D02*
D03*
X172800D02*
D03*
X147400D02*
D03*
X122000D02*
D03*
X96600D02*
D03*
X274400Y287300D02*
D03*
X249000D02*
D03*
X223600D02*
D03*
X198200D02*
D03*
X172800D02*
D03*
X147400D02*
D03*
X122000D02*
D03*
X96600D02*
D03*
Y20800D02*
D03*
Y274800D02*
D03*
D49*
X7900Y224000D02*
D03*
Y198600D02*
D03*
Y173200D02*
D03*
Y147800D02*
D03*
Y122400D02*
D03*
Y97000D02*
D03*
Y71600D02*
D03*
X20400Y224000D02*
D03*
D60*
X122000Y20800D02*
D03*
Y800D02*
D03*
X147400Y20800D02*
D03*
Y800D02*
D03*
X172800Y20800D02*
D03*
Y800D02*
D03*
X198200Y20800D02*
D03*
Y800D02*
D03*
X223600Y20800D02*
D03*
Y800D02*
D03*
X249000Y20800D02*
D03*
Y800D02*
D03*
X274400Y20800D02*
D03*
Y800D02*
D03*
X96600D02*
D03*
X122000Y274800D02*
D03*
Y294800D02*
D03*
X147400Y274800D02*
D03*
Y294800D02*
D03*
X172800Y274800D02*
D03*
Y294800D02*
D03*
X198200Y274800D02*
D03*
Y294800D02*
D03*
X223600Y274800D02*
D03*
Y294800D02*
D03*
X249000Y274800D02*
D03*
Y294800D02*
D03*
X274400Y274800D02*
D03*
Y294800D02*
D03*
X96600D02*
D03*
X400Y224000D02*
D03*
Y71600D02*
D03*
X20400D02*
D03*
X400Y97000D02*
D03*
X20400D02*
D03*
X400Y122400D02*
D03*
X20400D02*
D03*
X400Y147800D02*
D03*
X20400D02*
D03*
X400Y173200D02*
D03*
X20400D02*
D03*
X400Y198600D02*
D03*
X20400D02*
D03*
D61*
X63250Y97000D02*
D03*
X52250D02*
D03*
M02*
