M48
;Layer_Color=9474304
;FILE_FORMAT=4:4
METRIC,LZ
;TYPE=PLATED
T1F00S00C0.2000
T2F00S00C0.3000
T3F00S00C0.5000
T4F00S00C0.9000
%
T01
X00128Y00134
X00139
X0015
X00161
X00172
Y00145
Y00156
X00161
Y00145
X0015
Y00156
X00139
Y00145
X00128
Y00156
Y00167
X00139
X0015
X00161
X00172
Y00178
X00161
X0015
X00139
X00128
T02
X00355699Y00017549
X00370699
X00385699
X00400699
X00415699
X00430699
X00445699
X00438199Y00032549
X00423199
X00408199
X00393199
X00378199
X00363199
X00355699Y00047549
X00370699
X00385699
X00400699
X00415699
X00430699
X00445699
X00438199Y00062549
X00423199
X00408199
X00393199
X00378199
X00363199
X00355699Y00077549
X00370699
X00385699
X00400699
X00415699
X00430699
X00445699
X00438199Y00092549
X00423199
X00408199
X00393199
X00378199
X00363199
X00355699Y00107549
X00370699
X00385699
X00400699
X00415699
X00430699
X00431Y00121
X00408199Y00122549
X00393199
X00378199
X00363199
X00355699Y00137549
X003745Y001415
X00385699Y00137549
X00400699
X00445699Y00107549
X00340699
X00325699
X00310699
X0030275Y0010525
X00303Y00118
X00303199Y00092549
X00318199
X00333199
X00348199
X00340699Y00077549
X00325699
X00310699
X00295699
X00280699
X00265699
X00250699
X00258199Y00092549
X00243199
X00235699Y00107549
X00250699
X00251Y00119
X00221Y00115
X00211Y00114
X00203
X00213Y00125
X00207Y00137
X002Y001435
X0021Y00152
X00215Y0016
X00272Y001575
X00281
Y001485
X00272
X00340699Y00137549
X00348199Y00122549
X00333199
Y00062549
X00318199
X00303199
X00288199
X00273199
X00280699Y00047549
X00295699
X00310699
X00325699
X00340699
X00348199Y00032549
X00333199
X00318199
X00303199
X00288199
X00295699Y00017549
X00310699
X00325699
X00340699
X00348199Y00062549
X00222Y00076
X00219Y00095
X00197Y00076
X00172Y00076
X0015
X0015Y00088
X00143Y0011
X0008Y00114
X00078199Y00092549
X00082Y000809
X00075Y00058
Y00045
X00055699Y00047549
X00063199Y00032549
X00033199
X00025699Y00017549
X00040699
X00025699Y00047549
X00048199Y00062549
X00106Y00071
X00108199Y00032549
X00138199
X00213199
X00096Y00135
X00089Y00142
X00062Y00148
X00055699Y00137549
X00049Y00156
Y00165
X00048199Y00182549
X00063199
X00076Y00182
X00083Y00188
X00085Y002
X00077
X00093Y002
X00101
X00136Y00207
X001425Y002015
X00141Y00222999
X00133Y00227
X0012255Y0022745
X00111Y00258
X00104Y00253
X00098Y00246999
X00092Y00241
X00085699Y00257549
X00070699
X00040699
X00025699
X00033199Y00242549
Y00212549
X00055699Y00197549
X00048199Y00272549
X00033199
X00171Y00228
X0018
X0021Y00214
X00235699Y00227549
X002305Y002505
X00224Y00245
X00273199Y00242549
X00288199
X00303199
X00318199
X00333199
X00348199
X00340699Y00227549
X00325699
X00310699
X00295699
X00293Y00213
X00318199Y00212549
X00333199
X00348199
X00340699Y00197549
X00333199Y00182549
X003485Y001785
X00325699Y00167549
X003015Y001675
X00271Y0018
X00237Y00169
X0023Y00173
X00195Y0017
X00280699Y00257549
X00295699
X00310699
X00325699
X00340699
X00348199Y00272549
X00333199
X00318199
X00303199
X00288199
X00363199
X00378199
X00393199
X00408199
X00423199
X00438199
X00430699Y00257549
X00415699
X00400699
X00385699
X00370699
X00355699
X00363199Y00242549
X00378199
X00393199
X00408199
X00423199
X00438199
X00430699Y00227549
X00415699
X00400699
X00385699
X00370699
X00355699
X00363199Y00212549
X00378199
X00393199
X00408199
X00423199
X00438199
X00430699Y00197549
X00415699
X00400699
X00385699
X00370699
X00355699
X00363199Y00182549
X00378199
X00393199
X004005Y001785
X00408199Y00182549
X00423199
X00438199
X00431Y00171
X00445699Y00197549
Y00227549
Y00257549
X00385699Y00167549
T03
X0005225Y00097
X0006325
T04
X000004Y000716
X000204
Y00097
X000004
Y001224
X000204
Y001478
X000004
X000966Y000208
Y000008
X00122
Y000208
X001474
Y000008
X001728
Y000208
X001982
Y000008
X002236
Y000208
X00249
Y000008
X002744
Y000208
Y002748
Y002948
X00249
Y002748
X002236
Y002948
X001982
Y002748
X001728
Y002948
X001474
Y002748
X00122
Y002948
X000966
Y002748
X000204Y00224
X000004
Y001986
X000204
Y001732
X000004
M30
