G04*
G04 #@! TF.GenerationSoftware,Altium Limited,Altium Designer,18.1.6 (161)*
G04*
G04 Layer_Color=8388736*
%FSLAX44Y44*%
%MOMM*%
G71*
G01*
G75*
%ADD32R,5.7000X5.7000*%
%ADD33O,1.6000X0.3500*%
%ADD34O,0.3500X1.6000*%
%ADD35R,2.0000X1.6000*%
%ADD36R,1.6000X2.0000*%
%ADD37R,0.6000X0.7000*%
%ADD38R,0.8000X0.8000*%
%ADD39R,0.8000X0.8000*%
%ADD40R,1.8000X1.8000*%
%ADD41O,0.3750X1.0500*%
%ADD42O,1.0500X0.3750*%
%ADD43R,0.9000X1.0000*%
%ADD44R,0.7500X1.2000*%
%ADD45R,0.7500X1.0000*%
%ADD46R,1.0000X0.9000*%
%ADD47R,0.7000X0.6000*%
%ADD48R,1.3000X1.2000*%
%ADD49R,1.8000X1.2000*%
%ADD50R,1.1500X1.1000*%
%ADD51R,2.3000X1.1500*%
%ADD52C,1.6000*%
%ADD53R,1.6000X1.6000*%
%ADD54R,1.6000X1.6000*%
%ADD55C,1.0000*%
D32*
X150000Y130000D02*
D03*
D33*
X112250Y102500D02*
D03*
Y107500D02*
D03*
Y112500D02*
D03*
Y117500D02*
D03*
Y122500D02*
D03*
Y127500D02*
D03*
Y132500D02*
D03*
Y137500D02*
D03*
Y142500D02*
D03*
Y147500D02*
D03*
Y152500D02*
D03*
Y157500D02*
D03*
X187750D02*
D03*
Y152500D02*
D03*
Y147500D02*
D03*
Y142500D02*
D03*
Y137500D02*
D03*
Y132500D02*
D03*
Y127500D02*
D03*
Y122500D02*
D03*
Y117500D02*
D03*
Y112500D02*
D03*
Y107500D02*
D03*
Y102500D02*
D03*
D34*
X122500Y167750D02*
D03*
X127500D02*
D03*
X132500D02*
D03*
X137500D02*
D03*
X142500D02*
D03*
X147500D02*
D03*
X152500D02*
D03*
X157500D02*
D03*
X162500D02*
D03*
X167500D02*
D03*
X172500D02*
D03*
X177500D02*
D03*
Y92250D02*
D03*
X172500D02*
D03*
X167500D02*
D03*
X162500D02*
D03*
X157500D02*
D03*
X152500D02*
D03*
X147500D02*
D03*
X142500D02*
D03*
X137500D02*
D03*
X132500D02*
D03*
X127500D02*
D03*
X122500D02*
D03*
D35*
X45800Y235900D02*
D03*
X223600D02*
D03*
X198200D02*
D03*
X172800D02*
D03*
X147400D02*
D03*
X122000D02*
D03*
X96600D02*
D03*
X71200D02*
D03*
Y7700D02*
D03*
X96600D02*
D03*
X122000D02*
D03*
X147400D02*
D03*
X172800D02*
D03*
X198200D02*
D03*
X223600D02*
D03*
X45800D02*
D03*
D36*
X7900Y198000D02*
D03*
Y45600D02*
D03*
Y71000D02*
D03*
Y96400D02*
D03*
Y121800D02*
D03*
Y147200D02*
D03*
Y172600D02*
D03*
D37*
X122500Y58000D02*
D03*
Y68000D02*
D03*
X401000Y132000D02*
D03*
Y122000D02*
D03*
X375000Y112000D02*
D03*
Y122000D02*
D03*
X349000Y132000D02*
D03*
Y122000D02*
D03*
X312000Y131000D02*
D03*
Y141000D02*
D03*
X321000Y84000D02*
D03*
Y94000D02*
D03*
X312000Y103000D02*
D03*
Y113000D02*
D03*
X114000Y193000D02*
D03*
Y183000D02*
D03*
X142500Y60000D02*
D03*
Y70000D02*
D03*
X304000Y161000D02*
D03*
Y151000D02*
D03*
X313000Y161000D02*
D03*
Y151000D02*
D03*
X322000Y161000D02*
D03*
Y151000D02*
D03*
X80000Y190000D02*
D03*
Y180000D02*
D03*
X88000Y180000D02*
D03*
Y190000D02*
D03*
X190000Y186000D02*
D03*
Y196000D02*
D03*
X96000Y190000D02*
D03*
Y180000D02*
D03*
X174000Y196000D02*
D03*
Y186000D02*
D03*
X182000Y196000D02*
D03*
Y186000D02*
D03*
X166000Y196000D02*
D03*
Y186000D02*
D03*
X158000Y196000D02*
D03*
Y186000D02*
D03*
X98500Y68000D02*
D03*
Y58000D02*
D03*
X80000Y113000D02*
D03*
Y123000D02*
D03*
X90500Y68000D02*
D03*
Y58000D02*
D03*
X114500Y68000D02*
D03*
Y58000D02*
D03*
X106500Y58000D02*
D03*
Y68000D02*
D03*
D38*
X262500Y100500D02*
D03*
X291500Y129500D02*
D03*
D39*
X262500D02*
D03*
X291500Y100500D02*
D03*
D40*
X277000Y115000D02*
D03*
D41*
X284500Y99250D02*
D03*
X279500D02*
D03*
X274500D02*
D03*
X269500D02*
D03*
Y130750D02*
D03*
X274500D02*
D03*
X279500D02*
D03*
X284500D02*
D03*
D42*
X261250Y107500D02*
D03*
Y112500D02*
D03*
Y117500D02*
D03*
Y122500D02*
D03*
X292750D02*
D03*
Y117500D02*
D03*
Y112500D02*
D03*
Y107500D02*
D03*
D43*
X281002Y155000D02*
D03*
X267002D02*
D03*
X142598Y49200D02*
D03*
X156598D02*
D03*
X167598D02*
D03*
X181598D02*
D03*
X192598D02*
D03*
X206598D02*
D03*
X217598D02*
D03*
X231598D02*
D03*
D44*
X249000Y197375D02*
D03*
X57600Y179825D02*
D03*
D45*
X258500Y176625D02*
D03*
X239500D02*
D03*
X48100Y200575D02*
D03*
X67100D02*
D03*
D46*
X24000Y24002D02*
D03*
Y10002D02*
D03*
X293000Y151998D02*
D03*
Y165998D02*
D03*
D47*
X393000Y122000D02*
D03*
X383000D02*
D03*
X367000D02*
D03*
X357000D02*
D03*
X322500D02*
D03*
X312500D02*
D03*
X341000D02*
D03*
X331000D02*
D03*
Y103000D02*
D03*
X321000D02*
D03*
X331000Y113000D02*
D03*
X321000D02*
D03*
X237000Y158000D02*
D03*
X247000D02*
D03*
X226000Y182000D02*
D03*
X216000D02*
D03*
X91000Y88000D02*
D03*
X101000D02*
D03*
X91000Y96000D02*
D03*
X101000D02*
D03*
X42000Y57000D02*
D03*
X52000D02*
D03*
X73000Y57000D02*
D03*
X63000D02*
D03*
X226000Y174000D02*
D03*
X216000D02*
D03*
X237000Y166000D02*
D03*
X247000D02*
D03*
X146600Y39200D02*
D03*
X156600D02*
D03*
X216000Y142000D02*
D03*
X226000D02*
D03*
X171600Y39200D02*
D03*
X181600D02*
D03*
X216000Y150000D02*
D03*
X226000D02*
D03*
X196600Y39200D02*
D03*
X206600D02*
D03*
X216000Y158000D02*
D03*
X226000D02*
D03*
X221600Y39200D02*
D03*
X231600D02*
D03*
X241000Y99000D02*
D03*
X231000D02*
D03*
X241000Y123000D02*
D03*
X231000D02*
D03*
X241000Y115000D02*
D03*
X231000D02*
D03*
X241000Y107000D02*
D03*
X231000D02*
D03*
X216000Y166000D02*
D03*
X226000D02*
D03*
X231000Y91000D02*
D03*
X241000D02*
D03*
D48*
X286500Y64000D02*
D03*
X269500D02*
D03*
Y78000D02*
D03*
X286500D02*
D03*
D49*
X276000Y195500D02*
D03*
Y168500D02*
D03*
D50*
X415750Y120000D02*
D03*
D51*
X431000Y105250D02*
D03*
Y134750D02*
D03*
D52*
X45800Y243400D02*
D03*
X223600D02*
D03*
Y223400D02*
D03*
X198200Y243400D02*
D03*
Y223400D02*
D03*
X172800Y243400D02*
D03*
Y223400D02*
D03*
X147400Y243400D02*
D03*
Y223400D02*
D03*
X122000Y243400D02*
D03*
Y223400D02*
D03*
X96600Y243400D02*
D03*
Y223400D02*
D03*
X71200Y243400D02*
D03*
Y223400D02*
D03*
X400Y198000D02*
D03*
Y45600D02*
D03*
X20400D02*
D03*
X400Y71000D02*
D03*
X20400D02*
D03*
X400Y96400D02*
D03*
X20400D02*
D03*
X400Y121800D02*
D03*
X20400D02*
D03*
X400Y147200D02*
D03*
X20400D02*
D03*
X400Y172600D02*
D03*
X20400D02*
D03*
X71200Y20200D02*
D03*
Y200D02*
D03*
X96600Y20200D02*
D03*
Y200D02*
D03*
X122000Y20200D02*
D03*
Y200D02*
D03*
X147400Y20200D02*
D03*
Y200D02*
D03*
X172800Y20200D02*
D03*
Y200D02*
D03*
X198200Y20200D02*
D03*
Y200D02*
D03*
X223600Y20200D02*
D03*
Y200D02*
D03*
X45800D02*
D03*
D53*
Y223400D02*
D03*
Y20200D02*
D03*
D54*
X20400Y198000D02*
D03*
D55*
X63250Y71000D02*
D03*
X52250D02*
D03*
M02*
