G04 Layer_Physical_Order=1*
G04 Layer_Color=255*
%FSLAX44Y44*%
%MOMM*%
G71*
G01*
G75*
%ADD10R,0.7000X0.7000*%
%ADD11R,0.7000X0.7000*%
%ADD12R,1.7000X1.7000*%
%ADD13O,0.2750X0.9500*%
%ADD14O,0.9500X0.2750*%
%ADD15R,5.6000X5.6000*%
%ADD16O,1.0000X0.2500*%
%ADD17O,0.2500X1.0000*%
%ADD18R,1.5000X1.5000*%
%ADD19R,1.5000X1.5000*%
%ADD20R,0.8000X0.9000*%
%ADD21R,0.6500X1.1000*%
%ADD22R,0.6500X0.9000*%
%ADD23R,0.9000X0.8000*%
%ADD24R,0.5000X0.6000*%
%ADD25R,0.6000X0.5000*%
%ADD26R,1.2000X1.1000*%
%ADD27R,1.7000X1.1000*%
%ADD28R,1.0500X1.0000*%
%ADD29R,2.2000X1.0500*%
%ADD30C,0.1500*%
%ADD31C,0.2500*%
%ADD32C,0.3000*%
%ADD33C,1.5000*%
%ADD34C,0.9000*%
%ADD35C,0.6000*%
%ADD36C,0.5000*%
G36*
X204263Y75772D02*
X203737Y74502D01*
X200500D01*
Y64502D01*
X197500D01*
Y61501D01*
X187000D01*
Y54502D01*
X191000D01*
Y44502D01*
X191231D01*
X192500Y44500D01*
Y35500D01*
X194696D01*
Y29631D01*
X193409Y29098D01*
X191425Y27576D01*
X189902Y25591D01*
X188945Y23280D01*
X188618Y20800D01*
X188846Y19070D01*
X188700Y17800D01*
X188700Y17800D01*
X188700Y17800D01*
Y10000D01*
X182300D01*
Y17800D01*
X182300Y17800D01*
X182154Y19070D01*
X182382Y20800D01*
X182055Y23280D01*
X181098Y25591D01*
X179576Y27576D01*
X177591Y29098D01*
X175304Y30046D01*
Y35500D01*
X177500D01*
Y35500D01*
X177500D01*
Y35500D01*
X187500D01*
Y44500D01*
X185304D01*
Y50502D01*
Y75000D01*
X185090Y76073D01*
X184483Y76983D01*
X183789Y77676D01*
X184315Y78946D01*
X201089D01*
X204263Y75772D01*
D02*
G37*
G36*
X162000Y72705D02*
Y67502D01*
X172500D01*
Y61501D01*
X162000D01*
Y54502D01*
X166000D01*
Y44502D01*
X166231D01*
X167500Y44500D01*
Y35500D01*
X169696D01*
Y29797D01*
X168009Y29098D01*
X166025Y27576D01*
X164502Y25591D01*
X163545Y23280D01*
X163218Y20800D01*
X163446Y19070D01*
X163300Y17800D01*
X163300Y17800D01*
X163300Y17800D01*
Y10000D01*
X156900D01*
Y17800D01*
X156900Y17800D01*
X156754Y19070D01*
X156982Y20800D01*
X156656Y23280D01*
X155698Y25591D01*
X154176Y27576D01*
X152191Y29098D01*
X150304Y29880D01*
Y35500D01*
X152500D01*
Y35500D01*
X152500D01*
Y35500D01*
X162500D01*
Y44500D01*
X160304D01*
Y50502D01*
Y73067D01*
X160730Y73366D01*
X162000Y72705D01*
D02*
G37*
G36*
X53050Y63950D02*
X54946D01*
Y60250D01*
X55160Y59177D01*
X55767Y58267D01*
X64017Y50017D01*
X64927Y49410D01*
X66000Y49196D01*
X120000D01*
X121073Y49410D01*
X121983Y50017D01*
X129983Y58017D01*
X130161Y58285D01*
X131431Y57900D01*
Y51478D01*
X123522Y43569D01*
X103000D01*
X101634Y43297D01*
X100477Y42523D01*
X94077Y36123D01*
X93303Y34966D01*
X93031Y33600D01*
Y30300D01*
X87100D01*
Y25496D01*
X86770Y25228D01*
X85500Y25833D01*
Y31502D01*
X75000D01*
X64500D01*
Y24502D01*
X63285Y24369D01*
X59928D01*
X41569Y42728D01*
Y63950D01*
X47050D01*
Y72950D01*
X53050D01*
Y63950D01*
D02*
G37*
G36*
X229696Y76339D02*
Y74502D01*
X225500D01*
Y64502D01*
X222500D01*
Y61501D01*
X212000D01*
Y54502D01*
X216000D01*
Y44502D01*
X216231D01*
X217500Y44500D01*
Y35500D01*
X219696D01*
Y29466D01*
X218809Y29098D01*
X216825Y27576D01*
X215302Y25591D01*
X214345Y23280D01*
X214018Y20800D01*
X214246Y19070D01*
X214100Y17800D01*
X214100Y17800D01*
X214100Y17800D01*
Y10000D01*
X207700D01*
Y17800D01*
X207700Y17800D01*
X207554Y19070D01*
X207782Y20800D01*
X207456Y23280D01*
X206498Y25591D01*
X204975Y27576D01*
X202991Y29098D01*
X200680Y30055D01*
X200304Y30105D01*
Y35500D01*
X202500D01*
Y35500D01*
X202500D01*
Y35500D01*
X212500D01*
Y44500D01*
X210304D01*
Y50502D01*
Y76500D01*
X210091Y77573D01*
X209828Y77966D01*
X209845Y78084D01*
X210527Y79196D01*
X226839D01*
X229696Y76339D01*
D02*
G37*
G36*
X111275Y107938D02*
X110365Y107331D01*
X104017Y100983D01*
X103410Y100073D01*
X103395Y100000D01*
X98000D01*
Y91000D01*
X95000D01*
Y88000D01*
X86500D01*
Y82000D01*
X90500D01*
Y76000D01*
X99500D01*
Y78196D01*
X101500D01*
Y76000D01*
X102197D01*
X102583Y74730D01*
X102395Y74605D01*
X101290Y72951D01*
X100902Y71000D01*
X101290Y69049D01*
X101775Y68324D01*
X101096Y67054D01*
X77411D01*
X75354Y69111D01*
Y80450D01*
X75140Y81523D01*
X74533Y82433D01*
X72033Y84933D01*
X71123Y85540D01*
X70050Y85754D01*
X69550D01*
Y87950D01*
X66554D01*
Y91342D01*
X67886Y92364D01*
X68928Y93722D01*
X69583Y95303D01*
X69806Y97000D01*
X69583Y98697D01*
X68976Y100161D01*
X69312Y101095D01*
X69478Y101431D01*
X100000D01*
X101366Y101703D01*
X102523Y102477D01*
X103523Y103477D01*
X104297Y104634D01*
X104569Y106000D01*
Y107500D01*
X106000D01*
Y109196D01*
X111089D01*
X111275Y107938D01*
D02*
G37*
G36*
X125330Y98213D02*
X125850Y97274D01*
X125696Y96500D01*
Y96000D01*
X123500D01*
Y87270D01*
X123500Y86000D01*
X123500D01*
Y86000D01*
X123500D01*
Y76000D01*
X125196D01*
Y61161D01*
X118839Y54804D01*
X67161D01*
X60554Y61411D01*
Y63950D01*
X62050D01*
Y72950D01*
X68050D01*
Y63950D01*
X72585D01*
X74267Y62267D01*
X75177Y61660D01*
X76250Y61446D01*
X111500D01*
X112573Y61660D01*
X113483Y62267D01*
X119233Y68017D01*
X119840Y68927D01*
X120054Y70000D01*
Y76000D01*
X121750D01*
Y86000D01*
X121750D01*
Y86000D01*
X121750D01*
Y96000D01*
X121011D01*
X120485Y97270D01*
X121759Y98544D01*
X125031D01*
X125330Y98213D01*
D02*
G37*
G36*
X286500Y184000D02*
X286500Y183998D01*
X299500D01*
X299500Y184000D01*
X308500D01*
X308500Y184000D01*
X309686Y183798D01*
Y182500D01*
X307500D01*
Y172500D01*
X307500D01*
Y172500D01*
X307500D01*
Y164500D01*
X307000D01*
Y163304D01*
X300500D01*
Y164500D01*
X291000D01*
Y167500D01*
X288000D01*
Y177000D01*
X287115D01*
X287061Y177268D01*
X286343Y178343D01*
X282313Y182373D01*
Y184000D01*
X286500D01*
D02*
G37*
G36*
X141000Y44502D02*
X141231D01*
X142500Y44500D01*
Y35500D01*
X144696D01*
Y29963D01*
X142609Y29098D01*
X140625Y27576D01*
X139102Y25591D01*
X138145Y23280D01*
X137818Y20800D01*
X138046Y19070D01*
X137900Y17800D01*
X137900Y17800D01*
X137900Y17800D01*
Y10000D01*
X135500D01*
Y17800D01*
X108500D01*
Y10000D01*
X106100D01*
Y30300D01*
X100169D01*
Y32122D01*
X104478Y36431D01*
X125000D01*
X126366Y36703D01*
X127523Y37477D01*
X137523Y47477D01*
X138297Y48634D01*
X138569Y50000D01*
Y54502D01*
X141000D01*
Y44502D01*
D02*
G37*
G36*
X148500Y215000D02*
X148500D01*
Y215000D01*
X148500D01*
Y205000D01*
X148500D01*
X148650Y204638D01*
X148140Y204055D01*
X146697Y204219D01*
X146105Y205105D01*
X144451Y206210D01*
X142500Y206598D01*
X142203Y206539D01*
X140981Y207591D01*
X140710Y208951D01*
X139605Y210605D01*
X137951Y211710D01*
X136000Y212098D01*
X134049Y211710D01*
X132395Y210605D01*
X132320Y210492D01*
X131050Y210877D01*
Y214950D01*
X122550D01*
Y220950D01*
X131050D01*
Y221289D01*
X132032Y222095D01*
X133000Y221902D01*
X134756Y222251D01*
X135299Y222161D01*
X136138Y221813D01*
X136290Y221049D01*
X137395Y219395D01*
X139049Y218290D01*
X141000Y217901D01*
X142951Y218290D01*
X144605Y219395D01*
X145710Y221049D01*
X146098Y222999D01*
X146669Y223696D01*
X148500D01*
Y215000D01*
D02*
G37*
G36*
X53500Y204149D02*
X64000D01*
Y207431D01*
X75500D01*
Y206000D01*
X75500D01*
X75387Y204777D01*
X75049Y204709D01*
X73395Y203604D01*
X72290Y201950D01*
X71902Y200000D01*
X72290Y198049D01*
X73395Y196395D01*
X74228Y195838D01*
X74409Y194927D01*
X75017Y194018D01*
X76768Y192267D01*
X77677Y191659D01*
X77878Y191619D01*
X78462Y190208D01*
X78290Y189951D01*
X77902Y188000D01*
X76819Y186935D01*
X76000Y187098D01*
X74049Y186710D01*
X72395Y185605D01*
X71290Y183951D01*
X70902Y182000D01*
X71290Y180049D01*
X72395Y178395D01*
X73196Y177860D01*
Y171161D01*
X69839Y167804D01*
X53140D01*
X52605Y168605D01*
X50951Y169710D01*
X49000Y170098D01*
X47049Y169710D01*
X45395Y168605D01*
X44290Y166951D01*
X43902Y165000D01*
X44290Y163049D01*
X45395Y161395D01*
X45785Y161135D01*
Y159865D01*
X45395Y159605D01*
X44290Y157951D01*
X43902Y156000D01*
X44290Y154049D01*
X45395Y152395D01*
X47049Y151290D01*
X49000Y150902D01*
X50951Y151290D01*
X52605Y152395D01*
X53140Y153196D01*
X58491D01*
X58876Y151926D01*
X58395Y151605D01*
X57290Y149951D01*
X56902Y148000D01*
X57290Y146049D01*
X58395Y144395D01*
X60049Y143290D01*
X62000Y142902D01*
X63951Y143290D01*
X65605Y144395D01*
X66474Y145696D01*
X77196D01*
Y143000D01*
X75500D01*
Y137000D01*
X71500D01*
Y131000D01*
X80000D01*
Y125000D01*
X71500D01*
Y119000D01*
X82000D01*
Y115000D01*
X91000D01*
Y109000D01*
X82000D01*
Y108569D01*
X43478D01*
X41569Y110478D01*
Y199522D01*
X50128Y208081D01*
X53500D01*
Y204149D01*
D02*
G37*
G36*
X108500Y277800D02*
X122000D01*
Y271800D01*
X108778D01*
X108848Y271276D01*
X110208Y267992D01*
X112372Y265172D01*
X115192Y263008D01*
X117446Y262074D01*
X117194Y260804D01*
X115140D01*
X114605Y261605D01*
X112951Y262710D01*
X111000Y263098D01*
X109049Y262710D01*
X107395Y261605D01*
X106290Y259951D01*
X105902Y258000D01*
X104698Y257959D01*
X104000Y258098D01*
X102049Y257710D01*
X100395Y256605D01*
X99290Y254951D01*
X98902Y253000D01*
X98903Y252994D01*
X98279Y252370D01*
X97795Y252057D01*
X96049Y251709D01*
X94395Y250604D01*
X93290Y248950D01*
X92943Y247205D01*
X92627Y246720D01*
X92279Y246372D01*
X91794Y246057D01*
X90049Y245710D01*
X88395Y244605D01*
X87290Y242951D01*
X86902Y241000D01*
X87233Y239338D01*
X86535Y238068D01*
X83979D01*
X77523Y244523D01*
X76366Y245297D01*
X75000Y245569D01*
X62000D01*
X60634Y245297D01*
X59477Y244523D01*
X56227Y241273D01*
X55453Y240116D01*
X55390Y239801D01*
X54500Y238899D01*
X52818D01*
Y254772D01*
X69278Y271231D01*
X87100D01*
Y265300D01*
X106100D01*
Y277800D01*
Y285000D01*
X108500D01*
Y277800D01*
D02*
G37*
G36*
X455000Y10000D02*
X283900D01*
Y17800D01*
X283900Y17800D01*
X283754Y19070D01*
X283982Y20800D01*
X283655Y23280D01*
X282698Y25591D01*
X281175Y27576D01*
X279191Y29098D01*
X277204Y29921D01*
Y45500D01*
X276990Y46572D01*
X276383Y47482D01*
X232882Y90983D01*
X231973Y91590D01*
X230900Y91804D01*
X224387D01*
X223669Y92844D01*
X223714Y93074D01*
X224097Y95000D01*
X223752Y96738D01*
X223804Y97000D01*
Y110860D01*
X224605Y111395D01*
X225710Y113049D01*
X226098Y115000D01*
X225710Y116951D01*
X224605Y118605D01*
X223669Y119230D01*
X224054Y120500D01*
X230000D01*
Y120500D01*
X230000D01*
Y120500D01*
X240000D01*
Y122196D01*
X245613D01*
X246331Y121156D01*
X246285Y120926D01*
X245902Y119000D01*
X246290Y117049D01*
X247395Y115395D01*
X249049Y114290D01*
X251000Y113902D01*
X252951Y114290D01*
X253426Y114608D01*
X254696Y113929D01*
Y105000D01*
X254909Y103927D01*
X255517Y103017D01*
X258517Y100017D01*
X259427Y99410D01*
X260500Y99196D01*
X261000D01*
Y94500D01*
X274000D01*
Y90500D01*
X283000D01*
Y102000D01*
X286000D01*
Y105000D01*
X298000D01*
Y113500D01*
X294000D01*
Y123500D01*
X288804D01*
X288590Y124573D01*
X287983Y125483D01*
X285735Y127730D01*
X286261Y129000D01*
X288000D01*
Y138500D01*
X294000D01*
Y129000D01*
X300196D01*
Y122140D01*
X299395Y121605D01*
X298290Y119951D01*
X297902Y118000D01*
X298290Y116049D01*
X299395Y114395D01*
X301049Y113290D01*
X303000Y112902D01*
X304951Y113290D01*
X306605Y114395D01*
X307710Y116049D01*
X308098Y118000D01*
X307710Y119951D01*
X306605Y121605D01*
X305804Y122140D01*
Y135821D01*
X307000Y136000D01*
Y136000D01*
X316000D01*
Y132000D01*
X312000D01*
Y126000D01*
X320499D01*
X329000D01*
Y132000D01*
X325000D01*
Y136437D01*
X325500Y137500D01*
X326770Y137500D01*
X335500D01*
Y148196D01*
X337500D01*
X338573Y148410D01*
X339482Y149017D01*
X342482Y152017D01*
X343090Y152927D01*
X343304Y154000D01*
Y154018D01*
X344000Y155000D01*
X353000D01*
Y155500D01*
X360230D01*
X361500Y155500D01*
X362770Y155500D01*
X366000D01*
Y153000D01*
X374500D01*
X383000D01*
Y154602D01*
X383898Y155500D01*
X387500Y155500D01*
X388770Y155500D01*
X396000D01*
Y155000D01*
X397696D01*
Y150500D01*
X397910Y149427D01*
X398517Y148518D01*
X403017Y144017D01*
X403927Y143410D01*
X405000Y143196D01*
X408500D01*
Y139000D01*
X414000D01*
Y134250D01*
X428000D01*
Y142500D01*
X423000D01*
Y149500D01*
X428000D01*
Y157750D01*
X414000D01*
Y153000D01*
X408500D01*
Y148804D01*
X406161D01*
X403304Y151662D01*
Y155000D01*
X405000D01*
Y161000D01*
X409000D01*
Y167000D01*
X392000D01*
Y165398D01*
X391102Y164500D01*
X387500Y164500D01*
X386230Y164500D01*
X379000D01*
Y165000D01*
X370000D01*
Y164500D01*
X362770D01*
X361500Y164500D01*
X360230Y164500D01*
X357000D01*
Y167000D01*
X340000D01*
Y165398D01*
X339102Y164500D01*
X335500Y164500D01*
X334230Y164500D01*
X318270D01*
X317000Y164500D01*
X316500Y165563D01*
Y172500D01*
X316500D01*
Y172500D01*
X316500D01*
Y182500D01*
X316314D01*
Y183798D01*
X317500Y184000D01*
Y184000D01*
X326500D01*
Y190000D01*
X330500D01*
Y196000D01*
X322000D01*
Y199000D01*
X319000D01*
Y208000D01*
X316000D01*
Y199000D01*
X310000D01*
Y208000D01*
X303500D01*
Y213998D01*
X296000D01*
Y203998D01*
X293000D01*
Y200998D01*
X282500D01*
Y199000D01*
X265500D01*
Y198564D01*
X265489Y198541D01*
X265270Y198526D01*
X264000Y199710D01*
Y207500D01*
X263214D01*
X263061Y208268D01*
X262750Y208734D01*
Y211535D01*
X262893Y211564D01*
X263968Y212282D01*
X264327Y212640D01*
X265500Y212155D01*
Y211000D01*
X282500D01*
Y206998D01*
X290000D01*
Y213998D01*
X286500D01*
Y226000D01*
X265500D01*
Y221814D01*
X264232Y221561D01*
X263924Y221356D01*
X262750Y221125D01*
X262750Y221125D01*
X262750Y221125D01*
X252250D01*
Y211500D01*
X252000D01*
Y203000D01*
X246000D01*
Y211500D01*
X243750D01*
Y221125D01*
X233250D01*
Y214804D01*
X230398D01*
X229500Y215702D01*
X229500Y217000D01*
X229500D01*
Y217000D01*
X229500D01*
Y227000D01*
X228314D01*
Y230931D01*
X242750D01*
Y227875D01*
X253250D01*
Y241946D01*
X261750D01*
X262823Y242160D01*
X263733Y242767D01*
X276383Y255417D01*
X276991Y256327D01*
X277204Y257400D01*
Y265679D01*
X279191Y266502D01*
X281175Y268025D01*
X282698Y270009D01*
X283655Y272320D01*
X283982Y274800D01*
X283754Y276530D01*
X283900Y277800D01*
X283900Y277800D01*
X283900Y277800D01*
Y285000D01*
X455000D01*
Y10000D01*
D02*
G37*
G36*
X87100Y278369D02*
X67800D01*
X66434Y278097D01*
X65277Y277323D01*
X46726Y258773D01*
X45953Y257616D01*
X45681Y256250D01*
Y238899D01*
X44000D01*
Y225900D01*
X54500D01*
X55181Y224912D01*
Y219149D01*
X53500D01*
Y215218D01*
X48649D01*
X47284Y214946D01*
X46126Y214173D01*
X35477Y203523D01*
X34738Y202418D01*
X34624Y202390D01*
X34499Y202377D01*
X33423Y202438D01*
X32192Y205408D01*
X30028Y208228D01*
X27208Y210392D01*
X23924Y211752D01*
X23400Y211821D01*
Y198600D01*
Y185378D01*
X23924Y185448D01*
X27208Y186808D01*
X30028Y188972D01*
X32192Y191792D01*
X33161Y194132D01*
X34431Y193879D01*
Y109000D01*
X34703Y107634D01*
X35477Y106477D01*
X36953Y105000D01*
X35477Y103523D01*
X34703Y102366D01*
X34431Y101000D01*
Y100569D01*
X29205D01*
X28698Y101791D01*
X27176Y103776D01*
X25191Y105298D01*
X22880Y106256D01*
X20400Y106582D01*
X18670Y106354D01*
X17400Y106500D01*
X17400Y106500D01*
X17400Y106500D01*
X10000D01*
Y112900D01*
X17400D01*
X17400Y112900D01*
X18670Y113046D01*
X20400Y112818D01*
X22880Y113145D01*
X25191Y114102D01*
X27176Y115625D01*
X28698Y117609D01*
X29655Y119920D01*
X29982Y122400D01*
X29655Y124880D01*
X28698Y127191D01*
X27176Y129176D01*
X25191Y130698D01*
X22880Y131656D01*
X20400Y131982D01*
X18670Y131754D01*
X17400Y131900D01*
X17400Y131900D01*
X17400Y131900D01*
X10000D01*
Y138300D01*
X17400D01*
X17400Y138300D01*
X18670Y138446D01*
X20400Y138218D01*
X22880Y138545D01*
X25191Y139502D01*
X27176Y141025D01*
X28698Y143009D01*
X29655Y145320D01*
X29982Y147800D01*
X29655Y150280D01*
X28698Y152591D01*
X27176Y154576D01*
X25191Y156098D01*
X22880Y157056D01*
X20400Y157382D01*
X18670Y157154D01*
X17400Y157300D01*
X17400Y157300D01*
X17400Y157300D01*
X10000D01*
Y163700D01*
X17400D01*
X17400Y163700D01*
X18670Y163846D01*
X20400Y163618D01*
X22880Y163945D01*
X25191Y164902D01*
X27176Y166425D01*
X28698Y168409D01*
X29655Y170720D01*
X29982Y173200D01*
X29655Y175680D01*
X28698Y177991D01*
X27176Y179975D01*
X25191Y181498D01*
X22880Y182456D01*
X20400Y182782D01*
X18670Y182554D01*
X17400Y182700D01*
X17400Y182700D01*
X17400Y182700D01*
X10000D01*
Y185100D01*
X17400D01*
Y198600D01*
Y212100D01*
X10000D01*
Y214500D01*
X29900D01*
Y233500D01*
X10000D01*
Y285000D01*
X87100D01*
Y278369D01*
D02*
G37*
G36*
X248002Y180500D02*
X255002D01*
Y184500D01*
X265002D01*
X265500Y184000D01*
Y184000D01*
X275686D01*
Y180305D01*
X274731Y179467D01*
X274000Y179564D01*
X272075Y179310D01*
X270281Y178567D01*
X268740Y177385D01*
X267558Y175844D01*
X267201Y174982D01*
X266567Y174558D01*
X265821Y173442D01*
X265733Y173000D01*
X256500D01*
Y163767D01*
X256058Y163679D01*
X255496Y163304D01*
X253661D01*
X245983Y170983D01*
X245073Y171590D01*
X244000Y171804D01*
X241140D01*
X240605Y172605D01*
X238951Y173710D01*
X237000Y174098D01*
X235049Y173710D01*
X233395Y172605D01*
X232290Y170951D01*
X231902Y169000D01*
X232290Y167049D01*
X232577Y166620D01*
X231978Y165500D01*
X230000D01*
X230000Y166770D01*
Y170000D01*
X221000D01*
Y176000D01*
X230008D01*
Y185000D01*
X235002D01*
Y180500D01*
X242002D01*
Y191000D01*
X248002D01*
Y180500D01*
D02*
G37*
G36*
X23400Y58379D02*
X23924Y58447D01*
X27208Y59808D01*
X30028Y61972D01*
X32192Y64792D01*
X33161Y67132D01*
X34431Y66879D01*
Y41250D01*
X34703Y39884D01*
X35477Y38727D01*
X55927Y18277D01*
X57084Y17503D01*
X58450Y17231D01*
X68500D01*
Y14502D01*
X81500D01*
Y17231D01*
X87100D01*
Y10000D01*
X10000D01*
Y58100D01*
X17400D01*
Y71600D01*
X23400D01*
Y58379D01*
D02*
G37*
%LPC*%
G36*
X194500Y74502D02*
X187000D01*
Y67502D01*
X194500D01*
Y74502D01*
D02*
G37*
G36*
X85500Y44502D02*
X78000D01*
Y37502D01*
X85500D01*
Y44502D01*
D02*
G37*
G36*
X72000D02*
X64500D01*
Y37502D01*
X72000D01*
Y44502D01*
D02*
G37*
G36*
X219500Y74502D02*
X212000D01*
Y67502D01*
X219500D01*
Y74502D01*
D02*
G37*
G36*
X92000Y100000D02*
X86500D01*
Y94000D01*
X92000D01*
Y100000D01*
D02*
G37*
G36*
X300500Y177000D02*
X294000D01*
Y170500D01*
X300500D01*
Y177000D01*
D02*
G37*
G36*
X125000Y34021D02*
Y23800D01*
X135222D01*
X135153Y24324D01*
X133792Y27608D01*
X131628Y30428D01*
X128808Y32592D01*
X125524Y33953D01*
X125000Y34021D01*
D02*
G37*
G36*
X119000D02*
X118476Y33953D01*
X115192Y32592D01*
X112372Y30428D01*
X110208Y27608D01*
X108848Y24324D01*
X108778Y23800D01*
X119000D01*
Y34021D01*
D02*
G37*
G36*
X298000Y99000D02*
X289000D01*
Y90500D01*
X298000D01*
Y99000D01*
D02*
G37*
G36*
X345500Y179000D02*
X340000D01*
Y173000D01*
X345500D01*
Y179000D01*
D02*
G37*
G36*
X428000Y172000D02*
X414000D01*
Y163750D01*
X428000D01*
Y172000D01*
D02*
G37*
G36*
X448000D02*
X434000D01*
Y163750D01*
X448000D01*
Y172000D01*
D02*
G37*
G36*
X409000Y179000D02*
X403500D01*
Y173000D01*
X409000D01*
Y179000D01*
D02*
G37*
G36*
X330500Y208000D02*
X325000D01*
Y202000D01*
X330500D01*
Y208000D01*
D02*
G37*
G36*
X357000Y179000D02*
X351500D01*
Y173000D01*
X357000D01*
Y179000D01*
D02*
G37*
G36*
X397500D02*
X392000D01*
Y173000D01*
X397500D01*
Y179000D01*
D02*
G37*
G36*
X428000Y128250D02*
X414000D01*
Y120000D01*
X428000D01*
Y128250D01*
D02*
G37*
G36*
X448000D02*
X434000D01*
Y120000D01*
X448000D01*
Y128250D01*
D02*
G37*
G36*
X317500Y120000D02*
X312000D01*
Y114000D01*
X317500D01*
Y120000D01*
D02*
G37*
G36*
X329000D02*
X323499D01*
Y114000D01*
X329000D01*
Y120000D01*
D02*
G37*
G36*
X383000Y147000D02*
X377500D01*
Y141000D01*
X383000D01*
Y147000D01*
D02*
G37*
G36*
X448000Y157750D02*
X434000D01*
Y149500D01*
X448000D01*
Y157750D01*
D02*
G37*
G36*
Y142500D02*
X434000D01*
Y134250D01*
X448000D01*
Y142500D01*
D02*
G37*
G36*
X371499Y147000D02*
X366000D01*
Y141000D01*
X371499D01*
Y147000D01*
D02*
G37*
%LPD*%
D10*
X262000Y138500D02*
D03*
X291000Y167500D02*
D03*
D11*
X262000D02*
D03*
X291000Y138500D02*
D03*
D12*
X276500Y153000D02*
D03*
D13*
X284000Y137250D02*
D03*
X279000D02*
D03*
X274000D02*
D03*
X269000D02*
D03*
Y168750D02*
D03*
X274000D02*
D03*
X279000D02*
D03*
X284000D02*
D03*
D14*
X260750Y145500D02*
D03*
Y150500D02*
D03*
Y155500D02*
D03*
Y160500D02*
D03*
X292250D02*
D03*
Y155500D02*
D03*
Y150500D02*
D03*
Y145500D02*
D03*
D15*
X150000Y156000D02*
D03*
D16*
X114750Y128500D02*
D03*
Y133500D02*
D03*
Y138500D02*
D03*
Y143500D02*
D03*
Y148500D02*
D03*
Y153500D02*
D03*
Y158500D02*
D03*
Y163500D02*
D03*
Y168500D02*
D03*
Y173500D02*
D03*
Y178500D02*
D03*
Y183500D02*
D03*
X185250D02*
D03*
Y178500D02*
D03*
Y173500D02*
D03*
Y168500D02*
D03*
Y163500D02*
D03*
Y158500D02*
D03*
Y153500D02*
D03*
Y148500D02*
D03*
Y143500D02*
D03*
Y138500D02*
D03*
Y133500D02*
D03*
Y128500D02*
D03*
D17*
X122500Y191250D02*
D03*
X127500D02*
D03*
X132500D02*
D03*
X137500D02*
D03*
X142500D02*
D03*
X147500D02*
D03*
X152500D02*
D03*
X157500D02*
D03*
X162500D02*
D03*
X167500D02*
D03*
X172500D02*
D03*
X177500D02*
D03*
Y120750D02*
D03*
X172500D02*
D03*
X167500D02*
D03*
X162500D02*
D03*
X157500D02*
D03*
X152500D02*
D03*
X147500D02*
D03*
X142500D02*
D03*
X137500D02*
D03*
X132500D02*
D03*
X127500D02*
D03*
X122500D02*
D03*
D18*
X122000Y8300D02*
D03*
X147400D02*
D03*
X172800D02*
D03*
X198200D02*
D03*
X223600D02*
D03*
X249000D02*
D03*
X274400D02*
D03*
X96600D02*
D03*
X122000Y287300D02*
D03*
X147400D02*
D03*
X172800D02*
D03*
X198200D02*
D03*
X223600D02*
D03*
X249000D02*
D03*
X274400D02*
D03*
X96600D02*
D03*
Y20800D02*
D03*
Y274800D02*
D03*
D19*
X7900Y224000D02*
D03*
Y71600D02*
D03*
Y97000D02*
D03*
Y122400D02*
D03*
Y147800D02*
D03*
Y173200D02*
D03*
Y198600D02*
D03*
X20400Y224000D02*
D03*
D20*
X259002Y191000D02*
D03*
X245002D02*
D03*
D21*
X248000Y235375D02*
D03*
X58750Y211649D02*
D03*
D22*
X257500Y214625D02*
D03*
X238500D02*
D03*
X49250Y232400D02*
D03*
X68250D02*
D03*
D23*
X147500Y64502D02*
D03*
Y50502D02*
D03*
X172500Y64502D02*
D03*
Y50502D02*
D03*
X197500Y64502D02*
D03*
Y50502D02*
D03*
X222500Y64502D02*
D03*
Y50502D02*
D03*
X75000Y34502D02*
D03*
Y20502D02*
D03*
X293000Y189998D02*
D03*
Y203998D02*
D03*
D24*
X400500Y170000D02*
D03*
Y160000D02*
D03*
X374500Y150000D02*
D03*
Y160000D02*
D03*
X348500Y170000D02*
D03*
Y160000D02*
D03*
X312000Y167500D02*
D03*
Y177500D02*
D03*
X320500Y123000D02*
D03*
Y133000D02*
D03*
X311500Y141000D02*
D03*
Y151000D02*
D03*
X122550Y217950D02*
D03*
Y207950D02*
D03*
X198000Y214000D02*
D03*
Y204000D02*
D03*
X50050Y72950D02*
D03*
Y82950D02*
D03*
X65050Y72950D02*
D03*
Y82950D02*
D03*
X304000Y199000D02*
D03*
Y189000D02*
D03*
X313000Y199000D02*
D03*
Y189000D02*
D03*
X322000Y199000D02*
D03*
Y189000D02*
D03*
X225000Y212000D02*
D03*
Y222000D02*
D03*
X80000Y221000D02*
D03*
Y211000D02*
D03*
X234000Y190000D02*
D03*
Y200000D02*
D03*
X89000Y211000D02*
D03*
Y221000D02*
D03*
X189000Y210000D02*
D03*
Y220000D02*
D03*
X171000Y220000D02*
D03*
Y210000D02*
D03*
X180000Y220000D02*
D03*
Y210000D02*
D03*
X162000Y220000D02*
D03*
Y210000D02*
D03*
X153000Y220000D02*
D03*
Y210000D02*
D03*
X106000Y91000D02*
D03*
Y81000D02*
D03*
X139000Y81000D02*
D03*
Y91000D02*
D03*
X80000Y128000D02*
D03*
Y138000D02*
D03*
X95000Y91000D02*
D03*
Y81000D02*
D03*
X128000Y91000D02*
D03*
Y81000D02*
D03*
X117250Y81000D02*
D03*
Y91000D02*
D03*
D25*
X392500Y160000D02*
D03*
X382500D02*
D03*
X366500D02*
D03*
X356500D02*
D03*
X322000D02*
D03*
X312000D02*
D03*
X340500D02*
D03*
X330500D02*
D03*
Y142000D02*
D03*
X320500D02*
D03*
X330500Y151000D02*
D03*
X320500D02*
D03*
X249000Y203000D02*
D03*
X259000D02*
D03*
X91000Y112000D02*
D03*
X101000D02*
D03*
X150000Y101000D02*
D03*
X160000D02*
D03*
X91000Y121000D02*
D03*
X101000D02*
D03*
X147500Y40000D02*
D03*
X157500D02*
D03*
X211000Y173000D02*
D03*
X221000D02*
D03*
X172500Y40000D02*
D03*
X182500D02*
D03*
X211008Y182000D02*
D03*
X221008D02*
D03*
X197500Y40000D02*
D03*
X207500D02*
D03*
X211000Y191000D02*
D03*
X221000D02*
D03*
X222500Y40000D02*
D03*
X232500D02*
D03*
X108000Y211000D02*
D03*
X98000D02*
D03*
X235000Y134000D02*
D03*
X225000D02*
D03*
X235000Y161000D02*
D03*
X225000D02*
D03*
X235000Y152000D02*
D03*
X225000D02*
D03*
X235000Y143000D02*
D03*
X225000D02*
D03*
X211000Y200000D02*
D03*
X221000D02*
D03*
X225000Y125000D02*
D03*
X235000D02*
D03*
D26*
X286000Y102000D02*
D03*
X269000D02*
D03*
Y116000D02*
D03*
X286000D02*
D03*
D27*
X276000Y218500D02*
D03*
Y191500D02*
D03*
D28*
X415750Y146000D02*
D03*
D29*
X431000Y131250D02*
D03*
Y160750D02*
D03*
D30*
X102382Y133250D02*
X114500D01*
X122550Y217950D02*
Y227450D01*
X128000Y178000D02*
X139000Y167000D01*
Y145000D02*
X150000Y156000D01*
X127500Y178500D02*
Y191250D01*
X127800D02*
Y216200D01*
X150000Y88000D02*
Y102999D01*
X290500Y131500D02*
Y139000D01*
X150000Y156000D02*
X157500Y148500D01*
X172500Y178500D02*
X185250D01*
X221008Y173008D02*
Y182000D01*
X198000Y214000D02*
X210000D01*
X274000Y155500D02*
Y168750D01*
X162000Y209000D02*
X163000Y210000D01*
X63750Y83002D02*
X67248D01*
X250000Y139000D02*
X262500D01*
X136000Y199868D02*
Y207000D01*
Y199868D02*
X137500Y198368D01*
X99500Y138500D02*
X114750D01*
X96000Y135000D02*
X99500Y138500D01*
X94632Y135000D02*
X96000D01*
X147400Y20800D02*
X153450D01*
X147500Y20900D02*
Y40000D01*
X172500Y21100D02*
X172800Y20800D01*
X172500Y21100D02*
Y40000D01*
X197500Y21500D02*
X198200Y20800D01*
X197500Y21500D02*
Y40000D01*
X222500Y21900D02*
X223600Y20800D01*
Y23702D01*
X222500Y21900D02*
Y40000D01*
X248000Y21800D02*
X249000Y20800D01*
X248000Y21800D02*
Y66950D01*
X274400Y20800D02*
Y45500D01*
X98132Y129000D02*
X102382Y133250D01*
X157500Y120750D02*
Y148500D01*
X128000Y134000D02*
X139000Y145000D01*
Y167000D02*
X150000Y156000D01*
X161000Y167000D01*
X172000Y178000D01*
X157500Y111500D02*
Y120750D01*
X127500Y133500D02*
X128000Y134000D01*
X127500Y178500D02*
X128000Y178000D01*
X152500Y191250D02*
Y198500D01*
X157000Y203000D01*
X148250Y192000D02*
Y199250D01*
X122550Y191300D02*
Y207950D01*
X142500Y191250D02*
Y201500D01*
X137500Y191250D02*
Y198368D01*
X244000Y169000D02*
X252500Y160500D01*
X237000Y169000D02*
X244000D01*
X235000Y161000D02*
X245000D01*
X250500Y155500D01*
X303000Y118000D02*
Y142000D01*
X250000Y125000D02*
X251000Y124000D01*
X249000Y125000D02*
X250000D01*
X249000Y125000D02*
X249000Y125000D01*
X235000Y125000D02*
X249000D01*
X251000Y119000D02*
Y124000D01*
X257500Y105000D02*
Y123000D01*
X294000Y102000D02*
X297250Y105250D01*
X301000Y150500D02*
X306500Y145000D01*
X299500Y145500D02*
X303000Y142000D01*
X297250Y105250D02*
Y124750D01*
X290500Y131500D02*
X297250Y124750D01*
X306500Y141632D02*
Y145000D01*
Y141632D02*
X307132Y141000D01*
X311500D01*
X248500Y150500D02*
X260750D01*
X248500Y145500D02*
X260750D01*
X250500Y155500D02*
X260750D01*
X274000Y137250D02*
Y138000D01*
X269000Y137250D02*
Y138000D01*
X271000Y180000D02*
X274000Y177000D01*
Y168750D02*
Y177000D01*
X291000Y167500D02*
X301500D01*
X293000Y203998D02*
Y213000D01*
X114750Y133500D02*
X127500D01*
X69000Y58000D02*
X75000D01*
X65050Y61950D02*
X69000Y58000D01*
X65050Y61950D02*
Y72950D01*
X76250Y64250D02*
X111500D01*
X72550Y67950D02*
X76250Y64250D01*
X66000Y52000D02*
X120000D01*
X57750Y60250D02*
X66000Y52000D01*
X120000D02*
X128000Y60000D01*
X72550Y67950D02*
Y80450D01*
X70050Y82950D02*
X72550Y80450D01*
X145000Y112000D02*
X151000D01*
X143000Y110000D02*
X145000Y112000D01*
X143000Y104000D02*
Y110000D01*
X139000Y100000D02*
X143000Y104000D01*
X221000Y97000D02*
Y115000D01*
X219000Y95000D02*
X221000Y97000D01*
X211000Y94868D02*
Y114000D01*
X210000Y82000D02*
X228000D01*
X212500Y85500D02*
X229450D01*
X211000Y94868D02*
X216868Y89000D01*
X230900D01*
X140000Y82000D02*
X157000D01*
X150000Y102999D02*
X150000Y102999D01*
X147400Y259400D02*
Y274800D01*
X146000Y258000D02*
X147400Y259400D01*
X172800Y258800D02*
Y274800D01*
X166250Y252250D02*
X172800Y258800D01*
X198200Y259200D02*
Y274800D01*
X186000Y246999D02*
X198200Y259200D01*
X223600Y259600D02*
Y274800D01*
X204249Y240250D02*
X223600Y259600D01*
X249000Y258000D02*
Y274800D01*
X242000Y251000D02*
X249000Y258000D01*
X274400Y257400D02*
Y274800D01*
X261750Y244750D02*
X274400Y257400D01*
X75601Y232400D02*
X80000Y228000D01*
X83000Y164000D02*
Y188000D01*
X75000Y156000D02*
X83000Y164000D01*
X49000Y156000D02*
X75000D01*
X76000Y170000D02*
Y182000D01*
X71000Y165000D02*
X76000Y170000D01*
X49000Y165000D02*
X71000D01*
X172800Y20800D02*
X174700D01*
X137000Y120250D02*
X137500Y120750D01*
X117250Y93002D02*
Y98000D01*
X120598Y101348D01*
X63750Y83002D02*
Y96500D01*
X63250Y97000D02*
X63750Y96500D01*
X51250Y96000D02*
X52250Y97000D01*
X111500Y64250D02*
X117250Y70000D01*
Y79002D01*
X51250Y83002D02*
Y96000D01*
X152500Y191250D02*
X153000Y191750D01*
X50050Y82950D02*
X55050D01*
X57750Y80250D01*
X65050Y82950D02*
X70050D01*
X147400Y20800D02*
X147500Y20900D01*
X147500Y50502D02*
X157500D01*
X172500D02*
X182500D01*
X197500D02*
X207500D01*
X222500D02*
X232500D01*
X157500Y75000D02*
X167500Y85000D01*
Y120750D01*
X172500Y85000D02*
Y120750D01*
Y85000D02*
X182500Y75000D01*
X157500Y40000D02*
Y50502D01*
Y75000D01*
X182500Y40000D02*
Y50502D01*
Y75000D01*
X207500Y40000D02*
Y50502D01*
X232500Y40000D02*
Y50502D01*
X294500Y160500D02*
X311500D01*
X312000Y160000D01*
Y167500D01*
X322000Y160000D02*
X330500D01*
Y151000D02*
X337500D01*
X340500Y154000D01*
Y160000D01*
X330500Y142000D02*
Y151000D01*
X311500D02*
X320500D01*
X311500Y151000D02*
X311500Y151000D01*
X294500Y150500D02*
X301000D01*
X320500Y133000D02*
Y142000D01*
X320500Y133000D02*
X320500Y133000D01*
X311500Y141000D02*
X319500D01*
X320500Y142000D01*
X340500Y160000D02*
X348500D01*
X356500D01*
X366500D02*
X374500D01*
X374500Y160000D01*
X382500D01*
X382500Y160000D01*
X392500D02*
X400500D01*
X282500Y127000D02*
X286000Y123500D01*
Y116000D02*
Y123500D01*
X257500Y123000D02*
X261500Y127000D01*
X257500Y105000D02*
X260500Y102000D01*
X269000D01*
X185250Y148500D02*
X194500D01*
X196000Y150000D01*
X185250Y153500D02*
X199500D01*
X211000Y165000D02*
Y171000D01*
X234000Y200000D02*
Y204000D01*
X238500Y208500D01*
X229000Y190000D02*
X234000D01*
X225000Y212000D02*
X237500D01*
X238500Y213000D01*
Y208500D02*
Y213000D01*
X128500Y93000D02*
Y96500D01*
X152500Y113500D02*
Y120750D01*
X139000Y91000D02*
Y100000D01*
X160000Y108000D02*
X162500Y110500D01*
Y120750D01*
X160000Y101000D02*
Y108000D01*
X154500Y108500D02*
X157500Y111500D01*
X151000Y112000D02*
X152500Y113500D01*
X150000Y103000D02*
Y107000D01*
X151500Y108500D01*
X154500D01*
X139000Y81000D02*
X140000Y82000D01*
X157000D02*
X160000Y85000D01*
X128500Y96500D02*
X137000Y105000D01*
Y120250D01*
X222000Y65002D02*
Y76000D01*
Y65002D02*
X222500Y64502D01*
X197000Y65002D02*
Y76000D01*
Y65002D02*
X197500Y64502D01*
X172000Y65002D02*
Y76000D01*
Y65002D02*
X172500Y64502D01*
X147500Y73500D02*
X150000Y76000D01*
X147500Y64502D02*
Y73500D01*
X106000Y91000D02*
Y99000D01*
X112348Y105348D01*
X95000Y81000D02*
X106000D01*
X80000Y221000D02*
X89000D01*
X80000Y221000D02*
X80000Y221000D01*
X80000Y221000D02*
Y228000D01*
X68250Y232400D02*
X75601D01*
X122500Y191250D02*
X122550Y191300D01*
X207500Y50502D02*
Y76500D01*
X202250Y81750D02*
X207500Y76500D01*
X232500Y50502D02*
Y77500D01*
X228000Y82000D02*
X232500Y77500D01*
X183250Y81750D02*
X202250D01*
X177500Y87500D02*
Y120750D01*
Y87500D02*
X183250Y81750D01*
X128000Y60000D02*
Y81000D01*
X82000Y80900D02*
Y86000D01*
X87000Y91000D01*
X95000D01*
X106000Y71000D02*
Y81000D01*
X112348Y105348D02*
X122348D01*
X127500Y110500D01*
Y120750D01*
X120598Y101348D02*
X126348D01*
X132500Y107500D01*
Y120750D01*
X261500Y127000D02*
X267000D01*
X269000Y129000D01*
X274000Y129000D02*
X276000Y127000D01*
X282500D01*
X244000Y203000D02*
X249000D01*
X243000Y202000D02*
X244000Y203000D01*
X243000Y193002D02*
Y202000D01*
Y193002D02*
X245002Y191000D01*
Y184002D02*
Y191000D01*
X286000Y102000D02*
X294000D01*
X304000Y199000D02*
X313000D01*
X322000D01*
X304000D02*
Y203000D01*
X303002Y203998D02*
X304000Y203000D01*
X293000Y203998D02*
X303002D01*
X185250Y128500D02*
X192500D01*
X185250Y133500D02*
X194000D01*
X185250Y138500D02*
X195500D01*
X197000Y137000D01*
X194000Y133500D02*
X196500Y131000D01*
X260750Y145500D02*
X261500D01*
X260750Y150500D02*
X261500D01*
X269000Y129000D02*
Y137250D01*
X260750Y155500D02*
X261500D01*
X274000Y129000D02*
Y137250D01*
X292250Y145500D02*
X299500D01*
X294500Y155500D02*
X302000D01*
X306500Y151000D01*
X311500D01*
X185250Y173500D02*
X185750Y174000D01*
X185250Y173500D02*
X190368D01*
X215000Y160000D02*
X224000D01*
X225000Y161000D01*
Y125000D02*
X225000Y125000D01*
X221008Y182000D02*
X243000D01*
X245002Y184002D01*
X221000Y173000D02*
X221008Y173008D01*
Y182000D02*
Y188992D01*
X221000Y189000D02*
X221008Y188992D01*
X228000Y191000D02*
X229000Y190000D01*
X228000Y191000D02*
Y198000D01*
X226000Y200000D02*
X228000Y198000D01*
X221000Y200000D02*
X226000D01*
X190368Y173500D02*
X197500Y180632D01*
X185250Y158500D02*
X198500D01*
X185250Y163500D02*
X198550D01*
X198500Y158500D02*
X205000Y165000D01*
X198550Y163500D02*
X201000Y165950D01*
X185250Y168500D02*
X193500D01*
X195000Y170000D01*
X221000Y173000D02*
X230000D01*
X230000Y173000D01*
X172000Y178000D02*
X172500Y178500D01*
X122550Y217950D02*
X126050D01*
X127800Y216200D01*
X127500Y191250D02*
X127800D01*
X103500Y128500D02*
X114750D01*
X100200Y122200D02*
X101000Y123000D01*
Y126000D01*
X103500Y128500D01*
X91000Y112000D02*
Y121000D01*
X101000Y112000D02*
Y121000D01*
X122500Y114500D02*
Y120750D01*
X101000Y112000D02*
X120000D01*
X122500Y114500D01*
X101000Y111000D02*
Y112000D01*
Y112000D01*
X80000Y124000D02*
X83000Y121000D01*
X91000D01*
X80000Y118000D02*
X83000Y121000D01*
X80000Y114000D02*
Y118000D01*
X153000Y204000D02*
Y210000D01*
X162000Y204000D02*
Y209000D01*
X157000Y203000D02*
X161000D01*
X162000Y204000D01*
X197500Y189500D02*
X208000Y200000D01*
X211000D01*
X197500Y180632D02*
Y189500D01*
X205000Y165000D02*
Y181000D01*
X206000Y182000D01*
X211008D01*
X201000Y165950D02*
Y188000D01*
X204000Y191000D01*
X211000D01*
X80000Y124000D02*
Y128000D01*
Y138000D02*
Y148500D01*
X89000Y211000D02*
X98000D01*
X98000Y211000D01*
X107500Y173500D02*
X114750D01*
X111000Y258000D02*
X146000D01*
X104000Y253000D02*
X104750Y252250D01*
X166250D01*
X107600Y163500D02*
X114750D01*
X107550Y168500D02*
X114750D01*
X105000Y176000D02*
X107500Y173500D01*
X105000Y176000D02*
Y194868D01*
X108000Y197868D01*
Y211000D01*
X85000Y199869D02*
Y200000D01*
X107550Y153500D02*
X114750D01*
X92000Y241000D02*
X92751Y240250D01*
X204249D01*
X98000Y246999D02*
X186000D01*
X162000Y220000D02*
Y225000D01*
X157000Y230000D02*
X162000Y225000D01*
X136000Y230000D02*
X157000D01*
X133000Y227000D02*
X136000Y230000D01*
X153000Y220000D02*
Y225000D01*
X151500Y226500D02*
X153000Y225000D01*
X142500Y226500D02*
X151500D01*
X141000Y225000D02*
X142500Y226500D01*
X141000Y222999D02*
Y225000D01*
X93601Y172400D02*
X107500Y158500D01*
X114750D01*
X90000Y171050D02*
X107550Y153500D01*
X114500Y133250D02*
X114750Y133500D01*
X101000Y175050D02*
X107550Y168500D01*
X101000Y175050D02*
Y200000D01*
X97101Y174000D02*
X107600Y163500D01*
X93601Y172400D02*
Y191268D01*
X90000Y171050D02*
Y189919D01*
X77000Y196000D02*
Y200000D01*
Y196000D02*
X78751Y194249D01*
X93000Y198000D02*
Y200000D01*
Y198000D02*
X97101Y193899D01*
Y174000D02*
Y193899D01*
X85000Y199869D02*
X93601Y191268D01*
X78751Y194249D02*
X85669D01*
X90000Y189919D01*
X199500Y153500D02*
X211000Y165000D01*
X185250Y143500D02*
X200000D01*
X225000Y152000D02*
X225000Y152000D01*
X210000Y152000D02*
X225000D01*
X209000Y143000D02*
X225000D01*
X196000Y150000D02*
X202000D01*
X209000Y143000D01*
X197000Y137000D02*
X207000D01*
X214000Y134000D02*
X225000D01*
X147500Y191250D02*
X148250Y192000D01*
X196500Y131000D02*
X211000D01*
X214000Y134000D01*
X213000Y125000D02*
X225000D01*
X203000Y95000D02*
Y114000D01*
Y95000D02*
X212500Y85500D01*
X229450D02*
X248000Y66950D01*
X230900Y89000D02*
X274400Y45500D01*
X148250Y199250D02*
X153000Y204000D01*
X197000Y95000D02*
X210000Y82000D01*
X197000Y95000D02*
Y124000D01*
X192500Y128500D02*
X197000Y124000D01*
X91000Y121000D02*
Y128000D01*
X92000Y129000D01*
X90500Y143500D02*
X114750D01*
X92000Y129000D02*
X98132D01*
X180000Y220000D02*
Y228000D01*
Y220000D02*
X180000Y220000D01*
X171000Y220000D02*
Y228000D01*
Y220000D02*
X171000Y220000D01*
X230500Y250500D02*
X231000Y251000D01*
X242000D01*
X224000Y245000D02*
X225000Y246000D01*
X224250Y244750D02*
X261750D01*
X224000Y245000D02*
X224250Y244750D01*
X57750Y60250D02*
Y80250D01*
X235000Y152000D02*
X247000D01*
X248500Y150500D01*
X252500Y160500D02*
X260750D01*
X235000Y143000D02*
X246000D01*
X248500Y145500D01*
X235000Y134000D02*
X245000D01*
X250000Y139000D01*
X269000Y116000D02*
X276000D01*
X277250Y114750D01*
X278000Y103000D02*
X279000Y102000D01*
X286000D01*
X278000Y103000D02*
Y108611D01*
X277250Y109361D02*
X278000Y108611D01*
X277250Y109361D02*
Y114750D01*
X274000Y155500D02*
X276500Y153000D01*
X160000Y85000D02*
Y101000D01*
X150000Y103000D02*
X150000Y103000D01*
X150000Y103000D02*
X150000Y102999D01*
X89000Y142000D02*
X90500Y143500D01*
X348500Y170000D02*
Y178500D01*
X374500Y141500D02*
Y150000D01*
X400500Y170000D02*
Y178500D01*
X320500Y114500D02*
Y123000D01*
X400500Y150500D02*
Y160000D01*
Y150500D02*
X405000Y146000D01*
X415750D01*
X431000Y160750D02*
Y171000D01*
Y121000D02*
Y131250D01*
X62000Y148000D02*
X62500Y148500D01*
X80000D01*
X114750D01*
D31*
X171000Y210000D02*
X189000D01*
X260000Y203000D02*
Y207000D01*
X189000Y220250D02*
X216750D01*
X259000Y193002D02*
X260502Y191500D01*
X177500Y191250D02*
Y199000D01*
X279000Y168750D02*
Y181000D01*
X322000Y189000D02*
X322500Y188500D01*
X293000Y189998D02*
X293998Y189000D01*
X304000D01*
X313000D02*
X322000D01*
X277502Y189998D02*
X293000D01*
X260502Y191500D02*
X276000D01*
X265500Y218500D02*
X276000D01*
X261625Y214625D02*
X265500Y218500D01*
X257500Y214625D02*
X261625D01*
X257500Y209500D02*
Y214625D01*
Y209500D02*
X260000Y207000D01*
X312000Y177500D02*
X313000Y178500D01*
Y189000D01*
X304000D02*
X313000D01*
X177500Y199000D02*
X179750Y201250D01*
X185250Y183500D02*
X192500D01*
X193500Y184500D01*
X276000Y191500D02*
X277502Y189998D01*
X279000Y188500D01*
Y181000D02*
X284000Y176000D01*
Y168750D02*
Y176000D01*
X279000Y181000D02*
Y188500D01*
X179750Y201250D02*
Y209750D01*
X180000Y210000D01*
X193500Y184500D02*
Y192500D01*
X198000Y197000D01*
Y204000D01*
X203000D01*
X206000Y207000D01*
X213000D01*
X217000Y211000D01*
Y220000D01*
X219000Y222000D01*
X225000D01*
X189000Y220000D02*
Y220250D01*
X216750D02*
X217000Y220000D01*
X171000Y210000D02*
X171000Y210000D01*
X225000Y222000D02*
Y234499D01*
X225000Y234499D01*
D32*
X58450Y20800D02*
X96600D01*
Y33600D01*
X67800Y274800D02*
X96600D01*
X59399Y211000D02*
X80000D01*
X38000Y109000D02*
Y201000D01*
Y109000D02*
X42000Y105000D01*
X38000Y201000D02*
X48649Y211649D01*
X38000Y97000D02*
Y101000D01*
X20400Y97000D02*
X38000D01*
Y41250D02*
Y97000D01*
Y41250D02*
X58450Y20800D01*
X38000Y101000D02*
X42000Y105000D01*
X96600Y33600D02*
X103000Y40000D01*
X125000D01*
X139000Y74000D02*
Y81000D01*
X125000Y40000D02*
X135000Y50000D01*
Y70000D02*
X139000Y74000D01*
X135000Y50000D02*
Y70000D01*
X49250Y232400D02*
Y256250D01*
X67800Y274800D01*
X58750Y211649D02*
Y238750D01*
Y211649D02*
X59399Y211000D01*
X48649Y211649D02*
X58750D01*
X100000Y105000D02*
X101000Y106000D01*
X42000Y105000D02*
X100000D01*
X101000Y106000D02*
Y111000D01*
X58750Y238750D02*
X62000Y242000D01*
X75000D01*
X82500Y234499D01*
X115000D01*
Y210000D02*
Y234499D01*
X117050Y207950D02*
X122550D01*
X115000Y210000D02*
X117050Y207950D01*
X190692Y234500D02*
X190693Y234499D01*
X115000D02*
X115000Y234500D01*
X190692D01*
X247125Y234499D02*
X248000Y235375D01*
X190693Y234499D02*
X225000D01*
X247125D01*
D33*
X122000Y20800D02*
D03*
Y800D02*
D03*
X147400Y20800D02*
D03*
Y800D02*
D03*
X172800Y20800D02*
D03*
Y800D02*
D03*
X198200Y20800D02*
D03*
Y800D02*
D03*
X223600Y20800D02*
D03*
Y800D02*
D03*
X249000Y20800D02*
D03*
Y800D02*
D03*
X274400Y20800D02*
D03*
Y800D02*
D03*
X96600D02*
D03*
X122000Y274800D02*
D03*
Y294800D02*
D03*
X147400Y274800D02*
D03*
Y294800D02*
D03*
X172800Y274800D02*
D03*
Y294800D02*
D03*
X198200Y274800D02*
D03*
Y294800D02*
D03*
X223600Y274800D02*
D03*
Y294800D02*
D03*
X249000Y274800D02*
D03*
Y294800D02*
D03*
X274400Y274800D02*
D03*
Y294800D02*
D03*
X96600D02*
D03*
X400Y224000D02*
D03*
Y71600D02*
D03*
X20400D02*
D03*
X400Y97000D02*
D03*
X20400D02*
D03*
X400Y122400D02*
D03*
X20400D02*
D03*
X400Y147800D02*
D03*
X20400D02*
D03*
X400Y173200D02*
D03*
X20400D02*
D03*
X400Y198600D02*
D03*
X20400D02*
D03*
D34*
X63250Y97000D02*
D03*
X52250D02*
D03*
D35*
X272000Y157500D02*
D03*
X281000D02*
D03*
X272000Y148500D02*
D03*
X281000D02*
D03*
X363199Y32549D02*
D03*
X370699Y17549D02*
D03*
X378199Y32549D02*
D03*
X385699Y17549D02*
D03*
X393199Y32549D02*
D03*
X400699Y17549D02*
D03*
X408199Y32549D02*
D03*
X415699Y17549D02*
D03*
X423199Y32549D02*
D03*
X430699Y17549D02*
D03*
X438199Y32549D02*
D03*
X445699Y17549D02*
D03*
X237000Y169000D02*
D03*
X303000Y118000D02*
D03*
X251000Y119000D02*
D03*
X271000Y180000D02*
D03*
X301500Y167500D02*
D03*
X293000Y213000D02*
D03*
X75000Y58000D02*
D03*
X143000Y110000D02*
D03*
X221000Y115000D02*
D03*
X219000Y95000D02*
D03*
X150000Y88000D02*
D03*
X49000Y156000D02*
D03*
Y165000D02*
D03*
X150000Y76000D02*
D03*
X172000D02*
D03*
X197000Y76000D02*
D03*
X222000D02*
D03*
X75000Y45000D02*
D03*
X82000Y80900D02*
D03*
X106000Y71000D02*
D03*
X215000Y160000D02*
D03*
X195000Y170000D02*
D03*
X230000Y173000D02*
D03*
X80000Y114000D02*
D03*
X210000Y214000D02*
D03*
X111000Y258000D02*
D03*
X92000Y241000D02*
D03*
X104000Y253000D02*
D03*
X77000Y200000D02*
D03*
X101000Y200000D02*
D03*
X93000D02*
D03*
X85000Y200000D02*
D03*
X98000Y246999D02*
D03*
X133000Y227000D02*
D03*
X141000Y222999D02*
D03*
X122550Y227450D02*
D03*
X83000Y188000D02*
D03*
X76000Y182000D02*
D03*
X200000Y143500D02*
D03*
X210000Y152000D02*
D03*
X207000Y137000D02*
D03*
X213000Y125000D02*
D03*
X203000Y114000D02*
D03*
X211000D02*
D03*
X142500Y201500D02*
D03*
X136000Y207000D02*
D03*
X180000Y228000D02*
D03*
X96000Y135000D02*
D03*
X171000Y228000D02*
D03*
X224000Y245000D02*
D03*
X230500Y250500D02*
D03*
X89000Y142000D02*
D03*
X348500Y178500D02*
D03*
X374500Y141500D02*
D03*
X400500Y178500D02*
D03*
X302750Y105250D02*
D03*
X431000Y171000D02*
D03*
Y121000D02*
D03*
X62000Y148000D02*
D03*
X25699Y17549D02*
D03*
X33199Y32549D02*
D03*
X25699Y47549D02*
D03*
X33199Y212549D02*
D03*
Y242549D02*
D03*
X25699Y257549D02*
D03*
X33199Y272549D02*
D03*
X40699Y17549D02*
D03*
X48199Y62549D02*
D03*
Y182549D02*
D03*
X40699Y257549D02*
D03*
X48199Y272549D02*
D03*
X63199Y32549D02*
D03*
X55699Y47549D02*
D03*
Y137549D02*
D03*
X63199Y182549D02*
D03*
X55699Y197549D02*
D03*
X78199Y92549D02*
D03*
X70699Y257549D02*
D03*
X85699D02*
D03*
X108199Y32549D02*
D03*
X138199D02*
D03*
X213199D02*
D03*
X243199Y92549D02*
D03*
X235699Y107549D02*
D03*
Y227549D02*
D03*
X250699Y77549D02*
D03*
X258199Y92549D02*
D03*
X250699Y107549D02*
D03*
X273199Y62549D02*
D03*
X265699Y77549D02*
D03*
X273199Y242549D02*
D03*
X288199Y32549D02*
D03*
X280699Y47549D02*
D03*
X288199Y62549D02*
D03*
X280699Y77549D02*
D03*
X288199Y242549D02*
D03*
X280699Y257549D02*
D03*
X288199Y272549D02*
D03*
X295699Y17549D02*
D03*
X303199Y32549D02*
D03*
X295699Y47549D02*
D03*
X303199Y62549D02*
D03*
X295699Y77549D02*
D03*
X303199Y92549D02*
D03*
X295699Y227549D02*
D03*
X303199Y242549D02*
D03*
X295699Y257549D02*
D03*
X303199Y272549D02*
D03*
X310699Y17549D02*
D03*
X318199Y32549D02*
D03*
X310699Y47549D02*
D03*
X318199Y62549D02*
D03*
X310699Y77549D02*
D03*
X318199Y92549D02*
D03*
X310699Y107549D02*
D03*
X318199Y212549D02*
D03*
X310699Y227549D02*
D03*
X318199Y242549D02*
D03*
X310699Y257549D02*
D03*
X318199Y272549D02*
D03*
X325699Y17549D02*
D03*
X333199Y32549D02*
D03*
X325699Y47549D02*
D03*
X333199Y62549D02*
D03*
X325699Y77549D02*
D03*
X333199Y92549D02*
D03*
X325699Y107549D02*
D03*
X333199Y122549D02*
D03*
X325699Y167549D02*
D03*
X333199Y182549D02*
D03*
Y212549D02*
D03*
X325699Y227549D02*
D03*
X333199Y242549D02*
D03*
X325699Y257549D02*
D03*
X333199Y272549D02*
D03*
X340699Y17549D02*
D03*
X348199Y32549D02*
D03*
X340699Y47549D02*
D03*
X348199Y62549D02*
D03*
X340699Y77549D02*
D03*
X348199Y92549D02*
D03*
X340699Y107549D02*
D03*
X348199Y122549D02*
D03*
X340699Y137549D02*
D03*
Y197549D02*
D03*
X348199Y212549D02*
D03*
X340699Y227549D02*
D03*
X348199Y242549D02*
D03*
X340699Y257549D02*
D03*
X348199Y272549D02*
D03*
X355699Y17549D02*
D03*
Y47549D02*
D03*
X363199Y62549D02*
D03*
X355699Y77549D02*
D03*
X363199Y92549D02*
D03*
X355699Y107549D02*
D03*
X363199Y122549D02*
D03*
X355699Y137549D02*
D03*
X363199Y182549D02*
D03*
X355699Y197549D02*
D03*
X363199Y212549D02*
D03*
X355699Y227549D02*
D03*
X363199Y242549D02*
D03*
X355699Y257549D02*
D03*
X363199Y272549D02*
D03*
X370699Y47549D02*
D03*
X378199Y62549D02*
D03*
X370699Y77549D02*
D03*
X378199Y92549D02*
D03*
X370699Y107549D02*
D03*
X378199Y122549D02*
D03*
Y182549D02*
D03*
X370699Y197549D02*
D03*
X378199Y212549D02*
D03*
X370699Y227549D02*
D03*
X378199Y242549D02*
D03*
X370699Y257549D02*
D03*
X378199Y272549D02*
D03*
X385699Y47549D02*
D03*
X393199Y62549D02*
D03*
X385699Y77549D02*
D03*
X393199Y92549D02*
D03*
X385699Y107549D02*
D03*
X393199Y122549D02*
D03*
X385699Y137549D02*
D03*
Y167549D02*
D03*
X393199Y182549D02*
D03*
X385699Y197549D02*
D03*
X393199Y212549D02*
D03*
X385699Y227549D02*
D03*
X393199Y242549D02*
D03*
X385699Y257549D02*
D03*
X393199Y272549D02*
D03*
X400699Y47549D02*
D03*
X408199Y62549D02*
D03*
X400699Y77549D02*
D03*
X408199Y92549D02*
D03*
X400699Y107549D02*
D03*
X408199Y122549D02*
D03*
X400699Y137549D02*
D03*
X408199Y182549D02*
D03*
X400699Y197549D02*
D03*
X408199Y212549D02*
D03*
X400699Y227549D02*
D03*
X408199Y242549D02*
D03*
X400699Y257549D02*
D03*
X408199Y272549D02*
D03*
X415699Y47549D02*
D03*
X423199Y62549D02*
D03*
X415699Y77549D02*
D03*
X423199Y92549D02*
D03*
X415699Y107549D02*
D03*
X423199Y182549D02*
D03*
X415699Y197549D02*
D03*
X423199Y212549D02*
D03*
X415699Y227549D02*
D03*
X423199Y242549D02*
D03*
X415699Y257549D02*
D03*
X423199Y272549D02*
D03*
X430699Y47549D02*
D03*
X438199Y62549D02*
D03*
X430699Y77549D02*
D03*
X438199Y92549D02*
D03*
X430699Y107549D02*
D03*
X438199Y182549D02*
D03*
X430699Y197549D02*
D03*
X438199Y212549D02*
D03*
X430699Y227549D02*
D03*
X438199Y242549D02*
D03*
X430699Y257549D02*
D03*
X438199Y272549D02*
D03*
X445699Y47549D02*
D03*
Y77549D02*
D03*
Y107549D02*
D03*
Y197549D02*
D03*
Y227549D02*
D03*
Y257549D02*
D03*
D36*
X172000Y178000D02*
D03*
Y167000D02*
D03*
Y156000D02*
D03*
Y145000D02*
D03*
Y134000D02*
D03*
X161000Y178000D02*
D03*
Y167000D02*
D03*
Y156000D02*
D03*
Y145000D02*
D03*
Y134000D02*
D03*
X150000Y178000D02*
D03*
Y167000D02*
D03*
Y156000D02*
D03*
Y145000D02*
D03*
Y134000D02*
D03*
X139000Y178000D02*
D03*
Y167000D02*
D03*
Y156000D02*
D03*
Y145000D02*
D03*
Y134000D02*
D03*
X128000Y178000D02*
D03*
Y167000D02*
D03*
Y156000D02*
D03*
Y145000D02*
D03*
Y134000D02*
D03*
M02*
