M48
;Layer_Color=9474304
;FILE_FORMAT=4:4
METRIC,LZ
;TYPE=PLATED
T1F00S00C0.3000
T2F00S00C0.5000
T3F00S00C0.9000
%
T01
X00360702Y00021552
X00380702
X00400702
X00420702
X00440702
X00450702Y00041552
X00430702
X00410702
X00390702
X00370702
X00350702
X00360702Y00061552
X00380702
X00400702
X00420702
X00440702
X00450702Y00081552
X00430702
X00425Y00095
X0044
X00450702Y00121552
X00400702Y00101552
X00375Y00105
X00360702Y00101552
X00370702Y00081552
X00390702
X00410702
X00350702
X00330702
X00321Y00077
X00320702Y00061552
X00340702
X00330702Y00041552
X00310702
X00290702
X00270702
X00280702Y00021552
X00300702
X00320702
X00340702
Y00101552
X00294Y000905
X0029775Y00064
X00259Y00078
X002725Y001105
Y001195
X002815
Y001105
X00303Y0013
X00248Y00132
X00229Y00131
X00221Y00128
X00215Y00111
X00208Y00117
X00216Y00091
X0021Y00083
X00203Y00088
X0019Y00083
X00193Y00058
X00218
X00167598Y00057598
X00149Y0006
X00154Y00074
X00145Y00079
X0015Y00108
X00161
X00172
Y00119
Y0013
X00161
Y00119
X0015
Y0013
X00139
Y00119
Y00108
X00128
Y00119
Y0013
X0009Y00129
X00084Y00136
X00089Y00116
X00095Y0011
X0008Y00106
X00084Y00096
Y00088
X00069Y00087
X00062Y00104
X00051Y00112
X00050702Y00121552
X00056Y00136
X00042
Y00049
X00081Y00057
X00085Y00069
X000985Y000505
X00134Y00046
X00016Y00024
X00260702Y00021552
Y00141552
X00269Y00144
X00259Y00154
X00237Y00151
X00233Y00142
X00240702Y00141552
X002Y00144
X00172Y00141
Y00152
X00161
Y00141
X0015
Y00152
X00139
Y00141
X00128
Y00152
X00132515Y00182
X00142Y00181
X00122Y00183
X00137Y00205
X00151Y00201
X00174Y00202
X00182
X00198Y00173
X00226Y00189
X00230702Y00201552
X00240702Y00221552
X00260702
X00280702
X00300702
X00320702
X00340702
X00330702Y00201552
X00310702
X00320702Y00181552
X00322Y00168
X00313
X00304Y00168
X00300702Y00181552
X00293Y00174
X00340702Y00181552
Y00141552
X00349Y00139
X0008Y00143743
X0008Y00152
X0008Y00161
X0008Y0017
X00068Y00167
X00040702Y00181552
X00037Y00205
X00020702Y00221552
X00030702Y00161552
X00350702
X00370702
X00390702
X00410702
X00430702
X00450702
X0044Y00144
X00425
X00401Y00139
X00380702Y00141552
X00360702
Y00181552
X00380702
X00400702
X00420702
X00440702
X00450702Y00201552
X00430702
X00410702
X00390702
X00370702
X00350702
X00360702Y00221552
X00380702
X00400702
X00420702
X00440702
T02
X0005225Y00071
X0006325
T03
X000004Y000456
X000204
Y00071
X000004
Y000964
X000204
Y001218
X000004
X000458Y000202
Y000002
X000712
Y000202
X000966
Y000002
X00122
Y000202
X001474
Y000002
X001728
Y000202
X001982
Y000002
X002236
Y000202
Y002234
Y002434
X001982
Y002234
X001728
Y002434
X001474
Y002234
X00122
Y002434
X000966
Y002234
X000712
Y002434
X000458
Y002234
X000204Y00198
X000004
Y001726
X000204
Y001472
X000004
M30
