G04 Layer_Color=8388736*
%FSLAX44Y44*%
%MOMM*%
G71*
G01*
G75*
%ADD40R,0.8000X0.8000*%
%ADD41R,0.8000X0.8000*%
%ADD42R,1.8000X1.8000*%
%ADD43O,0.3750X1.0500*%
%ADD44O,1.0500X0.3750*%
%ADD45R,5.7000X5.7000*%
%ADD46O,1.1000X0.3500*%
%ADD47O,0.3500X1.1000*%
%ADD48R,1.6000X1.6000*%
%ADD49R,1.6000X1.6000*%
%ADD50R,0.9000X1.0000*%
%ADD51R,0.7500X1.2000*%
%ADD52R,0.7500X1.0000*%
%ADD53R,1.0000X0.9000*%
%ADD54R,0.6000X0.7000*%
%ADD55R,0.7000X0.6000*%
%ADD56R,1.3000X1.2000*%
%ADD57R,1.8000X1.2000*%
%ADD58R,1.1500X1.1000*%
%ADD59R,2.3000X1.1500*%
%ADD60C,1.6000*%
%ADD61C,1.0000*%
D40*
X262000Y138500D02*
D03*
X291000Y167500D02*
D03*
D41*
X262000D02*
D03*
X291000Y138500D02*
D03*
D42*
X276500Y153000D02*
D03*
D43*
X284000Y137250D02*
D03*
X279000D02*
D03*
X274000D02*
D03*
X269000D02*
D03*
Y168750D02*
D03*
X274000D02*
D03*
X279000D02*
D03*
X284000D02*
D03*
D44*
X260750Y145500D02*
D03*
Y150500D02*
D03*
Y155500D02*
D03*
Y160500D02*
D03*
X292250D02*
D03*
Y155500D02*
D03*
Y150500D02*
D03*
Y145500D02*
D03*
D45*
X150000Y156000D02*
D03*
D46*
X114750Y128500D02*
D03*
Y133500D02*
D03*
Y138500D02*
D03*
Y143500D02*
D03*
Y148500D02*
D03*
Y153500D02*
D03*
Y158500D02*
D03*
Y163500D02*
D03*
Y168500D02*
D03*
Y173500D02*
D03*
Y178500D02*
D03*
Y183500D02*
D03*
X185250D02*
D03*
Y178500D02*
D03*
Y173500D02*
D03*
Y168500D02*
D03*
Y163500D02*
D03*
Y158500D02*
D03*
Y153500D02*
D03*
Y148500D02*
D03*
Y143500D02*
D03*
Y138500D02*
D03*
Y133500D02*
D03*
Y128500D02*
D03*
D47*
X122500Y191250D02*
D03*
X127500D02*
D03*
X132500D02*
D03*
X137500D02*
D03*
X142500D02*
D03*
X147500D02*
D03*
X152500D02*
D03*
X157500D02*
D03*
X162500D02*
D03*
X167500D02*
D03*
X172500D02*
D03*
X177500D02*
D03*
Y120750D02*
D03*
X172500D02*
D03*
X167500D02*
D03*
X162500D02*
D03*
X157500D02*
D03*
X152500D02*
D03*
X147500D02*
D03*
X142500D02*
D03*
X137500D02*
D03*
X132500D02*
D03*
X127500D02*
D03*
X122500D02*
D03*
D48*
X122000Y8300D02*
D03*
X147400D02*
D03*
X172800D02*
D03*
X198200D02*
D03*
X223600D02*
D03*
X249000D02*
D03*
X274400D02*
D03*
X96600D02*
D03*
X122000Y287300D02*
D03*
X147400D02*
D03*
X172800D02*
D03*
X198200D02*
D03*
X223600D02*
D03*
X249000D02*
D03*
X274400D02*
D03*
X96600D02*
D03*
Y20800D02*
D03*
Y274800D02*
D03*
D49*
X7900Y224000D02*
D03*
Y71600D02*
D03*
Y97000D02*
D03*
Y122400D02*
D03*
Y147800D02*
D03*
Y173200D02*
D03*
Y198600D02*
D03*
X20400Y224000D02*
D03*
D50*
X259002Y191000D02*
D03*
X245002D02*
D03*
D51*
X248000Y235375D02*
D03*
X58750Y211649D02*
D03*
D52*
X257500Y214625D02*
D03*
X238500D02*
D03*
X49250Y232400D02*
D03*
X68250D02*
D03*
D53*
X147500Y64502D02*
D03*
Y50502D02*
D03*
X172500Y64502D02*
D03*
Y50502D02*
D03*
X197500Y64502D02*
D03*
Y50502D02*
D03*
X222500Y64502D02*
D03*
Y50502D02*
D03*
X75000Y34502D02*
D03*
Y20502D02*
D03*
X293000Y189998D02*
D03*
Y203998D02*
D03*
D54*
X400500Y170000D02*
D03*
Y160000D02*
D03*
X374500Y150000D02*
D03*
Y160000D02*
D03*
X348500Y170000D02*
D03*
Y160000D02*
D03*
X312000Y167500D02*
D03*
Y177500D02*
D03*
X320500Y123000D02*
D03*
Y133000D02*
D03*
X311500Y141000D02*
D03*
Y151000D02*
D03*
X122550Y217950D02*
D03*
Y207950D02*
D03*
X198000Y214000D02*
D03*
Y204000D02*
D03*
X50050Y72950D02*
D03*
Y82950D02*
D03*
X65050Y72950D02*
D03*
Y82950D02*
D03*
X304000Y199000D02*
D03*
Y189000D02*
D03*
X313000Y199000D02*
D03*
Y189000D02*
D03*
X322000Y199000D02*
D03*
Y189000D02*
D03*
X225000Y212000D02*
D03*
Y222000D02*
D03*
X80000Y221000D02*
D03*
Y211000D02*
D03*
X234000Y190000D02*
D03*
Y200000D02*
D03*
X89000Y211000D02*
D03*
Y221000D02*
D03*
X189000Y210000D02*
D03*
Y220000D02*
D03*
X171000Y220000D02*
D03*
Y210000D02*
D03*
X180000Y220000D02*
D03*
Y210000D02*
D03*
X162000Y220000D02*
D03*
Y210000D02*
D03*
X153000Y220000D02*
D03*
Y210000D02*
D03*
X106000Y91000D02*
D03*
Y81000D02*
D03*
X139000Y81000D02*
D03*
Y91000D02*
D03*
X80000Y128000D02*
D03*
Y138000D02*
D03*
X95000Y91000D02*
D03*
Y81000D02*
D03*
X128000Y91000D02*
D03*
Y81000D02*
D03*
X117250Y81000D02*
D03*
Y91000D02*
D03*
D55*
X392500Y160000D02*
D03*
X382500D02*
D03*
X366500D02*
D03*
X356500D02*
D03*
X322000D02*
D03*
X312000D02*
D03*
X340500D02*
D03*
X330500D02*
D03*
Y142000D02*
D03*
X320500D02*
D03*
X330500Y151000D02*
D03*
X320500D02*
D03*
X249000Y203000D02*
D03*
X259000D02*
D03*
X91000Y112000D02*
D03*
X101000D02*
D03*
X150000Y101000D02*
D03*
X160000D02*
D03*
X91000Y121000D02*
D03*
X101000D02*
D03*
X147500Y40000D02*
D03*
X157500D02*
D03*
X211000Y173000D02*
D03*
X221000D02*
D03*
X172500Y40000D02*
D03*
X182500D02*
D03*
X211008Y182000D02*
D03*
X221008D02*
D03*
X197500Y40000D02*
D03*
X207500D02*
D03*
X211000Y191000D02*
D03*
X221000D02*
D03*
X222500Y40000D02*
D03*
X232500D02*
D03*
X108000Y211000D02*
D03*
X98000D02*
D03*
X235000Y134000D02*
D03*
X225000D02*
D03*
X235000Y161000D02*
D03*
X225000D02*
D03*
X235000Y152000D02*
D03*
X225000D02*
D03*
X235000Y143000D02*
D03*
X225000D02*
D03*
X211000Y200000D02*
D03*
X221000D02*
D03*
X225000Y125000D02*
D03*
X235000D02*
D03*
D56*
X286000Y102000D02*
D03*
X269000D02*
D03*
Y116000D02*
D03*
X286000D02*
D03*
D57*
X276000Y218500D02*
D03*
Y191500D02*
D03*
D58*
X415750Y146000D02*
D03*
D59*
X431000Y131250D02*
D03*
Y160750D02*
D03*
D60*
X122000Y20800D02*
D03*
Y800D02*
D03*
X147400Y20800D02*
D03*
Y800D02*
D03*
X172800Y20800D02*
D03*
Y800D02*
D03*
X198200Y20800D02*
D03*
Y800D02*
D03*
X223600Y20800D02*
D03*
Y800D02*
D03*
X249000Y20800D02*
D03*
Y800D02*
D03*
X274400Y20800D02*
D03*
Y800D02*
D03*
X96600D02*
D03*
X122000Y274800D02*
D03*
Y294800D02*
D03*
X147400Y274800D02*
D03*
Y294800D02*
D03*
X172800Y274800D02*
D03*
Y294800D02*
D03*
X198200Y274800D02*
D03*
Y294800D02*
D03*
X223600Y274800D02*
D03*
Y294800D02*
D03*
X249000Y274800D02*
D03*
Y294800D02*
D03*
X274400Y274800D02*
D03*
Y294800D02*
D03*
X96600D02*
D03*
X400Y224000D02*
D03*
Y71600D02*
D03*
X20400D02*
D03*
X400Y97000D02*
D03*
X20400D02*
D03*
X400Y122400D02*
D03*
X20400D02*
D03*
X400Y147800D02*
D03*
X20400D02*
D03*
X400Y173200D02*
D03*
X20400D02*
D03*
X400Y198600D02*
D03*
X20400D02*
D03*
D61*
X63250Y97000D02*
D03*
X52250D02*
D03*
M02*
