G04 Layer_Color=2752767*
%FSLAX44Y44*%
%MOMM*%
G71*
G01*
G75*
%ADD66C,0.0508*%
%ADD67C,0.0677*%
D66*
X94568Y18768D02*
Y22832D01*
X98632D01*
Y18768D01*
X94568D01*
X119968D02*
Y22832D01*
X124032D01*
Y18768D01*
X119968D01*
Y-1232D02*
Y2832D01*
X124032D01*
Y-1232D01*
X119968D01*
X145368Y18768D02*
Y22832D01*
X149432D01*
Y18768D01*
X145368D01*
Y-1232D02*
Y2832D01*
X149432D01*
Y-1232D01*
X145368D01*
X170768Y18768D02*
Y22832D01*
X174832D01*
Y18768D01*
X170768D01*
Y-1232D02*
Y2832D01*
X174832D01*
Y-1232D01*
X170768D01*
X196168Y18768D02*
Y22832D01*
X200232D01*
Y18768D01*
X196168D01*
Y-1232D02*
Y2832D01*
X200232D01*
Y-1232D01*
X196168D01*
X221568Y18768D02*
Y22832D01*
X225632D01*
Y18768D01*
X221568D01*
Y-1232D02*
Y2832D01*
X225632D01*
Y-1232D01*
X221568D01*
X246968Y18768D02*
Y22832D01*
X251032D01*
Y18768D01*
X246968D01*
Y-1232D02*
Y2832D01*
X251032D01*
Y-1232D01*
X246968D01*
X272368Y18768D02*
Y22832D01*
X276432D01*
Y18768D01*
X272368D01*
Y-1232D02*
Y2832D01*
X276432D01*
Y-1232D01*
X272368D01*
X94568D02*
Y2832D01*
X98632D01*
Y-1232D01*
X94568D01*
Y272768D02*
Y276832D01*
X98632D01*
Y272768D01*
X94568D01*
X119968D02*
Y276832D01*
X124032D01*
Y272768D01*
X119968D01*
Y292768D02*
Y296832D01*
X124032D01*
Y292768D01*
X119968D01*
X145368Y272768D02*
Y276832D01*
X149432D01*
Y272768D01*
X145368D01*
Y292768D02*
Y296832D01*
X149432D01*
Y292768D01*
X145368D01*
X170768Y272768D02*
Y276832D01*
X174832D01*
Y272768D01*
X170768D01*
Y292768D02*
Y296832D01*
X174832D01*
Y292768D01*
X170768D01*
X196168Y272768D02*
Y276832D01*
X200232D01*
Y272768D01*
X196168D01*
Y292768D02*
Y296832D01*
X200232D01*
Y292768D01*
X196168D01*
X221568Y272768D02*
Y276832D01*
X225632D01*
Y272768D01*
X221568D01*
Y292768D02*
Y296832D01*
X225632D01*
Y292768D01*
X221568D01*
X246968Y272768D02*
Y276832D01*
X251032D01*
Y272768D01*
X246968D01*
Y292768D02*
Y296832D01*
X251032D01*
Y292768D01*
X246968D01*
X272368Y272768D02*
Y276832D01*
X276432D01*
Y272768D01*
X272368D01*
Y292768D02*
Y296832D01*
X276432D01*
Y292768D01*
X272368D01*
X94568D02*
Y296832D01*
X98632D01*
Y292768D01*
X94568D01*
X-1632Y221968D02*
Y226032D01*
X2432D01*
Y221968D01*
X-1632D01*
Y69568D02*
Y73632D01*
X2432D01*
Y69568D01*
X-1632D01*
X18368D02*
Y73632D01*
X22432D01*
Y69568D01*
X18368D01*
X-1632Y94968D02*
Y99032D01*
X2432D01*
Y94968D01*
X-1632D01*
X18368D02*
Y99032D01*
X22432D01*
Y94968D01*
X18368D01*
X-1632Y120368D02*
Y124432D01*
X2432D01*
Y120368D01*
X-1632D01*
X18368D02*
Y124432D01*
X22432D01*
Y120368D01*
X18368D01*
X-1632Y145768D02*
Y149832D01*
X2432D01*
Y145768D01*
X-1632D01*
X18368D02*
Y149832D01*
X22432D01*
Y145768D01*
X18368D01*
X-1632Y171168D02*
Y175232D01*
X2432D01*
Y171168D01*
X-1632D01*
X18368D02*
Y175232D01*
X22432D01*
Y171168D01*
X18368D01*
X-1632Y196568D02*
Y200632D01*
X2432D01*
Y196568D01*
X-1632D01*
X18368D02*
Y200632D01*
X22432D01*
Y196568D01*
X18368D01*
Y221968D02*
Y226032D01*
X22432D01*
Y221968D01*
X18368D01*
X63250Y94968D02*
X61218Y99032D01*
X65282D01*
X63250Y94968D01*
X52250D02*
X50218Y99032D01*
X54282D01*
X52250Y94968D01*
X363199Y30517D02*
X364215Y31533D01*
X365231D01*
X364215Y32549D01*
X365231Y33565D01*
X364215D01*
X363199Y34581D01*
X362183Y33565D01*
X361167D01*
X362183Y32549D01*
X361167Y31533D01*
X362183D01*
X363199Y30517D01*
X370699Y15517D02*
X371715Y16533D01*
X372731D01*
X371715Y17549D01*
X372731Y18565D01*
X371715D01*
X370699Y19581D01*
X369683Y18565D01*
X368667D01*
X369683Y17549D01*
X368667Y16533D01*
X369683D01*
X370699Y15517D01*
X378199Y30517D02*
X379215Y31533D01*
X380231D01*
X379215Y32549D01*
X380231Y33565D01*
X379215D01*
X378199Y34581D01*
X377183Y33565D01*
X376167D01*
X377183Y32549D01*
X376167Y31533D01*
X377183D01*
X378199Y30517D01*
X385699Y15517D02*
X386715Y16533D01*
X387731D01*
X386715Y17549D01*
X387731Y18565D01*
X386715D01*
X385699Y19581D01*
X384683Y18565D01*
X383667D01*
X384683Y17549D01*
X383667Y16533D01*
X384683D01*
X385699Y15517D01*
X393199Y30517D02*
X394215Y31533D01*
X395231D01*
X394215Y32549D01*
X395231Y33565D01*
X394215D01*
X393199Y34581D01*
X392183Y33565D01*
X391167D01*
X392183Y32549D01*
X391167Y31533D01*
X392183D01*
X393199Y30517D01*
X400699Y15517D02*
X401715Y16533D01*
X402731D01*
X401715Y17549D01*
X402731Y18565D01*
X401715D01*
X400699Y19581D01*
X399683Y18565D01*
X398667D01*
X399683Y17549D01*
X398667Y16533D01*
X399683D01*
X400699Y15517D01*
X408199Y30517D02*
X409215Y31533D01*
X410231D01*
X409215Y32549D01*
X410231Y33565D01*
X409215D01*
X408199Y34581D01*
X407183Y33565D01*
X406167D01*
X407183Y32549D01*
X406167Y31533D01*
X407183D01*
X408199Y30517D01*
X415699Y15517D02*
X416715Y16533D01*
X417731D01*
X416715Y17549D01*
X417731Y18565D01*
X416715D01*
X415699Y19581D01*
X414683Y18565D01*
X413667D01*
X414683Y17549D01*
X413667Y16533D01*
X414683D01*
X415699Y15517D01*
X423199Y30517D02*
X424215Y31533D01*
X425231D01*
X424215Y32549D01*
X425231Y33565D01*
X424215D01*
X423199Y34581D01*
X422183Y33565D01*
X421167D01*
X422183Y32549D01*
X421167Y31533D01*
X422183D01*
X423199Y30517D01*
X430699Y15517D02*
X431715Y16533D01*
X432731D01*
X431715Y17549D01*
X432731Y18565D01*
X431715D01*
X430699Y19581D01*
X429683Y18565D01*
X428667D01*
X429683Y17549D01*
X428667Y16533D01*
X429683D01*
X430699Y15517D01*
X438199Y30517D02*
X439215Y31533D01*
X440231D01*
X439215Y32549D01*
X440231Y33565D01*
X439215D01*
X438199Y34581D01*
X437183Y33565D01*
X436167D01*
X437183Y32549D01*
X436167Y31533D01*
X437183D01*
X438199Y30517D01*
X445699Y15517D02*
X446715Y16533D01*
X447731D01*
X446715Y17549D01*
X447731Y18565D01*
X446715D01*
X445699Y19581D01*
X444683Y18565D01*
X443667D01*
X444683Y17549D01*
X443667Y16533D01*
X444683D01*
X445699Y15517D01*
X237000Y166968D02*
X238016Y167984D01*
X239032D01*
X238016Y169000D01*
X239032Y170016D01*
X238016D01*
X237000Y171032D01*
X235984Y170016D01*
X234968D01*
X235984Y169000D01*
X234968Y167984D01*
X235984D01*
X237000Y166968D01*
X303000Y115968D02*
X304016Y116984D01*
X305032D01*
X304016Y118000D01*
X305032Y119016D01*
X304016D01*
X303000Y120032D01*
X301984Y119016D01*
X300968D01*
X301984Y118000D01*
X300968Y116984D01*
X301984D01*
X303000Y115968D01*
X251000Y116968D02*
X252016Y117984D01*
X253032D01*
X252016Y119000D01*
X253032Y120016D01*
X252016D01*
X251000Y121032D01*
X249984Y120016D01*
X248968D01*
X249984Y119000D01*
X248968Y117984D01*
X249984D01*
X251000Y116968D01*
X271000Y177968D02*
X272016Y178984D01*
X273032D01*
X272016Y180000D01*
X273032Y181016D01*
X272016D01*
X271000Y182032D01*
X269984Y181016D01*
X268968D01*
X269984Y180000D01*
X268968Y178984D01*
X269984D01*
X271000Y177968D01*
X301500Y165468D02*
X302516Y166484D01*
X303532D01*
X302516Y167500D01*
X303532Y168516D01*
X302516D01*
X301500Y169532D01*
X300484Y168516D01*
X299468D01*
X300484Y167500D01*
X299468Y166484D01*
X300484D01*
X301500Y165468D01*
X293000Y210968D02*
X294016Y211984D01*
X295032D01*
X294016Y213000D01*
X295032Y214016D01*
X294016D01*
X293000Y215032D01*
X291984Y214016D01*
X290968D01*
X291984Y213000D01*
X290968Y211984D01*
X291984D01*
X293000Y210968D01*
X75000Y55968D02*
X76016Y56984D01*
X77032D01*
X76016Y58000D01*
X77032Y59016D01*
X76016D01*
X75000Y60032D01*
X73984Y59016D01*
X72968D01*
X73984Y58000D01*
X72968Y56984D01*
X73984D01*
X75000Y55968D01*
X143000Y107968D02*
X144016Y108984D01*
X145032D01*
X144016Y110000D01*
X145032Y111016D01*
X144016D01*
X143000Y112032D01*
X141984Y111016D01*
X140968D01*
X141984Y110000D01*
X140968Y108984D01*
X141984D01*
X143000Y107968D01*
X221000Y112968D02*
X222016Y113984D01*
X223032D01*
X222016Y115000D01*
X223032Y116016D01*
X222016D01*
X221000Y117032D01*
X219984Y116016D01*
X218968D01*
X219984Y115000D01*
X218968Y113984D01*
X219984D01*
X221000Y112968D01*
X219000Y92968D02*
X220016Y93984D01*
X221032D01*
X220016Y95000D01*
X221032Y96016D01*
X220016D01*
X219000Y97032D01*
X217984Y96016D01*
X216968D01*
X217984Y95000D01*
X216968Y93984D01*
X217984D01*
X219000Y92968D01*
X150000Y85968D02*
X151016Y86984D01*
X152032D01*
X151016Y88000D01*
X152032Y89016D01*
X151016D01*
X150000Y90032D01*
X148984Y89016D01*
X147968D01*
X148984Y88000D01*
X147968Y86984D01*
X148984D01*
X150000Y85968D01*
X49000Y153968D02*
X50016Y154984D01*
X51032D01*
X50016Y156000D01*
X51032Y157016D01*
X50016D01*
X49000Y158032D01*
X47984Y157016D01*
X46968D01*
X47984Y156000D01*
X46968Y154984D01*
X47984D01*
X49000Y153968D01*
Y162968D02*
X50016Y163984D01*
X51032D01*
X50016Y165000D01*
X51032Y166016D01*
X50016D01*
X49000Y167032D01*
X47984Y166016D01*
X46968D01*
X47984Y165000D01*
X46968Y163984D01*
X47984D01*
X49000Y162968D01*
X-615300Y-230482D02*
X-614284Y-229466D01*
X-613268D01*
X-614284Y-228450D01*
X-613268Y-227434D01*
X-614284D01*
X-615300Y-226418D01*
X-616316Y-227434D01*
X-617332D01*
X-616316Y-228450D01*
X-617332Y-229466D01*
X-616316D01*
X-615300Y-230482D01*
X169968Y175968D02*
X170984Y178000D01*
X169968Y180032D01*
X172000Y179016D01*
X174032Y180032D01*
X173016Y178000D01*
X174032Y175968D01*
X172000Y176984D01*
X169968Y175968D01*
Y164968D02*
X170984Y167000D01*
X169968Y169032D01*
X172000Y168016D01*
X174032Y169032D01*
X173016Y167000D01*
X174032Y164968D01*
X172000Y165984D01*
X169968Y164968D01*
Y153968D02*
X170984Y156000D01*
X169968Y158032D01*
X172000Y157016D01*
X174032Y158032D01*
X173016Y156000D01*
X174032Y153968D01*
X172000Y154984D01*
X169968Y153968D01*
Y142968D02*
X170984Y145000D01*
X169968Y147032D01*
X172000Y146016D01*
X174032Y147032D01*
X173016Y145000D01*
X174032Y142968D01*
X172000Y143984D01*
X169968Y142968D01*
Y131968D02*
X170984Y134000D01*
X169968Y136032D01*
X172000Y135016D01*
X174032Y136032D01*
X173016Y134000D01*
X174032Y131968D01*
X172000Y132984D01*
X169968Y131968D01*
X158968Y175968D02*
X159984Y178000D01*
X158968Y180032D01*
X161000Y179016D01*
X163032Y180032D01*
X162016Y178000D01*
X163032Y175968D01*
X161000Y176984D01*
X158968Y175968D01*
Y164968D02*
X159984Y167000D01*
X158968Y169032D01*
X161000Y168016D01*
X163032Y169032D01*
X162016Y167000D01*
X163032Y164968D01*
X161000Y165984D01*
X158968Y164968D01*
Y153968D02*
X159984Y156000D01*
X158968Y158032D01*
X161000Y157016D01*
X163032Y158032D01*
X162016Y156000D01*
X163032Y153968D01*
X161000Y154984D01*
X158968Y153968D01*
Y142968D02*
X159984Y145000D01*
X158968Y147032D01*
X161000Y146016D01*
X163032Y147032D01*
X162016Y145000D01*
X163032Y142968D01*
X161000Y143984D01*
X158968Y142968D01*
Y131968D02*
X159984Y134000D01*
X158968Y136032D01*
X161000Y135016D01*
X163032Y136032D01*
X162016Y134000D01*
X163032Y131968D01*
X161000Y132984D01*
X158968Y131968D01*
X147968Y175968D02*
X148984Y178000D01*
X147968Y180032D01*
X150000Y179016D01*
X152032Y180032D01*
X151016Y178000D01*
X152032Y175968D01*
X150000Y176984D01*
X147968Y175968D01*
Y164968D02*
X148984Y167000D01*
X147968Y169032D01*
X150000Y168016D01*
X152032Y169032D01*
X151016Y167000D01*
X152032Y164968D01*
X150000Y165984D01*
X147968Y164968D01*
Y153968D02*
X148984Y156000D01*
X147968Y158032D01*
X150000Y157016D01*
X152032Y158032D01*
X151016Y156000D01*
X152032Y153968D01*
X150000Y154984D01*
X147968Y153968D01*
Y142968D02*
X148984Y145000D01*
X147968Y147032D01*
X150000Y146016D01*
X152032Y147032D01*
X151016Y145000D01*
X152032Y142968D01*
X150000Y143984D01*
X147968Y142968D01*
Y131968D02*
X148984Y134000D01*
X147968Y136032D01*
X150000Y135016D01*
X152032Y136032D01*
X151016Y134000D01*
X152032Y131968D01*
X150000Y132984D01*
X147968Y131968D01*
X136968Y175968D02*
X137984Y178000D01*
X136968Y180032D01*
X139000Y179016D01*
X141032Y180032D01*
X140016Y178000D01*
X141032Y175968D01*
X139000Y176984D01*
X136968Y175968D01*
Y164968D02*
X137984Y167000D01*
X136968Y169032D01*
X139000Y168016D01*
X141032Y169032D01*
X140016Y167000D01*
X141032Y164968D01*
X139000Y165984D01*
X136968Y164968D01*
Y153968D02*
X137984Y156000D01*
X136968Y158032D01*
X139000Y157016D01*
X141032Y158032D01*
X140016Y156000D01*
X141032Y153968D01*
X139000Y154984D01*
X136968Y153968D01*
Y142968D02*
X137984Y145000D01*
X136968Y147032D01*
X139000Y146016D01*
X141032Y147032D01*
X140016Y145000D01*
X141032Y142968D01*
X139000Y143984D01*
X136968Y142968D01*
Y131968D02*
X137984Y134000D01*
X136968Y136032D01*
X139000Y135016D01*
X141032Y136032D01*
X140016Y134000D01*
X141032Y131968D01*
X139000Y132984D01*
X136968Y131968D01*
X125968Y153968D02*
X126984Y156000D01*
X125968Y158032D01*
X128000Y157016D01*
X130032Y158032D01*
X129016Y156000D01*
X130032Y153968D01*
X128000Y154984D01*
X125968Y153968D01*
Y142968D02*
X126984Y145000D01*
X125968Y147032D01*
X128000Y146016D01*
X130032Y147032D01*
X129016Y145000D01*
X130032Y142968D01*
X128000Y143984D01*
X125968Y142968D01*
Y131968D02*
X126984Y134000D01*
X125968Y136032D01*
X128000Y135016D01*
X130032Y136032D01*
X129016Y134000D01*
X130032Y131968D01*
X128000Y132984D01*
X125968Y131968D01*
X150000Y73968D02*
X151016Y74984D01*
X152032D01*
X151016Y76000D01*
X152032Y77016D01*
X151016D01*
X150000Y78032D01*
X148984Y77016D01*
X147968D01*
X148984Y76000D01*
X147968Y74984D01*
X148984D01*
X150000Y73968D01*
X172000D02*
X173016Y74984D01*
X174032D01*
X173016Y76000D01*
X174032Y77016D01*
X173016D01*
X172000Y78032D01*
X170984Y77016D01*
X169968D01*
X170984Y76000D01*
X169968Y74984D01*
X170984D01*
X172000Y73968D01*
X197000Y73968D02*
X198016Y74984D01*
X199032D01*
X198016Y76000D01*
X199032Y77016D01*
X198016D01*
X197000Y78032D01*
X195984Y77016D01*
X194968D01*
X195984Y76000D01*
X194968Y74984D01*
X195984D01*
X197000Y73968D01*
X222000D02*
X223016Y74984D01*
X224032D01*
X223016Y76000D01*
X224032Y77016D01*
X223016D01*
X222000Y78032D01*
X220984Y77016D01*
X219968D01*
X220984Y76000D01*
X219968Y74984D01*
X220984D01*
X222000Y73968D01*
X75000Y42968D02*
X76016Y43984D01*
X77032D01*
X76016Y45000D01*
X77032Y46016D01*
X76016D01*
X75000Y47032D01*
X73984Y46016D01*
X72968D01*
X73984Y45000D01*
X72968Y43984D01*
X73984D01*
X75000Y42968D01*
X82000Y78868D02*
X83016Y79884D01*
X84032D01*
X83016Y80900D01*
X84032Y81916D01*
X83016D01*
X82000Y82932D01*
X80984Y81916D01*
X79968D01*
X80984Y80900D01*
X79968Y79884D01*
X80984D01*
X82000Y78868D01*
X106000Y68968D02*
X107016Y69984D01*
X108032D01*
X107016Y71000D01*
X108032Y72016D01*
X107016D01*
X106000Y73032D01*
X104984Y72016D01*
X103968D01*
X104984Y71000D01*
X103968Y69984D01*
X104984D01*
X106000Y68968D01*
X215000Y157968D02*
X216016Y158984D01*
X217032D01*
X216016Y160000D01*
X217032Y161016D01*
X216016D01*
X215000Y162032D01*
X213984Y161016D01*
X212968D01*
X213984Y160000D01*
X212968Y158984D01*
X213984D01*
X215000Y157968D01*
X272000Y155468D02*
X273016Y156484D01*
X274032D01*
X273016Y157500D01*
X274032Y158516D01*
X273016D01*
X272000Y159532D01*
X270984Y158516D01*
X269968D01*
X270984Y157500D01*
X269968Y156484D01*
X270984D01*
X272000Y155468D01*
X281000D02*
X282016Y156484D01*
X283032D01*
X282016Y157500D01*
X283032Y158516D01*
X282016D01*
X281000Y159532D01*
X279984Y158516D01*
X278968D01*
X279984Y157500D01*
X278968Y156484D01*
X279984D01*
X281000Y155468D01*
X272000Y146468D02*
X273016Y147484D01*
X274032D01*
X273016Y148500D01*
X274032Y149516D01*
X273016D01*
X272000Y150532D01*
X270984Y149516D01*
X269968D01*
X270984Y148500D01*
X269968Y147484D01*
X270984D01*
X272000Y146468D01*
X281000D02*
X282016Y147484D01*
X283032D01*
X282016Y148500D01*
X283032Y149516D01*
X282016D01*
X281000Y150532D01*
X279984Y149516D01*
X278968D01*
X279984Y148500D01*
X278968Y147484D01*
X279984D01*
X281000Y146468D01*
X195000Y167968D02*
X196016Y168984D01*
X197032D01*
X196016Y170000D01*
X197032Y171016D01*
X196016D01*
X195000Y172032D01*
X193984Y171016D01*
X192968D01*
X193984Y170000D01*
X192968Y168984D01*
X193984D01*
X195000Y167968D01*
X230000Y170968D02*
X231016Y171984D01*
X232032D01*
X231016Y173000D01*
X232032Y174016D01*
X231016D01*
X230000Y175032D01*
X228984Y174016D01*
X227968D01*
X228984Y173000D01*
X227968Y171984D01*
X228984D01*
X230000Y170968D01*
X125968Y175968D02*
X126984Y178000D01*
X125968Y180032D01*
X128000Y179016D01*
X130032Y180032D01*
X129016Y178000D01*
X130032Y175968D01*
X128000Y176984D01*
X125968Y175968D01*
Y164968D02*
X126984Y167000D01*
X125968Y169032D01*
X128000Y168016D01*
X130032Y169032D01*
X129016Y167000D01*
X130032Y164968D01*
X128000Y165984D01*
X125968Y164968D01*
X80000Y111968D02*
X81016Y112984D01*
X82032D01*
X81016Y114000D01*
X82032Y115016D01*
X81016D01*
X80000Y116032D01*
X78984Y115016D01*
X77968D01*
X78984Y114000D01*
X77968Y112984D01*
X78984D01*
X80000Y111968D01*
X210000Y211968D02*
X211016Y212984D01*
X212032D01*
X211016Y214000D01*
X212032Y215016D01*
X211016D01*
X210000Y216032D01*
X208984Y215016D01*
X207968D01*
X208984Y214000D01*
X207968Y212984D01*
X208984D01*
X210000Y211968D01*
X111000Y255968D02*
X112016Y256984D01*
X113032D01*
X112016Y258000D01*
X113032Y259016D01*
X112016D01*
X111000Y260032D01*
X109984Y259016D01*
X108968D01*
X109984Y258000D01*
X108968Y256984D01*
X109984D01*
X111000Y255968D01*
X92000Y238968D02*
X93016Y239984D01*
X94032D01*
X93016Y241000D01*
X94032Y242016D01*
X93016D01*
X92000Y243032D01*
X90984Y242016D01*
X89968D01*
X90984Y241000D01*
X89968Y239984D01*
X90984D01*
X92000Y238968D01*
X104000Y250968D02*
X105016Y251984D01*
X106032D01*
X105016Y253000D01*
X106032Y254016D01*
X105016D01*
X104000Y255032D01*
X102984Y254016D01*
X101968D01*
X102984Y253000D01*
X101968Y251984D01*
X102984D01*
X104000Y250968D01*
X77000Y197967D02*
X78016Y198983D01*
X79032D01*
X78016Y200000D01*
X79032Y201015D01*
X78016D01*
X77000Y202031D01*
X75984Y201015D01*
X74968D01*
X75984Y200000D01*
X74968Y198983D01*
X75984D01*
X77000Y197967D01*
X101000Y197968D02*
X102016Y198984D01*
X103032D01*
X102016Y200000D01*
X103032Y201016D01*
X102016D01*
X101000Y202032D01*
X99984Y201016D01*
X98968D01*
X99984Y200000D01*
X98968Y198984D01*
X99984D01*
X101000Y197968D01*
X93000D02*
X94016Y198984D01*
X95032D01*
X94016Y200000D01*
X95032Y201016D01*
X94016D01*
X93000Y202032D01*
X91984Y201016D01*
X90968D01*
X91984Y200000D01*
X90968Y198984D01*
X91984D01*
X93000Y197968D01*
X85000Y197967D02*
X86016Y198983D01*
X87032D01*
X86016Y200000D01*
X87032Y201015D01*
X86016D01*
X85000Y202031D01*
X83984Y201015D01*
X82968D01*
X83984Y200000D01*
X82968Y198983D01*
X83984D01*
X85000Y197967D01*
X98000Y244967D02*
X99016Y245984D01*
X100032D01*
X99016Y246999D01*
X100032Y248015D01*
X99016D01*
X98000Y249032D01*
X96984Y248015D01*
X95968D01*
X96984Y246999D01*
X95968Y245984D01*
X96984D01*
X98000Y244967D01*
X133000Y224968D02*
X134016Y225984D01*
X135032D01*
X134016Y227000D01*
X135032Y228016D01*
X134016D01*
X133000Y229032D01*
X131984Y228016D01*
X130968D01*
X131984Y227000D01*
X130968Y225984D01*
X131984D01*
X133000Y224968D01*
X141000Y220968D02*
X142016Y221984D01*
X143032D01*
X142016Y222999D01*
X143032Y224016D01*
X142016D01*
X141000Y225032D01*
X139984Y224016D01*
X138968D01*
X139984Y222999D01*
X138968Y221984D01*
X139984D01*
X141000Y220968D01*
X122550Y225418D02*
X123566Y226434D01*
X124582D01*
X123566Y227450D01*
X124582Y228466D01*
X123566D01*
X122550Y229482D01*
X121534Y228466D01*
X120518D01*
X121534Y227450D01*
X120518Y226434D01*
X121534D01*
X122550Y225418D01*
X83000Y185968D02*
X84016Y186984D01*
X85032D01*
X84016Y188000D01*
X85032Y189016D01*
X84016D01*
X83000Y190032D01*
X81984Y189016D01*
X80968D01*
X81984Y188000D01*
X80968Y186984D01*
X81984D01*
X83000Y185968D01*
X76000Y179968D02*
X77016Y180984D01*
X78032D01*
X77016Y182000D01*
X78032Y183016D01*
X77016D01*
X76000Y184032D01*
X74984Y183016D01*
X73968D01*
X74984Y182000D01*
X73968Y180984D01*
X74984D01*
X76000Y179968D01*
X200000Y141468D02*
X201016Y142484D01*
X202032D01*
X201016Y143500D01*
X202032Y144516D01*
X201016D01*
X200000Y145532D01*
X198984Y144516D01*
X197968D01*
X198984Y143500D01*
X197968Y142484D01*
X198984D01*
X200000Y141468D01*
X210000Y149968D02*
X211016Y150984D01*
X212032D01*
X211016Y152000D01*
X212032Y153016D01*
X211016D01*
X210000Y154032D01*
X208984Y153016D01*
X207968D01*
X208984Y152000D01*
X207968Y150984D01*
X208984D01*
X210000Y149968D01*
X207000Y134968D02*
X208016Y135984D01*
X209032D01*
X208016Y137000D01*
X209032Y138016D01*
X208016D01*
X207000Y139032D01*
X205984Y138016D01*
X204968D01*
X205984Y137000D01*
X204968Y135984D01*
X205984D01*
X207000Y134968D01*
X213000Y122968D02*
X214016Y123984D01*
X215032D01*
X214016Y125000D01*
X215032Y126016D01*
X214016D01*
X213000Y127032D01*
X211984Y126016D01*
X210968D01*
X211984Y125000D01*
X210968Y123984D01*
X211984D01*
X213000Y122968D01*
X203000Y111968D02*
X204016Y112984D01*
X205032D01*
X204016Y114000D01*
X205032Y115016D01*
X204016D01*
X203000Y116032D01*
X201984Y115016D01*
X200968D01*
X201984Y114000D01*
X200968Y112984D01*
X201984D01*
X203000Y111968D01*
X211000D02*
X212016Y112984D01*
X213032D01*
X212016Y114000D01*
X213032Y115016D01*
X212016D01*
X211000Y116032D01*
X209984Y115016D01*
X208968D01*
X209984Y114000D01*
X208968Y112984D01*
X209984D01*
X211000Y111968D01*
X142500Y199468D02*
X143516Y200484D01*
X144532D01*
X143516Y201500D01*
X144532Y202516D01*
X143516D01*
X142500Y203532D01*
X141484Y202516D01*
X140468D01*
X141484Y201500D01*
X140468Y200484D01*
X141484D01*
X142500Y199468D01*
X136000Y204968D02*
X137016Y205984D01*
X138032D01*
X137016Y207000D01*
X138032Y208016D01*
X137016D01*
X136000Y209032D01*
X134984Y208016D01*
X133968D01*
X134984Y207000D01*
X133968Y205984D01*
X134984D01*
X136000Y204968D01*
X180000Y225968D02*
X181016Y226984D01*
X182032D01*
X181016Y228000D01*
X182032Y229016D01*
X181016D01*
X180000Y230032D01*
X178984Y229016D01*
X177968D01*
X178984Y228000D01*
X177968Y226984D01*
X178984D01*
X180000Y225968D01*
X96000Y132968D02*
X97016Y133984D01*
X98032D01*
X97016Y135000D01*
X98032Y136016D01*
X97016D01*
X96000Y137032D01*
X94984Y136016D01*
X93968D01*
X94984Y135000D01*
X93968Y133984D01*
X94984D01*
X96000Y132968D01*
X171000Y225968D02*
X172016Y226984D01*
X173032D01*
X172016Y228000D01*
X173032Y229016D01*
X172016D01*
X171000Y230032D01*
X169984Y229016D01*
X168968D01*
X169984Y228000D01*
X168968Y226984D01*
X169984D01*
X171000Y225968D01*
X224000Y242968D02*
X225016Y243984D01*
X226032D01*
X225016Y245000D01*
X226032Y246016D01*
X225016D01*
X224000Y247032D01*
X222984Y246016D01*
X221968D01*
X222984Y245000D01*
X221968Y243984D01*
X222984D01*
X224000Y242968D01*
X230500Y248468D02*
X231516Y249484D01*
X232532D01*
X231516Y250500D01*
X232532Y251516D01*
X231516D01*
X230500Y252532D01*
X229484Y251516D01*
X228468D01*
X229484Y250500D01*
X228468Y249484D01*
X229484D01*
X230500Y248468D01*
X89000Y139968D02*
X90016Y140984D01*
X91032D01*
X90016Y142000D01*
X91032Y143016D01*
X90016D01*
X89000Y144032D01*
X87984Y143016D01*
X86968D01*
X87984Y142000D01*
X86968Y140984D01*
X87984D01*
X89000Y139968D01*
X348500Y176468D02*
X349516Y177484D01*
X350532D01*
X349516Y178500D01*
X350532Y179516D01*
X349516D01*
X348500Y180532D01*
X347484Y179516D01*
X346468D01*
X347484Y178500D01*
X346468Y177484D01*
X347484D01*
X348500Y176468D01*
X374500Y139468D02*
X375516Y140484D01*
X376532D01*
X375516Y141500D01*
X376532Y142516D01*
X375516D01*
X374500Y143532D01*
X373484Y142516D01*
X372468D01*
X373484Y141500D01*
X372468Y140484D01*
X373484D01*
X374500Y139468D01*
X400500Y176468D02*
X401516Y177484D01*
X402532D01*
X401516Y178500D01*
X402532Y179516D01*
X401516D01*
X400500Y180532D01*
X399484Y179516D01*
X398468D01*
X399484Y178500D01*
X398468Y177484D01*
X399484D01*
X400500Y176468D01*
X302750Y103218D02*
X303766Y104234D01*
X304782D01*
X303766Y105250D01*
X304782Y106266D01*
X303766D01*
X302750Y107282D01*
X301734Y106266D01*
X300718D01*
X301734Y105250D01*
X300718Y104234D01*
X301734D01*
X302750Y103218D01*
X431000Y168968D02*
X432016Y169984D01*
X433032D01*
X432016Y171000D01*
X433032Y172016D01*
X432016D01*
X431000Y173032D01*
X429984Y172016D01*
X428968D01*
X429984Y171000D01*
X428968Y169984D01*
X429984D01*
X431000Y168968D01*
Y118968D02*
X432016Y119984D01*
X433032D01*
X432016Y121000D01*
X433032Y122016D01*
X432016D01*
X431000Y123032D01*
X429984Y122016D01*
X428968D01*
X429984Y121000D01*
X428968Y119984D01*
X429984D01*
X431000Y118968D01*
X62000Y145968D02*
X63016Y146984D01*
X64032D01*
X63016Y148000D01*
X64032Y149016D01*
X63016D01*
X62000Y150032D01*
X60984Y149016D01*
X59968D01*
X60984Y148000D01*
X59968Y146984D01*
X60984D01*
X62000Y145968D01*
X25699Y15517D02*
X26715Y16533D01*
X27731D01*
X26715Y17549D01*
X27731Y18565D01*
X26715D01*
X25699Y19581D01*
X24683Y18565D01*
X23667D01*
X24683Y17549D01*
X23667Y16533D01*
X24683D01*
X25699Y15517D01*
X33199Y30517D02*
X34215Y31533D01*
X35231D01*
X34215Y32549D01*
X35231Y33565D01*
X34215D01*
X33199Y34581D01*
X32183Y33565D01*
X31167D01*
X32183Y32549D01*
X31167Y31533D01*
X32183D01*
X33199Y30517D01*
X25699Y45517D02*
X26715Y46533D01*
X27731D01*
X26715Y47549D01*
X27731Y48565D01*
X26715D01*
X25699Y49581D01*
X24683Y48565D01*
X23667D01*
X24683Y47549D01*
X23667Y46533D01*
X24683D01*
X25699Y45517D01*
X33199Y210517D02*
X34215Y211533D01*
X35231D01*
X34215Y212549D01*
X35231Y213565D01*
X34215D01*
X33199Y214581D01*
X32183Y213565D01*
X31167D01*
X32183Y212549D01*
X31167Y211533D01*
X32183D01*
X33199Y210517D01*
Y240517D02*
X34215Y241533D01*
X35231D01*
X34215Y242549D01*
X35231Y243565D01*
X34215D01*
X33199Y244581D01*
X32183Y243565D01*
X31167D01*
X32183Y242549D01*
X31167Y241533D01*
X32183D01*
X33199Y240517D01*
X25699Y255517D02*
X26715Y256533D01*
X27731D01*
X26715Y257549D01*
X27731Y258565D01*
X26715D01*
X25699Y259581D01*
X24683Y258565D01*
X23667D01*
X24683Y257549D01*
X23667Y256533D01*
X24683D01*
X25699Y255517D01*
X33199Y270517D02*
X34215Y271533D01*
X35231D01*
X34215Y272549D01*
X35231Y273565D01*
X34215D01*
X33199Y274581D01*
X32183Y273565D01*
X31167D01*
X32183Y272549D01*
X31167Y271533D01*
X32183D01*
X33199Y270517D01*
X40699Y15517D02*
X41715Y16533D01*
X42731D01*
X41715Y17549D01*
X42731Y18565D01*
X41715D01*
X40699Y19581D01*
X39683Y18565D01*
X38667D01*
X39683Y17549D01*
X38667Y16533D01*
X39683D01*
X40699Y15517D01*
X48199Y60517D02*
X49215Y61533D01*
X50231D01*
X49215Y62549D01*
X50231Y63565D01*
X49215D01*
X48199Y64581D01*
X47183Y63565D01*
X46167D01*
X47183Y62549D01*
X46167Y61533D01*
X47183D01*
X48199Y60517D01*
Y180517D02*
X49215Y181533D01*
X50231D01*
X49215Y182549D01*
X50231Y183565D01*
X49215D01*
X48199Y184581D01*
X47183Y183565D01*
X46167D01*
X47183Y182549D01*
X46167Y181533D01*
X47183D01*
X48199Y180517D01*
X40699Y255517D02*
X41715Y256533D01*
X42731D01*
X41715Y257549D01*
X42731Y258565D01*
X41715D01*
X40699Y259581D01*
X39683Y258565D01*
X38667D01*
X39683Y257549D01*
X38667Y256533D01*
X39683D01*
X40699Y255517D01*
X48199Y270517D02*
X49215Y271533D01*
X50231D01*
X49215Y272549D01*
X50231Y273565D01*
X49215D01*
X48199Y274581D01*
X47183Y273565D01*
X46167D01*
X47183Y272549D01*
X46167Y271533D01*
X47183D01*
X48199Y270517D01*
X63199Y30517D02*
X64215Y31533D01*
X65231D01*
X64215Y32549D01*
X65231Y33565D01*
X64215D01*
X63199Y34581D01*
X62183Y33565D01*
X61167D01*
X62183Y32549D01*
X61167Y31533D01*
X62183D01*
X63199Y30517D01*
X55699Y45517D02*
X56715Y46533D01*
X57731D01*
X56715Y47549D01*
X57731Y48565D01*
X56715D01*
X55699Y49581D01*
X54683Y48565D01*
X53667D01*
X54683Y47549D01*
X53667Y46533D01*
X54683D01*
X55699Y45517D01*
Y135517D02*
X56715Y136533D01*
X57731D01*
X56715Y137549D01*
X57731Y138565D01*
X56715D01*
X55699Y139581D01*
X54683Y138565D01*
X53667D01*
X54683Y137549D01*
X53667Y136533D01*
X54683D01*
X55699Y135517D01*
X63199Y180517D02*
X64215Y181533D01*
X65231D01*
X64215Y182549D01*
X65231Y183565D01*
X64215D01*
X63199Y184581D01*
X62183Y183565D01*
X61167D01*
X62183Y182549D01*
X61167Y181533D01*
X62183D01*
X63199Y180517D01*
X55699Y195517D02*
X56715Y196533D01*
X57731D01*
X56715Y197549D01*
X57731Y198565D01*
X56715D01*
X55699Y199581D01*
X54683Y198565D01*
X53667D01*
X54683Y197549D01*
X53667Y196533D01*
X54683D01*
X55699Y195517D01*
X78199Y90517D02*
X79215Y91533D01*
X80231D01*
X79215Y92549D01*
X80231Y93565D01*
X79215D01*
X78199Y94581D01*
X77183Y93565D01*
X76167D01*
X77183Y92549D01*
X76167Y91533D01*
X77183D01*
X78199Y90517D01*
X70699Y255517D02*
X71715Y256533D01*
X72731D01*
X71715Y257549D01*
X72731Y258565D01*
X71715D01*
X70699Y259581D01*
X69683Y258565D01*
X68667D01*
X69683Y257549D01*
X68667Y256533D01*
X69683D01*
X70699Y255517D01*
X85699D02*
X86715Y256533D01*
X87731D01*
X86715Y257549D01*
X87731Y258565D01*
X86715D01*
X85699Y259581D01*
X84683Y258565D01*
X83667D01*
X84683Y257549D01*
X83667Y256533D01*
X84683D01*
X85699Y255517D01*
X108199Y30517D02*
X109215Y31533D01*
X110231D01*
X109215Y32549D01*
X110231Y33565D01*
X109215D01*
X108199Y34581D01*
X107183Y33565D01*
X106167D01*
X107183Y32549D01*
X106167Y31533D01*
X107183D01*
X108199Y30517D01*
X138199D02*
X139215Y31533D01*
X140231D01*
X139215Y32549D01*
X140231Y33565D01*
X139215D01*
X138199Y34581D01*
X137183Y33565D01*
X136167D01*
X137183Y32549D01*
X136167Y31533D01*
X137183D01*
X138199Y30517D01*
X213199D02*
X214215Y31533D01*
X215231D01*
X214215Y32549D01*
X215231Y33565D01*
X214215D01*
X213199Y34581D01*
X212183Y33565D01*
X211167D01*
X212183Y32549D01*
X211167Y31533D01*
X212183D01*
X213199Y30517D01*
X243199Y90517D02*
X244215Y91533D01*
X245231D01*
X244215Y92549D01*
X245231Y93565D01*
X244215D01*
X243199Y94581D01*
X242183Y93565D01*
X241167D01*
X242183Y92549D01*
X241167Y91533D01*
X242183D01*
X243199Y90517D01*
X235699Y105517D02*
X236715Y106533D01*
X237731D01*
X236715Y107549D01*
X237731Y108565D01*
X236715D01*
X235699Y109581D01*
X234683Y108565D01*
X233667D01*
X234683Y107549D01*
X233667Y106533D01*
X234683D01*
X235699Y105517D01*
Y225517D02*
X236715Y226533D01*
X237731D01*
X236715Y227549D01*
X237731Y228565D01*
X236715D01*
X235699Y229581D01*
X234683Y228565D01*
X233667D01*
X234683Y227549D01*
X233667Y226533D01*
X234683D01*
X235699Y225517D01*
X250699Y75517D02*
X251715Y76533D01*
X252731D01*
X251715Y77549D01*
X252731Y78565D01*
X251715D01*
X250699Y79581D01*
X249683Y78565D01*
X248667D01*
X249683Y77549D01*
X248667Y76533D01*
X249683D01*
X250699Y75517D01*
X258199Y90517D02*
X259215Y91533D01*
X260231D01*
X259215Y92549D01*
X260231Y93565D01*
X259215D01*
X258199Y94581D01*
X257183Y93565D01*
X256167D01*
X257183Y92549D01*
X256167Y91533D01*
X257183D01*
X258199Y90517D01*
X250699Y105517D02*
X251715Y106533D01*
X252731D01*
X251715Y107549D01*
X252731Y108565D01*
X251715D01*
X250699Y109581D01*
X249683Y108565D01*
X248667D01*
X249683Y107549D01*
X248667Y106533D01*
X249683D01*
X250699Y105517D01*
X273199Y60517D02*
X274215Y61533D01*
X275231D01*
X274215Y62549D01*
X275231Y63565D01*
X274215D01*
X273199Y64581D01*
X272183Y63565D01*
X271167D01*
X272183Y62549D01*
X271167Y61533D01*
X272183D01*
X273199Y60517D01*
X265699Y75517D02*
X266715Y76533D01*
X267731D01*
X266715Y77549D01*
X267731Y78565D01*
X266715D01*
X265699Y79581D01*
X264683Y78565D01*
X263667D01*
X264683Y77549D01*
X263667Y76533D01*
X264683D01*
X265699Y75517D01*
X273199Y240517D02*
X274215Y241533D01*
X275231D01*
X274215Y242549D01*
X275231Y243565D01*
X274215D01*
X273199Y244581D01*
X272183Y243565D01*
X271167D01*
X272183Y242549D01*
X271167Y241533D01*
X272183D01*
X273199Y240517D01*
X288199Y30517D02*
X289215Y31533D01*
X290231D01*
X289215Y32549D01*
X290231Y33565D01*
X289215D01*
X288199Y34581D01*
X287183Y33565D01*
X286167D01*
X287183Y32549D01*
X286167Y31533D01*
X287183D01*
X288199Y30517D01*
X280699Y45517D02*
X281715Y46533D01*
X282731D01*
X281715Y47549D01*
X282731Y48565D01*
X281715D01*
X280699Y49581D01*
X279683Y48565D01*
X278667D01*
X279683Y47549D01*
X278667Y46533D01*
X279683D01*
X280699Y45517D01*
X288199Y60517D02*
X289215Y61533D01*
X290231D01*
X289215Y62549D01*
X290231Y63565D01*
X289215D01*
X288199Y64581D01*
X287183Y63565D01*
X286167D01*
X287183Y62549D01*
X286167Y61533D01*
X287183D01*
X288199Y60517D01*
X280699Y75517D02*
X281715Y76533D01*
X282731D01*
X281715Y77549D01*
X282731Y78565D01*
X281715D01*
X280699Y79581D01*
X279683Y78565D01*
X278667D01*
X279683Y77549D01*
X278667Y76533D01*
X279683D01*
X280699Y75517D01*
X288199Y240517D02*
X289215Y241533D01*
X290231D01*
X289215Y242549D01*
X290231Y243565D01*
X289215D01*
X288199Y244581D01*
X287183Y243565D01*
X286167D01*
X287183Y242549D01*
X286167Y241533D01*
X287183D01*
X288199Y240517D01*
X280699Y255517D02*
X281715Y256533D01*
X282731D01*
X281715Y257549D01*
X282731Y258565D01*
X281715D01*
X280699Y259581D01*
X279683Y258565D01*
X278667D01*
X279683Y257549D01*
X278667Y256533D01*
X279683D01*
X280699Y255517D01*
X288199Y270517D02*
X289215Y271533D01*
X290231D01*
X289215Y272549D01*
X290231Y273565D01*
X289215D01*
X288199Y274581D01*
X287183Y273565D01*
X286167D01*
X287183Y272549D01*
X286167Y271533D01*
X287183D01*
X288199Y270517D01*
X295699Y15517D02*
X296715Y16533D01*
X297731D01*
X296715Y17549D01*
X297731Y18565D01*
X296715D01*
X295699Y19581D01*
X294683Y18565D01*
X293667D01*
X294683Y17549D01*
X293667Y16533D01*
X294683D01*
X295699Y15517D01*
X303199Y30517D02*
X304215Y31533D01*
X305231D01*
X304215Y32549D01*
X305231Y33565D01*
X304215D01*
X303199Y34581D01*
X302183Y33565D01*
X301167D01*
X302183Y32549D01*
X301167Y31533D01*
X302183D01*
X303199Y30517D01*
X295699Y45517D02*
X296715Y46533D01*
X297731D01*
X296715Y47549D01*
X297731Y48565D01*
X296715D01*
X295699Y49581D01*
X294683Y48565D01*
X293667D01*
X294683Y47549D01*
X293667Y46533D01*
X294683D01*
X295699Y45517D01*
X303199Y60517D02*
X304215Y61533D01*
X305231D01*
X304215Y62549D01*
X305231Y63565D01*
X304215D01*
X303199Y64581D01*
X302183Y63565D01*
X301167D01*
X302183Y62549D01*
X301167Y61533D01*
X302183D01*
X303199Y60517D01*
X295699Y75517D02*
X296715Y76533D01*
X297731D01*
X296715Y77549D01*
X297731Y78565D01*
X296715D01*
X295699Y79581D01*
X294683Y78565D01*
X293667D01*
X294683Y77549D01*
X293667Y76533D01*
X294683D01*
X295699Y75517D01*
X303199Y90517D02*
X304215Y91533D01*
X305231D01*
X304215Y92549D01*
X305231Y93565D01*
X304215D01*
X303199Y94581D01*
X302183Y93565D01*
X301167D01*
X302183Y92549D01*
X301167Y91533D01*
X302183D01*
X303199Y90517D01*
X295699Y225517D02*
X296715Y226533D01*
X297731D01*
X296715Y227549D01*
X297731Y228565D01*
X296715D01*
X295699Y229581D01*
X294683Y228565D01*
X293667D01*
X294683Y227549D01*
X293667Y226533D01*
X294683D01*
X295699Y225517D01*
X303199Y240517D02*
X304215Y241533D01*
X305231D01*
X304215Y242549D01*
X305231Y243565D01*
X304215D01*
X303199Y244581D01*
X302183Y243565D01*
X301167D01*
X302183Y242549D01*
X301167Y241533D01*
X302183D01*
X303199Y240517D01*
X295699Y255517D02*
X296715Y256533D01*
X297731D01*
X296715Y257549D01*
X297731Y258565D01*
X296715D01*
X295699Y259581D01*
X294683Y258565D01*
X293667D01*
X294683Y257549D01*
X293667Y256533D01*
X294683D01*
X295699Y255517D01*
X303199Y270517D02*
X304215Y271533D01*
X305231D01*
X304215Y272549D01*
X305231Y273565D01*
X304215D01*
X303199Y274581D01*
X302183Y273565D01*
X301167D01*
X302183Y272549D01*
X301167Y271533D01*
X302183D01*
X303199Y270517D01*
X310699Y15517D02*
X311715Y16533D01*
X312731D01*
X311715Y17549D01*
X312731Y18565D01*
X311715D01*
X310699Y19581D01*
X309683Y18565D01*
X308667D01*
X309683Y17549D01*
X308667Y16533D01*
X309683D01*
X310699Y15517D01*
X318199Y30517D02*
X319215Y31533D01*
X320231D01*
X319215Y32549D01*
X320231Y33565D01*
X319215D01*
X318199Y34581D01*
X317183Y33565D01*
X316167D01*
X317183Y32549D01*
X316167Y31533D01*
X317183D01*
X318199Y30517D01*
X310699Y45517D02*
X311715Y46533D01*
X312731D01*
X311715Y47549D01*
X312731Y48565D01*
X311715D01*
X310699Y49581D01*
X309683Y48565D01*
X308667D01*
X309683Y47549D01*
X308667Y46533D01*
X309683D01*
X310699Y45517D01*
X318199Y60517D02*
X319215Y61533D01*
X320231D01*
X319215Y62549D01*
X320231Y63565D01*
X319215D01*
X318199Y64581D01*
X317183Y63565D01*
X316167D01*
X317183Y62549D01*
X316167Y61533D01*
X317183D01*
X318199Y60517D01*
X310699Y75517D02*
X311715Y76533D01*
X312731D01*
X311715Y77549D01*
X312731Y78565D01*
X311715D01*
X310699Y79581D01*
X309683Y78565D01*
X308667D01*
X309683Y77549D01*
X308667Y76533D01*
X309683D01*
X310699Y75517D01*
X318199Y90517D02*
X319215Y91533D01*
X320231D01*
X319215Y92549D01*
X320231Y93565D01*
X319215D01*
X318199Y94581D01*
X317183Y93565D01*
X316167D01*
X317183Y92549D01*
X316167Y91533D01*
X317183D01*
X318199Y90517D01*
X310699Y105517D02*
X311715Y106533D01*
X312731D01*
X311715Y107549D01*
X312731Y108565D01*
X311715D01*
X310699Y109581D01*
X309683Y108565D01*
X308667D01*
X309683Y107549D01*
X308667Y106533D01*
X309683D01*
X310699Y105517D01*
X318199Y210517D02*
X319215Y211533D01*
X320231D01*
X319215Y212549D01*
X320231Y213565D01*
X319215D01*
X318199Y214581D01*
X317183Y213565D01*
X316167D01*
X317183Y212549D01*
X316167Y211533D01*
X317183D01*
X318199Y210517D01*
X310699Y225517D02*
X311715Y226533D01*
X312731D01*
X311715Y227549D01*
X312731Y228565D01*
X311715D01*
X310699Y229581D01*
X309683Y228565D01*
X308667D01*
X309683Y227549D01*
X308667Y226533D01*
X309683D01*
X310699Y225517D01*
X318199Y240517D02*
X319215Y241533D01*
X320231D01*
X319215Y242549D01*
X320231Y243565D01*
X319215D01*
X318199Y244581D01*
X317183Y243565D01*
X316167D01*
X317183Y242549D01*
X316167Y241533D01*
X317183D01*
X318199Y240517D01*
X310699Y255517D02*
X311715Y256533D01*
X312731D01*
X311715Y257549D01*
X312731Y258565D01*
X311715D01*
X310699Y259581D01*
X309683Y258565D01*
X308667D01*
X309683Y257549D01*
X308667Y256533D01*
X309683D01*
X310699Y255517D01*
X318199Y270517D02*
X319215Y271533D01*
X320231D01*
X319215Y272549D01*
X320231Y273565D01*
X319215D01*
X318199Y274581D01*
X317183Y273565D01*
X316167D01*
X317183Y272549D01*
X316167Y271533D01*
X317183D01*
X318199Y270517D01*
X325699Y15517D02*
X326715Y16533D01*
X327731D01*
X326715Y17549D01*
X327731Y18565D01*
X326715D01*
X325699Y19581D01*
X324683Y18565D01*
X323667D01*
X324683Y17549D01*
X323667Y16533D01*
X324683D01*
X325699Y15517D01*
X333199Y30517D02*
X334215Y31533D01*
X335231D01*
X334215Y32549D01*
X335231Y33565D01*
X334215D01*
X333199Y34581D01*
X332183Y33565D01*
X331167D01*
X332183Y32549D01*
X331167Y31533D01*
X332183D01*
X333199Y30517D01*
X325699Y45517D02*
X326715Y46533D01*
X327731D01*
X326715Y47549D01*
X327731Y48565D01*
X326715D01*
X325699Y49581D01*
X324683Y48565D01*
X323667D01*
X324683Y47549D01*
X323667Y46533D01*
X324683D01*
X325699Y45517D01*
X333199Y60517D02*
X334215Y61533D01*
X335231D01*
X334215Y62549D01*
X335231Y63565D01*
X334215D01*
X333199Y64581D01*
X332183Y63565D01*
X331167D01*
X332183Y62549D01*
X331167Y61533D01*
X332183D01*
X333199Y60517D01*
X325699Y75517D02*
X326715Y76533D01*
X327731D01*
X326715Y77549D01*
X327731Y78565D01*
X326715D01*
X325699Y79581D01*
X324683Y78565D01*
X323667D01*
X324683Y77549D01*
X323667Y76533D01*
X324683D01*
X325699Y75517D01*
X333199Y90517D02*
X334215Y91533D01*
X335231D01*
X334215Y92549D01*
X335231Y93565D01*
X334215D01*
X333199Y94581D01*
X332183Y93565D01*
X331167D01*
X332183Y92549D01*
X331167Y91533D01*
X332183D01*
X333199Y90517D01*
X325699Y105517D02*
X326715Y106533D01*
X327731D01*
X326715Y107549D01*
X327731Y108565D01*
X326715D01*
X325699Y109581D01*
X324683Y108565D01*
X323667D01*
X324683Y107549D01*
X323667Y106533D01*
X324683D01*
X325699Y105517D01*
X333199Y120517D02*
X334215Y121533D01*
X335231D01*
X334215Y122549D01*
X335231Y123565D01*
X334215D01*
X333199Y124581D01*
X332183Y123565D01*
X331167D01*
X332183Y122549D01*
X331167Y121533D01*
X332183D01*
X333199Y120517D01*
X325699Y165517D02*
X326715Y166533D01*
X327731D01*
X326715Y167549D01*
X327731Y168565D01*
X326715D01*
X325699Y169581D01*
X324683Y168565D01*
X323667D01*
X324683Y167549D01*
X323667Y166533D01*
X324683D01*
X325699Y165517D01*
X333199Y180517D02*
X334215Y181533D01*
X335231D01*
X334215Y182549D01*
X335231Y183565D01*
X334215D01*
X333199Y184581D01*
X332183Y183565D01*
X331167D01*
X332183Y182549D01*
X331167Y181533D01*
X332183D01*
X333199Y180517D01*
Y210517D02*
X334215Y211533D01*
X335231D01*
X334215Y212549D01*
X335231Y213565D01*
X334215D01*
X333199Y214581D01*
X332183Y213565D01*
X331167D01*
X332183Y212549D01*
X331167Y211533D01*
X332183D01*
X333199Y210517D01*
X325699Y225517D02*
X326715Y226533D01*
X327731D01*
X326715Y227549D01*
X327731Y228565D01*
X326715D01*
X325699Y229581D01*
X324683Y228565D01*
X323667D01*
X324683Y227549D01*
X323667Y226533D01*
X324683D01*
X325699Y225517D01*
X333199Y240517D02*
X334215Y241533D01*
X335231D01*
X334215Y242549D01*
X335231Y243565D01*
X334215D01*
X333199Y244581D01*
X332183Y243565D01*
X331167D01*
X332183Y242549D01*
X331167Y241533D01*
X332183D01*
X333199Y240517D01*
X325699Y255517D02*
X326715Y256533D01*
X327731D01*
X326715Y257549D01*
X327731Y258565D01*
X326715D01*
X325699Y259581D01*
X324683Y258565D01*
X323667D01*
X324683Y257549D01*
X323667Y256533D01*
X324683D01*
X325699Y255517D01*
X333199Y270517D02*
X334215Y271533D01*
X335231D01*
X334215Y272549D01*
X335231Y273565D01*
X334215D01*
X333199Y274581D01*
X332183Y273565D01*
X331167D01*
X332183Y272549D01*
X331167Y271533D01*
X332183D01*
X333199Y270517D01*
X340699Y15517D02*
X341715Y16533D01*
X342731D01*
X341715Y17549D01*
X342731Y18565D01*
X341715D01*
X340699Y19581D01*
X339683Y18565D01*
X338667D01*
X339683Y17549D01*
X338667Y16533D01*
X339683D01*
X340699Y15517D01*
X348199Y30517D02*
X349215Y31533D01*
X350231D01*
X349215Y32549D01*
X350231Y33565D01*
X349215D01*
X348199Y34581D01*
X347183Y33565D01*
X346167D01*
X347183Y32549D01*
X346167Y31533D01*
X347183D01*
X348199Y30517D01*
X340699Y45517D02*
X341715Y46533D01*
X342731D01*
X341715Y47549D01*
X342731Y48565D01*
X341715D01*
X340699Y49581D01*
X339683Y48565D01*
X338667D01*
X339683Y47549D01*
X338667Y46533D01*
X339683D01*
X340699Y45517D01*
X348199Y60517D02*
X349215Y61533D01*
X350231D01*
X349215Y62549D01*
X350231Y63565D01*
X349215D01*
X348199Y64581D01*
X347183Y63565D01*
X346167D01*
X347183Y62549D01*
X346167Y61533D01*
X347183D01*
X348199Y60517D01*
X340699Y75517D02*
X341715Y76533D01*
X342731D01*
X341715Y77549D01*
X342731Y78565D01*
X341715D01*
X340699Y79581D01*
X339683Y78565D01*
X338667D01*
X339683Y77549D01*
X338667Y76533D01*
X339683D01*
X340699Y75517D01*
X348199Y90517D02*
X349215Y91533D01*
X350231D01*
X349215Y92549D01*
X350231Y93565D01*
X349215D01*
X348199Y94581D01*
X347183Y93565D01*
X346167D01*
X347183Y92549D01*
X346167Y91533D01*
X347183D01*
X348199Y90517D01*
X340699Y105517D02*
X341715Y106533D01*
X342731D01*
X341715Y107549D01*
X342731Y108565D01*
X341715D01*
X340699Y109581D01*
X339683Y108565D01*
X338667D01*
X339683Y107549D01*
X338667Y106533D01*
X339683D01*
X340699Y105517D01*
X348199Y120517D02*
X349215Y121533D01*
X350231D01*
X349215Y122549D01*
X350231Y123565D01*
X349215D01*
X348199Y124581D01*
X347183Y123565D01*
X346167D01*
X347183Y122549D01*
X346167Y121533D01*
X347183D01*
X348199Y120517D01*
X340699Y135517D02*
X341715Y136533D01*
X342731D01*
X341715Y137549D01*
X342731Y138565D01*
X341715D01*
X340699Y139581D01*
X339683Y138565D01*
X338667D01*
X339683Y137549D01*
X338667Y136533D01*
X339683D01*
X340699Y135517D01*
Y195517D02*
X341715Y196533D01*
X342731D01*
X341715Y197549D01*
X342731Y198565D01*
X341715D01*
X340699Y199581D01*
X339683Y198565D01*
X338667D01*
X339683Y197549D01*
X338667Y196533D01*
X339683D01*
X340699Y195517D01*
X348199Y210517D02*
X349215Y211533D01*
X350231D01*
X349215Y212549D01*
X350231Y213565D01*
X349215D01*
X348199Y214581D01*
X347183Y213565D01*
X346167D01*
X347183Y212549D01*
X346167Y211533D01*
X347183D01*
X348199Y210517D01*
X340699Y225517D02*
X341715Y226533D01*
X342731D01*
X341715Y227549D01*
X342731Y228565D01*
X341715D01*
X340699Y229581D01*
X339683Y228565D01*
X338667D01*
X339683Y227549D01*
X338667Y226533D01*
X339683D01*
X340699Y225517D01*
X348199Y240517D02*
X349215Y241533D01*
X350231D01*
X349215Y242549D01*
X350231Y243565D01*
X349215D01*
X348199Y244581D01*
X347183Y243565D01*
X346167D01*
X347183Y242549D01*
X346167Y241533D01*
X347183D01*
X348199Y240517D01*
X340699Y255517D02*
X341715Y256533D01*
X342731D01*
X341715Y257549D01*
X342731Y258565D01*
X341715D01*
X340699Y259581D01*
X339683Y258565D01*
X338667D01*
X339683Y257549D01*
X338667Y256533D01*
X339683D01*
X340699Y255517D01*
X348199Y270517D02*
X349215Y271533D01*
X350231D01*
X349215Y272549D01*
X350231Y273565D01*
X349215D01*
X348199Y274581D01*
X347183Y273565D01*
X346167D01*
X347183Y272549D01*
X346167Y271533D01*
X347183D01*
X348199Y270517D01*
X355699Y15517D02*
X356715Y16533D01*
X357731D01*
X356715Y17549D01*
X357731Y18565D01*
X356715D01*
X355699Y19581D01*
X354683Y18565D01*
X353667D01*
X354683Y17549D01*
X353667Y16533D01*
X354683D01*
X355699Y15517D01*
Y45517D02*
X356715Y46533D01*
X357731D01*
X356715Y47549D01*
X357731Y48565D01*
X356715D01*
X355699Y49581D01*
X354683Y48565D01*
X353667D01*
X354683Y47549D01*
X353667Y46533D01*
X354683D01*
X355699Y45517D01*
X363199Y60517D02*
X364215Y61533D01*
X365231D01*
X364215Y62549D01*
X365231Y63565D01*
X364215D01*
X363199Y64581D01*
X362183Y63565D01*
X361167D01*
X362183Y62549D01*
X361167Y61533D01*
X362183D01*
X363199Y60517D01*
X355699Y75517D02*
X356715Y76533D01*
X357731D01*
X356715Y77549D01*
X357731Y78565D01*
X356715D01*
X355699Y79581D01*
X354683Y78565D01*
X353667D01*
X354683Y77549D01*
X353667Y76533D01*
X354683D01*
X355699Y75517D01*
X363199Y90517D02*
X364215Y91533D01*
X365231D01*
X364215Y92549D01*
X365231Y93565D01*
X364215D01*
X363199Y94581D01*
X362183Y93565D01*
X361167D01*
X362183Y92549D01*
X361167Y91533D01*
X362183D01*
X363199Y90517D01*
X355699Y105517D02*
X356715Y106533D01*
X357731D01*
X356715Y107549D01*
X357731Y108565D01*
X356715D01*
X355699Y109581D01*
X354683Y108565D01*
X353667D01*
X354683Y107549D01*
X353667Y106533D01*
X354683D01*
X355699Y105517D01*
X363199Y120517D02*
X364215Y121533D01*
X365231D01*
X364215Y122549D01*
X365231Y123565D01*
X364215D01*
X363199Y124581D01*
X362183Y123565D01*
X361167D01*
X362183Y122549D01*
X361167Y121533D01*
X362183D01*
X363199Y120517D01*
X355699Y135517D02*
X356715Y136533D01*
X357731D01*
X356715Y137549D01*
X357731Y138565D01*
X356715D01*
X355699Y139581D01*
X354683Y138565D01*
X353667D01*
X354683Y137549D01*
X353667Y136533D01*
X354683D01*
X355699Y135517D01*
X363199Y180517D02*
X364215Y181533D01*
X365231D01*
X364215Y182549D01*
X365231Y183565D01*
X364215D01*
X363199Y184581D01*
X362183Y183565D01*
X361167D01*
X362183Y182549D01*
X361167Y181533D01*
X362183D01*
X363199Y180517D01*
X355699Y195517D02*
X356715Y196533D01*
X357731D01*
X356715Y197549D01*
X357731Y198565D01*
X356715D01*
X355699Y199581D01*
X354683Y198565D01*
X353667D01*
X354683Y197549D01*
X353667Y196533D01*
X354683D01*
X355699Y195517D01*
X363199Y210517D02*
X364215Y211533D01*
X365231D01*
X364215Y212549D01*
X365231Y213565D01*
X364215D01*
X363199Y214581D01*
X362183Y213565D01*
X361167D01*
X362183Y212549D01*
X361167Y211533D01*
X362183D01*
X363199Y210517D01*
X355699Y225517D02*
X356715Y226533D01*
X357731D01*
X356715Y227549D01*
X357731Y228565D01*
X356715D01*
X355699Y229581D01*
X354683Y228565D01*
X353667D01*
X354683Y227549D01*
X353667Y226533D01*
X354683D01*
X355699Y225517D01*
X363199Y240517D02*
X364215Y241533D01*
X365231D01*
X364215Y242549D01*
X365231Y243565D01*
X364215D01*
X363199Y244581D01*
X362183Y243565D01*
X361167D01*
X362183Y242549D01*
X361167Y241533D01*
X362183D01*
X363199Y240517D01*
X355699Y255517D02*
X356715Y256533D01*
X357731D01*
X356715Y257549D01*
X357731Y258565D01*
X356715D01*
X355699Y259581D01*
X354683Y258565D01*
X353667D01*
X354683Y257549D01*
X353667Y256533D01*
X354683D01*
X355699Y255517D01*
X363199Y270517D02*
X364215Y271533D01*
X365231D01*
X364215Y272549D01*
X365231Y273565D01*
X364215D01*
X363199Y274581D01*
X362183Y273565D01*
X361167D01*
X362183Y272549D01*
X361167Y271533D01*
X362183D01*
X363199Y270517D01*
X370699Y45517D02*
X371715Y46533D01*
X372731D01*
X371715Y47549D01*
X372731Y48565D01*
X371715D01*
X370699Y49581D01*
X369683Y48565D01*
X368667D01*
X369683Y47549D01*
X368667Y46533D01*
X369683D01*
X370699Y45517D01*
X378199Y60517D02*
X379215Y61533D01*
X380231D01*
X379215Y62549D01*
X380231Y63565D01*
X379215D01*
X378199Y64581D01*
X377183Y63565D01*
X376167D01*
X377183Y62549D01*
X376167Y61533D01*
X377183D01*
X378199Y60517D01*
X370699Y75517D02*
X371715Y76533D01*
X372731D01*
X371715Y77549D01*
X372731Y78565D01*
X371715D01*
X370699Y79581D01*
X369683Y78565D01*
X368667D01*
X369683Y77549D01*
X368667Y76533D01*
X369683D01*
X370699Y75517D01*
X378199Y90517D02*
X379215Y91533D01*
X380231D01*
X379215Y92549D01*
X380231Y93565D01*
X379215D01*
X378199Y94581D01*
X377183Y93565D01*
X376167D01*
X377183Y92549D01*
X376167Y91533D01*
X377183D01*
X378199Y90517D01*
X370699Y105517D02*
X371715Y106533D01*
X372731D01*
X371715Y107549D01*
X372731Y108565D01*
X371715D01*
X370699Y109581D01*
X369683Y108565D01*
X368667D01*
X369683Y107549D01*
X368667Y106533D01*
X369683D01*
X370699Y105517D01*
X378199Y120517D02*
X379215Y121533D01*
X380231D01*
X379215Y122549D01*
X380231Y123565D01*
X379215D01*
X378199Y124581D01*
X377183Y123565D01*
X376167D01*
X377183Y122549D01*
X376167Y121533D01*
X377183D01*
X378199Y120517D01*
Y180517D02*
X379215Y181533D01*
X380231D01*
X379215Y182549D01*
X380231Y183565D01*
X379215D01*
X378199Y184581D01*
X377183Y183565D01*
X376167D01*
X377183Y182549D01*
X376167Y181533D01*
X377183D01*
X378199Y180517D01*
X370699Y195517D02*
X371715Y196533D01*
X372731D01*
X371715Y197549D01*
X372731Y198565D01*
X371715D01*
X370699Y199581D01*
X369683Y198565D01*
X368667D01*
X369683Y197549D01*
X368667Y196533D01*
X369683D01*
X370699Y195517D01*
X378199Y210517D02*
X379215Y211533D01*
X380231D01*
X379215Y212549D01*
X380231Y213565D01*
X379215D01*
X378199Y214581D01*
X377183Y213565D01*
X376167D01*
X377183Y212549D01*
X376167Y211533D01*
X377183D01*
X378199Y210517D01*
X370699Y225517D02*
X371715Y226533D01*
X372731D01*
X371715Y227549D01*
X372731Y228565D01*
X371715D01*
X370699Y229581D01*
X369683Y228565D01*
X368667D01*
X369683Y227549D01*
X368667Y226533D01*
X369683D01*
X370699Y225517D01*
X378199Y240517D02*
X379215Y241533D01*
X380231D01*
X379215Y242549D01*
X380231Y243565D01*
X379215D01*
X378199Y244581D01*
X377183Y243565D01*
X376167D01*
X377183Y242549D01*
X376167Y241533D01*
X377183D01*
X378199Y240517D01*
X370699Y255517D02*
X371715Y256533D01*
X372731D01*
X371715Y257549D01*
X372731Y258565D01*
X371715D01*
X370699Y259581D01*
X369683Y258565D01*
X368667D01*
X369683Y257549D01*
X368667Y256533D01*
X369683D01*
X370699Y255517D01*
X378199Y270517D02*
X379215Y271533D01*
X380231D01*
X379215Y272549D01*
X380231Y273565D01*
X379215D01*
X378199Y274581D01*
X377183Y273565D01*
X376167D01*
X377183Y272549D01*
X376167Y271533D01*
X377183D01*
X378199Y270517D01*
X385699Y45517D02*
X386715Y46533D01*
X387731D01*
X386715Y47549D01*
X387731Y48565D01*
X386715D01*
X385699Y49581D01*
X384683Y48565D01*
X383667D01*
X384683Y47549D01*
X383667Y46533D01*
X384683D01*
X385699Y45517D01*
X393199Y60517D02*
X394215Y61533D01*
X395231D01*
X394215Y62549D01*
X395231Y63565D01*
X394215D01*
X393199Y64581D01*
X392183Y63565D01*
X391167D01*
X392183Y62549D01*
X391167Y61533D01*
X392183D01*
X393199Y60517D01*
X385699Y75517D02*
X386715Y76533D01*
X387731D01*
X386715Y77549D01*
X387731Y78565D01*
X386715D01*
X385699Y79581D01*
X384683Y78565D01*
X383667D01*
X384683Y77549D01*
X383667Y76533D01*
X384683D01*
X385699Y75517D01*
X393199Y90517D02*
X394215Y91533D01*
X395231D01*
X394215Y92549D01*
X395231Y93565D01*
X394215D01*
X393199Y94581D01*
X392183Y93565D01*
X391167D01*
X392183Y92549D01*
X391167Y91533D01*
X392183D01*
X393199Y90517D01*
X385699Y105517D02*
X386715Y106533D01*
X387731D01*
X386715Y107549D01*
X387731Y108565D01*
X386715D01*
X385699Y109581D01*
X384683Y108565D01*
X383667D01*
X384683Y107549D01*
X383667Y106533D01*
X384683D01*
X385699Y105517D01*
X393199Y120517D02*
X394215Y121533D01*
X395231D01*
X394215Y122549D01*
X395231Y123565D01*
X394215D01*
X393199Y124581D01*
X392183Y123565D01*
X391167D01*
X392183Y122549D01*
X391167Y121533D01*
X392183D01*
X393199Y120517D01*
X385699Y135517D02*
X386715Y136533D01*
X387731D01*
X386715Y137549D01*
X387731Y138565D01*
X386715D01*
X385699Y139581D01*
X384683Y138565D01*
X383667D01*
X384683Y137549D01*
X383667Y136533D01*
X384683D01*
X385699Y135517D01*
Y165517D02*
X386715Y166533D01*
X387731D01*
X386715Y167549D01*
X387731Y168565D01*
X386715D01*
X385699Y169581D01*
X384683Y168565D01*
X383667D01*
X384683Y167549D01*
X383667Y166533D01*
X384683D01*
X385699Y165517D01*
X393199Y180517D02*
X394215Y181533D01*
X395231D01*
X394215Y182549D01*
X395231Y183565D01*
X394215D01*
X393199Y184581D01*
X392183Y183565D01*
X391167D01*
X392183Y182549D01*
X391167Y181533D01*
X392183D01*
X393199Y180517D01*
X385699Y195517D02*
X386715Y196533D01*
X387731D01*
X386715Y197549D01*
X387731Y198565D01*
X386715D01*
X385699Y199581D01*
X384683Y198565D01*
X383667D01*
X384683Y197549D01*
X383667Y196533D01*
X384683D01*
X385699Y195517D01*
X393199Y210517D02*
X394215Y211533D01*
X395231D01*
X394215Y212549D01*
X395231Y213565D01*
X394215D01*
X393199Y214581D01*
X392183Y213565D01*
X391167D01*
X392183Y212549D01*
X391167Y211533D01*
X392183D01*
X393199Y210517D01*
X385699Y225517D02*
X386715Y226533D01*
X387731D01*
X386715Y227549D01*
X387731Y228565D01*
X386715D01*
X385699Y229581D01*
X384683Y228565D01*
X383667D01*
X384683Y227549D01*
X383667Y226533D01*
X384683D01*
X385699Y225517D01*
X393199Y240517D02*
X394215Y241533D01*
X395231D01*
X394215Y242549D01*
X395231Y243565D01*
X394215D01*
X393199Y244581D01*
X392183Y243565D01*
X391167D01*
X392183Y242549D01*
X391167Y241533D01*
X392183D01*
X393199Y240517D01*
X385699Y255517D02*
X386715Y256533D01*
X387731D01*
X386715Y257549D01*
X387731Y258565D01*
X386715D01*
X385699Y259581D01*
X384683Y258565D01*
X383667D01*
X384683Y257549D01*
X383667Y256533D01*
X384683D01*
X385699Y255517D01*
X393199Y270517D02*
X394215Y271533D01*
X395231D01*
X394215Y272549D01*
X395231Y273565D01*
X394215D01*
X393199Y274581D01*
X392183Y273565D01*
X391167D01*
X392183Y272549D01*
X391167Y271533D01*
X392183D01*
X393199Y270517D01*
X400699Y45517D02*
X401715Y46533D01*
X402731D01*
X401715Y47549D01*
X402731Y48565D01*
X401715D01*
X400699Y49581D01*
X399683Y48565D01*
X398667D01*
X399683Y47549D01*
X398667Y46533D01*
X399683D01*
X400699Y45517D01*
X408199Y60517D02*
X409215Y61533D01*
X410231D01*
X409215Y62549D01*
X410231Y63565D01*
X409215D01*
X408199Y64581D01*
X407183Y63565D01*
X406167D01*
X407183Y62549D01*
X406167Y61533D01*
X407183D01*
X408199Y60517D01*
X400699Y75517D02*
X401715Y76533D01*
X402731D01*
X401715Y77549D01*
X402731Y78565D01*
X401715D01*
X400699Y79581D01*
X399683Y78565D01*
X398667D01*
X399683Y77549D01*
X398667Y76533D01*
X399683D01*
X400699Y75517D01*
X408199Y90517D02*
X409215Y91533D01*
X410231D01*
X409215Y92549D01*
X410231Y93565D01*
X409215D01*
X408199Y94581D01*
X407183Y93565D01*
X406167D01*
X407183Y92549D01*
X406167Y91533D01*
X407183D01*
X408199Y90517D01*
X400699Y105517D02*
X401715Y106533D01*
X402731D01*
X401715Y107549D01*
X402731Y108565D01*
X401715D01*
X400699Y109581D01*
X399683Y108565D01*
X398667D01*
X399683Y107549D01*
X398667Y106533D01*
X399683D01*
X400699Y105517D01*
X408199Y120517D02*
X409215Y121533D01*
X410231D01*
X409215Y122549D01*
X410231Y123565D01*
X409215D01*
X408199Y124581D01*
X407183Y123565D01*
X406167D01*
X407183Y122549D01*
X406167Y121533D01*
X407183D01*
X408199Y120517D01*
X400699Y135517D02*
X401715Y136533D01*
X402731D01*
X401715Y137549D01*
X402731Y138565D01*
X401715D01*
X400699Y139581D01*
X399683Y138565D01*
X398667D01*
X399683Y137549D01*
X398667Y136533D01*
X399683D01*
X400699Y135517D01*
X408199Y180517D02*
X409215Y181533D01*
X410231D01*
X409215Y182549D01*
X410231Y183565D01*
X409215D01*
X408199Y184581D01*
X407183Y183565D01*
X406167D01*
X407183Y182549D01*
X406167Y181533D01*
X407183D01*
X408199Y180517D01*
X400699Y195517D02*
X401715Y196533D01*
X402731D01*
X401715Y197549D01*
X402731Y198565D01*
X401715D01*
X400699Y199581D01*
X399683Y198565D01*
X398667D01*
X399683Y197549D01*
X398667Y196533D01*
X399683D01*
X400699Y195517D01*
X408199Y210517D02*
X409215Y211533D01*
X410231D01*
X409215Y212549D01*
X410231Y213565D01*
X409215D01*
X408199Y214581D01*
X407183Y213565D01*
X406167D01*
X407183Y212549D01*
X406167Y211533D01*
X407183D01*
X408199Y210517D01*
X400699Y225517D02*
X401715Y226533D01*
X402731D01*
X401715Y227549D01*
X402731Y228565D01*
X401715D01*
X400699Y229581D01*
X399683Y228565D01*
X398667D01*
X399683Y227549D01*
X398667Y226533D01*
X399683D01*
X400699Y225517D01*
X408199Y240517D02*
X409215Y241533D01*
X410231D01*
X409215Y242549D01*
X410231Y243565D01*
X409215D01*
X408199Y244581D01*
X407183Y243565D01*
X406167D01*
X407183Y242549D01*
X406167Y241533D01*
X407183D01*
X408199Y240517D01*
X400699Y255517D02*
X401715Y256533D01*
X402731D01*
X401715Y257549D01*
X402731Y258565D01*
X401715D01*
X400699Y259581D01*
X399683Y258565D01*
X398667D01*
X399683Y257549D01*
X398667Y256533D01*
X399683D01*
X400699Y255517D01*
X408199Y270517D02*
X409215Y271533D01*
X410231D01*
X409215Y272549D01*
X410231Y273565D01*
X409215D01*
X408199Y274581D01*
X407183Y273565D01*
X406167D01*
X407183Y272549D01*
X406167Y271533D01*
X407183D01*
X408199Y270517D01*
X415699Y45517D02*
X416715Y46533D01*
X417731D01*
X416715Y47549D01*
X417731Y48565D01*
X416715D01*
X415699Y49581D01*
X414683Y48565D01*
X413667D01*
X414683Y47549D01*
X413667Y46533D01*
X414683D01*
X415699Y45517D01*
X423199Y60517D02*
X424215Y61533D01*
X425231D01*
X424215Y62549D01*
X425231Y63565D01*
X424215D01*
X423199Y64581D01*
X422183Y63565D01*
X421167D01*
X422183Y62549D01*
X421167Y61533D01*
X422183D01*
X423199Y60517D01*
X415699Y75517D02*
X416715Y76533D01*
X417731D01*
X416715Y77549D01*
X417731Y78565D01*
X416715D01*
X415699Y79581D01*
X414683Y78565D01*
X413667D01*
X414683Y77549D01*
X413667Y76533D01*
X414683D01*
X415699Y75517D01*
X423199Y90517D02*
X424215Y91533D01*
X425231D01*
X424215Y92549D01*
X425231Y93565D01*
X424215D01*
X423199Y94581D01*
X422183Y93565D01*
X421167D01*
X422183Y92549D01*
X421167Y91533D01*
X422183D01*
X423199Y90517D01*
X415699Y105517D02*
X416715Y106533D01*
X417731D01*
X416715Y107549D01*
X417731Y108565D01*
X416715D01*
X415699Y109581D01*
X414683Y108565D01*
X413667D01*
X414683Y107549D01*
X413667Y106533D01*
X414683D01*
X415699Y105517D01*
X423199Y180517D02*
X424215Y181533D01*
X425231D01*
X424215Y182549D01*
X425231Y183565D01*
X424215D01*
X423199Y184581D01*
X422183Y183565D01*
X421167D01*
X422183Y182549D01*
X421167Y181533D01*
X422183D01*
X423199Y180517D01*
X415699Y195517D02*
X416715Y196533D01*
X417731D01*
X416715Y197549D01*
X417731Y198565D01*
X416715D01*
X415699Y199581D01*
X414683Y198565D01*
X413667D01*
X414683Y197549D01*
X413667Y196533D01*
X414683D01*
X415699Y195517D01*
X423199Y210517D02*
X424215Y211533D01*
X425231D01*
X424215Y212549D01*
X425231Y213565D01*
X424215D01*
X423199Y214581D01*
X422183Y213565D01*
X421167D01*
X422183Y212549D01*
X421167Y211533D01*
X422183D01*
X423199Y210517D01*
X415699Y225517D02*
X416715Y226533D01*
X417731D01*
X416715Y227549D01*
X417731Y228565D01*
X416715D01*
X415699Y229581D01*
X414683Y228565D01*
X413667D01*
X414683Y227549D01*
X413667Y226533D01*
X414683D01*
X415699Y225517D01*
X423199Y240517D02*
X424215Y241533D01*
X425231D01*
X424215Y242549D01*
X425231Y243565D01*
X424215D01*
X423199Y244581D01*
X422183Y243565D01*
X421167D01*
X422183Y242549D01*
X421167Y241533D01*
X422183D01*
X423199Y240517D01*
X415699Y255517D02*
X416715Y256533D01*
X417731D01*
X416715Y257549D01*
X417731Y258565D01*
X416715D01*
X415699Y259581D01*
X414683Y258565D01*
X413667D01*
X414683Y257549D01*
X413667Y256533D01*
X414683D01*
X415699Y255517D01*
X423199Y270517D02*
X424215Y271533D01*
X425231D01*
X424215Y272549D01*
X425231Y273565D01*
X424215D01*
X423199Y274581D01*
X422183Y273565D01*
X421167D01*
X422183Y272549D01*
X421167Y271533D01*
X422183D01*
X423199Y270517D01*
X430699Y45517D02*
X431715Y46533D01*
X432731D01*
X431715Y47549D01*
X432731Y48565D01*
X431715D01*
X430699Y49581D01*
X429683Y48565D01*
X428667D01*
X429683Y47549D01*
X428667Y46533D01*
X429683D01*
X430699Y45517D01*
X438199Y60517D02*
X439215Y61533D01*
X440231D01*
X439215Y62549D01*
X440231Y63565D01*
X439215D01*
X438199Y64581D01*
X437183Y63565D01*
X436167D01*
X437183Y62549D01*
X436167Y61533D01*
X437183D01*
X438199Y60517D01*
X430699Y75517D02*
X431715Y76533D01*
X432731D01*
X431715Y77549D01*
X432731Y78565D01*
X431715D01*
X430699Y79581D01*
X429683Y78565D01*
X428667D01*
X429683Y77549D01*
X428667Y76533D01*
X429683D01*
X430699Y75517D01*
X438199Y90517D02*
X439215Y91533D01*
X440231D01*
X439215Y92549D01*
X440231Y93565D01*
X439215D01*
X438199Y94581D01*
X437183Y93565D01*
X436167D01*
X437183Y92549D01*
X436167Y91533D01*
X437183D01*
X438199Y90517D01*
X430699Y105517D02*
X431715Y106533D01*
X432731D01*
X431715Y107549D01*
X432731Y108565D01*
X431715D01*
X430699Y109581D01*
X429683Y108565D01*
X428667D01*
X429683Y107549D01*
X428667Y106533D01*
X429683D01*
X430699Y105517D01*
X438199Y180517D02*
X439215Y181533D01*
X440231D01*
X439215Y182549D01*
X440231Y183565D01*
X439215D01*
X438199Y184581D01*
X437183Y183565D01*
X436167D01*
X437183Y182549D01*
X436167Y181533D01*
X437183D01*
X438199Y180517D01*
X430699Y195517D02*
X431715Y196533D01*
X432731D01*
X431715Y197549D01*
X432731Y198565D01*
X431715D01*
X430699Y199581D01*
X429683Y198565D01*
X428667D01*
X429683Y197549D01*
X428667Y196533D01*
X429683D01*
X430699Y195517D01*
X438199Y210517D02*
X439215Y211533D01*
X440231D01*
X439215Y212549D01*
X440231Y213565D01*
X439215D01*
X438199Y214581D01*
X437183Y213565D01*
X436167D01*
X437183Y212549D01*
X436167Y211533D01*
X437183D01*
X438199Y210517D01*
X430699Y225517D02*
X431715Y226533D01*
X432731D01*
X431715Y227549D01*
X432731Y228565D01*
X431715D01*
X430699Y229581D01*
X429683Y228565D01*
X428667D01*
X429683Y227549D01*
X428667Y226533D01*
X429683D01*
X430699Y225517D01*
X438199Y240517D02*
X439215Y241533D01*
X440231D01*
X439215Y242549D01*
X440231Y243565D01*
X439215D01*
X438199Y244581D01*
X437183Y243565D01*
X436167D01*
X437183Y242549D01*
X436167Y241533D01*
X437183D01*
X438199Y240517D01*
X430699Y255517D02*
X431715Y256533D01*
X432731D01*
X431715Y257549D01*
X432731Y258565D01*
X431715D01*
X430699Y259581D01*
X429683Y258565D01*
X428667D01*
X429683Y257549D01*
X428667Y256533D01*
X429683D01*
X430699Y255517D01*
X438199Y270517D02*
X439215Y271533D01*
X440231D01*
X439215Y272549D01*
X440231Y273565D01*
X439215D01*
X438199Y274581D01*
X437183Y273565D01*
X436167D01*
X437183Y272549D01*
X436167Y271533D01*
X437183D01*
X438199Y270517D01*
X445699Y45517D02*
X446715Y46533D01*
X447731D01*
X446715Y47549D01*
X447731Y48565D01*
X446715D01*
X445699Y49581D01*
X444683Y48565D01*
X443667D01*
X444683Y47549D01*
X443667Y46533D01*
X444683D01*
X445699Y45517D01*
Y75517D02*
X446715Y76533D01*
X447731D01*
X446715Y77549D01*
X447731Y78565D01*
X446715D01*
X445699Y79581D01*
X444683Y78565D01*
X443667D01*
X444683Y77549D01*
X443667Y76533D01*
X444683D01*
X445699Y75517D01*
Y105517D02*
X446715Y106533D01*
X447731D01*
X446715Y107549D01*
X447731Y108565D01*
X446715D01*
X445699Y109581D01*
X444683Y108565D01*
X443667D01*
X444683Y107549D01*
X443667Y106533D01*
X444683D01*
X445699Y105517D01*
Y195517D02*
X446715Y196533D01*
X447731D01*
X446715Y197549D01*
X447731Y198565D01*
X446715D01*
X445699Y199581D01*
X444683Y198565D01*
X443667D01*
X444683Y197549D01*
X443667Y196533D01*
X444683D01*
X445699Y195517D01*
Y225517D02*
X446715Y226533D01*
X447731D01*
X446715Y227549D01*
X447731Y228565D01*
X446715D01*
X445699Y229581D01*
X444683Y228565D01*
X443667D01*
X444683Y227549D01*
X443667Y226533D01*
X444683D01*
X445699Y225517D01*
Y255517D02*
X446715Y256533D01*
X447731D01*
X446715Y257549D01*
X447731Y258565D01*
X446715D01*
X445699Y259581D01*
X444683Y258565D01*
X443667D01*
X444683Y257549D01*
X443667Y256533D01*
X444683D01*
X445699Y255517D01*
D67*
X-663268Y-278450D02*
G03*
X-663268Y-278450I-2032J0D01*
G01*
M02*
