G04 Layer_Physical_Order=2*
G04 Layer_Color=16711680*
%FSLAX44Y44*%
%MOMM*%
G71*
G01*
G75*
%ADD18R,1.5000X1.5000*%
%ADD19R,1.5000X1.5000*%
%ADD30C,0.1500*%
%ADD33C,1.5000*%
%ADD34C,6.0000*%
%ADD35C,0.9000*%
%ADD36C,0.6000*%
%ADD37C,0.5000*%
%ADD38R,5.8652X5.9032*%
%ADD39R,1.9000X1.9000*%
G36*
X455000Y10000D02*
X283900D01*
Y17800D01*
X283900Y17800D01*
X283754Y19070D01*
X283982Y20800D01*
X283655Y23280D01*
X282698Y25591D01*
X281175Y27576D01*
X279191Y29098D01*
X276880Y30055D01*
X274400Y30382D01*
X271920Y30055D01*
X269609Y29098D01*
X267625Y27576D01*
X266102Y25591D01*
X265145Y23280D01*
X264818Y20800D01*
X265046Y19070D01*
X264900Y17800D01*
X264900Y17800D01*
X264900Y17800D01*
Y10000D01*
X258500D01*
Y17800D01*
X258500Y17800D01*
X258354Y19070D01*
X258582Y20800D01*
X258256Y23280D01*
X257298Y25591D01*
X255776Y27576D01*
X253791Y29098D01*
X251480Y30055D01*
X249000Y30382D01*
X246520Y30055D01*
X244209Y29098D01*
X242225Y27576D01*
X240702Y25591D01*
X239745Y23280D01*
X239418Y20800D01*
X239646Y19070D01*
X239500Y17800D01*
X239500Y17800D01*
X239500Y17800D01*
Y10000D01*
X233100D01*
Y17800D01*
X233100Y17800D01*
X232954Y19070D01*
X233182Y20800D01*
X232855Y23280D01*
X231898Y25591D01*
X230375Y27576D01*
X228391Y29098D01*
X226080Y30055D01*
X223600Y30382D01*
X221120Y30055D01*
X218809Y29098D01*
X216825Y27576D01*
X215302Y25591D01*
X214345Y23280D01*
X214018Y20800D01*
X214246Y19070D01*
X214100Y17800D01*
X214100Y17800D01*
X214100Y17800D01*
Y10000D01*
X207700D01*
Y17800D01*
X207700Y17800D01*
X207554Y19070D01*
X207782Y20800D01*
X207456Y23280D01*
X206498Y25591D01*
X204975Y27576D01*
X202991Y29098D01*
X200680Y30055D01*
X198200Y30382D01*
X195720Y30055D01*
X193409Y29098D01*
X191425Y27576D01*
X189902Y25591D01*
X188945Y23280D01*
X188618Y20800D01*
X188846Y19070D01*
X188700Y17800D01*
X188700Y17800D01*
X188700Y17800D01*
Y10000D01*
X182300D01*
Y17800D01*
X182300Y17800D01*
X182154Y19070D01*
X182382Y20800D01*
X182055Y23280D01*
X181098Y25591D01*
X179576Y27576D01*
X177591Y29098D01*
X175280Y30055D01*
X172800Y30382D01*
X170320Y30055D01*
X168009Y29098D01*
X166025Y27576D01*
X164502Y25591D01*
X163545Y23280D01*
X163218Y20800D01*
X163446Y19070D01*
X163300Y17800D01*
X163300Y17800D01*
X163300Y17800D01*
Y10000D01*
X156900D01*
Y17800D01*
X156900Y17800D01*
X156754Y19070D01*
X156982Y20800D01*
X156656Y23280D01*
X155698Y25591D01*
X154176Y27576D01*
X152191Y29098D01*
X149880Y30055D01*
X147400Y30382D01*
X144920Y30055D01*
X142609Y29098D01*
X140625Y27576D01*
X139102Y25591D01*
X138145Y23280D01*
X137818Y20800D01*
X138046Y19070D01*
X137900Y17800D01*
X137900Y17800D01*
X137900Y17800D01*
Y10000D01*
X135500D01*
Y17800D01*
X108500D01*
Y10000D01*
X106100D01*
Y30300D01*
X87100D01*
Y10000D01*
X10000D01*
Y58100D01*
X17400D01*
Y71600D01*
Y85100D01*
X10000D01*
Y87500D01*
X17400D01*
X17400Y87500D01*
X18670Y87646D01*
X20400Y87418D01*
X22880Y87745D01*
X25191Y88702D01*
X27176Y90225D01*
X28698Y92209D01*
X29655Y94520D01*
X29982Y97000D01*
X29655Y99480D01*
X28698Y101791D01*
X27176Y103776D01*
X25191Y105298D01*
X22880Y106256D01*
X20400Y106582D01*
X18670Y106354D01*
X17400Y106500D01*
X17400Y106500D01*
X17400Y106500D01*
X10000D01*
Y112900D01*
X17400D01*
X17400Y112900D01*
X18670Y113046D01*
X20400Y112818D01*
X22880Y113145D01*
X25191Y114102D01*
X27176Y115625D01*
X28698Y117609D01*
X29356Y119196D01*
X58000D01*
X59073Y119410D01*
X59983Y120017D01*
X63983Y124017D01*
X64590Y124927D01*
X64804Y126000D01*
Y143860D01*
X65605Y144395D01*
X66710Y146049D01*
X67098Y148000D01*
X66710Y149951D01*
X65605Y151605D01*
X63951Y152710D01*
X62000Y153098D01*
X60049Y152710D01*
X58395Y151605D01*
X57290Y149951D01*
X56902Y148000D01*
X57290Y146049D01*
X58395Y144395D01*
X59196Y143860D01*
Y127161D01*
X56839Y124804D01*
X29666D01*
X29655Y124880D01*
X28698Y127191D01*
X27176Y129176D01*
X25191Y130698D01*
X22880Y131656D01*
X20400Y131982D01*
X18670Y131754D01*
X17400Y131900D01*
X17400Y131900D01*
X17400Y131900D01*
X10000D01*
Y138300D01*
X17400D01*
X17400Y138300D01*
X18670Y138446D01*
X20400Y138218D01*
X22880Y138545D01*
X25191Y139502D01*
X27176Y141025D01*
X28698Y143009D01*
X29655Y145320D01*
X29982Y147800D01*
X29655Y150280D01*
X28832Y152267D01*
X29761Y153196D01*
X44860D01*
X45395Y152395D01*
X47049Y151290D01*
X49000Y150902D01*
X50951Y151290D01*
X52605Y152395D01*
X53710Y154049D01*
X54098Y156000D01*
X53710Y157951D01*
X52605Y159605D01*
X52215Y159865D01*
Y161135D01*
X52605Y161395D01*
X53710Y163049D01*
X54098Y165000D01*
X53710Y166951D01*
X52605Y168605D01*
X50951Y169710D01*
X49000Y170098D01*
X47049Y169710D01*
X45395Y168605D01*
X44860Y167804D01*
X29761D01*
X28832Y168733D01*
X29655Y170720D01*
X29982Y173200D01*
X29655Y175680D01*
X28698Y177991D01*
X27176Y179975D01*
X25191Y181498D01*
X22880Y182456D01*
X20400Y182782D01*
X18670Y182554D01*
X17400Y182700D01*
X17400Y182700D01*
X17400Y182700D01*
X10000D01*
Y185100D01*
X17400D01*
Y198600D01*
Y212100D01*
X10000D01*
Y214500D01*
X29900D01*
Y221196D01*
X63839D01*
X67196Y217839D01*
Y179868D01*
X67410Y178795D01*
X68017Y177886D01*
X71636Y174267D01*
X72545Y173660D01*
X73618Y173446D01*
X84589D01*
X86196Y171839D01*
Y151293D01*
X81267Y146364D01*
X80659Y145454D01*
X80446Y144381D01*
Y122250D01*
X80659Y121177D01*
X81267Y120268D01*
X93518Y108017D01*
X94427Y107409D01*
X95500Y107196D01*
X138860D01*
X139395Y106395D01*
X141049Y105290D01*
X143000Y104902D01*
X144951Y105290D01*
X146604Y106395D01*
X147710Y108049D01*
X148098Y110000D01*
X147710Y111951D01*
X146604Y113604D01*
X144951Y114710D01*
X143000Y115098D01*
X141049Y114710D01*
X139395Y113604D01*
X138860Y112804D01*
X96662D01*
X86054Y123412D01*
Y136544D01*
X87324Y137235D01*
X89000Y136902D01*
X90026Y137106D01*
X91106Y136026D01*
X90902Y135000D01*
X91290Y133049D01*
X92395Y131395D01*
X94049Y130290D01*
X96000Y129902D01*
X97951Y130290D01*
X99605Y131395D01*
X100710Y133049D01*
X101098Y135000D01*
X100710Y136951D01*
X99605Y138605D01*
X98804Y139140D01*
Y169989D01*
X120483Y191668D01*
X121090Y192578D01*
X121304Y193651D01*
Y207696D01*
X130331D01*
X130902Y207000D01*
X131290Y205049D01*
X132395Y203395D01*
X134049Y202290D01*
X136000Y201902D01*
X136298Y201961D01*
X137520Y200909D01*
X137790Y199549D01*
X138895Y197895D01*
X140549Y196790D01*
X142500Y196402D01*
X144451Y196790D01*
X146105Y197895D01*
X146640Y198696D01*
X178339D01*
X182196Y194839D01*
Y132000D01*
X182410Y130927D01*
X183017Y130017D01*
X198090Y114945D01*
X197902Y114000D01*
X198290Y112049D01*
X199395Y110395D01*
X201049Y109290D01*
X203000Y108902D01*
X204951Y109290D01*
X206605Y110395D01*
X207395D01*
X209049Y109290D01*
X211000Y108902D01*
X212951Y109290D01*
X214605Y110395D01*
X215570Y111840D01*
X216460Y112018D01*
X216994Y111995D01*
X217395Y111395D01*
X219049Y110290D01*
X221000Y109902D01*
X222951Y110290D01*
X224605Y111395D01*
X225710Y113049D01*
X226098Y115000D01*
X225710Y116951D01*
X224605Y118605D01*
X223553Y119307D01*
Y160588D01*
X227411Y164446D01*
X234816D01*
X235049Y164290D01*
X237000Y163902D01*
X238951Y164290D01*
X240605Y165395D01*
X241710Y167049D01*
X242098Y169000D01*
X241710Y170951D01*
X240605Y172605D01*
X238951Y173710D01*
X237000Y174098D01*
X235049Y173710D01*
X233395Y172605D01*
X232290Y170951D01*
X232112Y170054D01*
X226250D01*
X225177Y169840D01*
X224267Y169233D01*
X219471Y164436D01*
X218604Y163604D01*
X216950Y164709D01*
X215000Y165098D01*
X213049Y164709D01*
X211395Y163604D01*
X210290Y161950D01*
X209902Y160000D01*
X210232Y158340D01*
X210142Y157859D01*
X209468Y156992D01*
X208049Y156710D01*
X206395Y155605D01*
X205290Y153951D01*
X204902Y152000D01*
X205090Y151055D01*
X202127Y148092D01*
X201951Y148210D01*
X200000Y148598D01*
X198324Y148265D01*
X197054Y148956D01*
Y165359D01*
X198605Y166395D01*
X199710Y168049D01*
X200098Y170000D01*
X199710Y171951D01*
X198605Y173605D01*
X196951Y174710D01*
X195000Y175098D01*
X193074Y174715D01*
X192844Y174669D01*
X191804Y175387D01*
Y200000D01*
X191590Y201073D01*
X190983Y201983D01*
X183733Y209233D01*
X182823Y209840D01*
X181750Y210054D01*
X167280D01*
X167069Y211324D01*
X167732Y211767D01*
X179055Y223090D01*
X180000Y222902D01*
X181951Y223290D01*
X183605Y224395D01*
X184710Y226049D01*
X185098Y228000D01*
X184910Y228945D01*
X198161Y242196D01*
X219860D01*
X220395Y241395D01*
X222049Y240290D01*
X224000Y239902D01*
X225951Y240290D01*
X227605Y241395D01*
X228710Y243049D01*
X228981Y244409D01*
X230203Y245461D01*
X230500Y245402D01*
X232451Y245790D01*
X234105Y246895D01*
X235210Y248549D01*
X235598Y250500D01*
X235210Y252451D01*
X234105Y254105D01*
X232451Y255210D01*
X230500Y255598D01*
X228549Y255210D01*
X226895Y254105D01*
X226694Y253804D01*
X194000D01*
X192927Y253590D01*
X192017Y252983D01*
X171945Y232910D01*
X171000Y233098D01*
X169049Y232710D01*
X167395Y231605D01*
X166290Y229951D01*
X165902Y228000D01*
X166090Y227055D01*
X159088Y220053D01*
X146456D01*
X145764Y221323D01*
X146098Y222999D01*
X145710Y224950D01*
X144605Y226604D01*
X142951Y227709D01*
X141000Y228097D01*
X139244Y227748D01*
X138701Y227839D01*
X137862Y228186D01*
X137710Y228951D01*
X136605Y230605D01*
X134951Y231710D01*
X133000Y232098D01*
X131049Y231710D01*
X129395Y230605D01*
X128290Y228951D01*
X127902Y227000D01*
X128090Y226055D01*
X125839Y223804D01*
X113000D01*
X111927Y223590D01*
X111017Y222983D01*
X106017Y217983D01*
X105410Y217073D01*
X105196Y216000D01*
Y206079D01*
X103926Y205360D01*
X103804Y205433D01*
Y226839D01*
X112983Y236017D01*
X113590Y236927D01*
X113804Y238000D01*
Y253860D01*
X114605Y254395D01*
X115710Y256049D01*
X116098Y258000D01*
X115710Y259951D01*
X114605Y261605D01*
X112951Y262710D01*
X111000Y263098D01*
X109049Y262710D01*
X107395Y261605D01*
X106290Y259951D01*
X105902Y258000D01*
X104698Y257959D01*
X104000Y258098D01*
X102049Y257710D01*
X100395Y256605D01*
X99290Y254951D01*
X98902Y253000D01*
X98903Y252994D01*
X98279Y252370D01*
X97795Y252057D01*
X96049Y251709D01*
X94395Y250604D01*
X93290Y248950D01*
X92943Y247205D01*
X92627Y246720D01*
X92279Y246372D01*
X91794Y246057D01*
X90049Y245710D01*
X88395Y244605D01*
X87290Y242951D01*
X86902Y241000D01*
X87290Y239049D01*
X88395Y237395D01*
X89196Y236860D01*
Y235161D01*
X75017Y220982D01*
X74409Y220073D01*
X74196Y219000D01*
Y205433D01*
X74074Y205359D01*
X72804Y206079D01*
Y219000D01*
X72590Y220073D01*
X71983Y220983D01*
X66983Y225983D01*
X66073Y226590D01*
X65000Y226804D01*
X29900D01*
Y233500D01*
X10000D01*
Y285000D01*
X87100D01*
Y277800D01*
Y265300D01*
X106100D01*
Y277800D01*
Y285000D01*
X108500D01*
Y277800D01*
X135500D01*
Y285000D01*
X137900D01*
Y277800D01*
X137900Y277800D01*
X138046Y276530D01*
X137818Y274800D01*
X138145Y272320D01*
X139102Y270009D01*
X140625Y268025D01*
X142609Y266502D01*
X144920Y265545D01*
X147400Y265218D01*
X149880Y265545D01*
X152191Y266502D01*
X154176Y268025D01*
X155698Y270009D01*
X156656Y272320D01*
X156982Y274800D01*
X156754Y276530D01*
X156900Y277800D01*
X156900Y277800D01*
X156900Y277800D01*
Y285000D01*
X163300D01*
Y277800D01*
X163300Y277800D01*
X163446Y276530D01*
X163218Y274800D01*
X163545Y272320D01*
X164502Y270009D01*
X166025Y268025D01*
X168009Y266502D01*
X170320Y265545D01*
X172800Y265218D01*
X175280Y265545D01*
X177591Y266502D01*
X179576Y268025D01*
X181098Y270009D01*
X182055Y272320D01*
X182382Y274800D01*
X182154Y276530D01*
X182300Y277800D01*
X182300Y277800D01*
X182300Y277800D01*
Y285000D01*
X188700D01*
Y277800D01*
X188700Y277800D01*
X188846Y276530D01*
X188618Y274800D01*
X188945Y272320D01*
X189902Y270009D01*
X191425Y268025D01*
X193409Y266502D01*
X195720Y265545D01*
X198200Y265218D01*
X200680Y265545D01*
X202991Y266502D01*
X204975Y268025D01*
X206498Y270009D01*
X207456Y272320D01*
X207782Y274800D01*
X207554Y276530D01*
X207700Y277800D01*
X207700Y277800D01*
X207700Y277800D01*
Y285000D01*
X214100D01*
Y277800D01*
X214100Y277800D01*
X214246Y276530D01*
X214018Y274800D01*
X214345Y272320D01*
X215302Y270009D01*
X216825Y268025D01*
X218809Y266502D01*
X221120Y265545D01*
X223600Y265218D01*
X226080Y265545D01*
X228391Y266502D01*
X230375Y268025D01*
X231898Y270009D01*
X232855Y272320D01*
X233182Y274800D01*
X232954Y276530D01*
X233100Y277800D01*
X233100Y277800D01*
X233100Y277800D01*
Y285000D01*
X239500D01*
Y277800D01*
X239500Y277800D01*
X239646Y276530D01*
X239418Y274800D01*
X239745Y272320D01*
X240702Y270009D01*
X242225Y268025D01*
X244209Y266502D01*
X246520Y265545D01*
X249000Y265218D01*
X251480Y265545D01*
X253791Y266502D01*
X255776Y268025D01*
X257298Y270009D01*
X258256Y272320D01*
X258582Y274800D01*
X258354Y276530D01*
X258500Y277800D01*
X258500Y277800D01*
X258500Y277800D01*
Y285000D01*
X264900D01*
Y277800D01*
X264900Y277800D01*
X265046Y276530D01*
X264818Y274800D01*
X265145Y272320D01*
X266102Y270009D01*
X267625Y268025D01*
X269609Y266502D01*
X271920Y265545D01*
X274400Y265218D01*
X276880Y265545D01*
X279191Y266502D01*
X281175Y268025D01*
X282698Y270009D01*
X283655Y272320D01*
X283982Y274800D01*
X283754Y276530D01*
X283900Y277800D01*
X283900Y277800D01*
X283900Y277800D01*
Y285000D01*
X455000D01*
Y10000D01*
D02*
G37*
%LPC*%
G36*
X23400Y84822D02*
Y74600D01*
X33621D01*
X33552Y75124D01*
X32192Y78408D01*
X30028Y81228D01*
X27208Y83392D01*
X23924Y84753D01*
X23400Y84822D01*
D02*
G37*
G36*
X219000Y100098D02*
X217049Y99710D01*
X215395Y98605D01*
X214860Y97804D01*
X148868D01*
X147795Y97590D01*
X146885Y96982D01*
X142267Y92364D01*
X141659Y91454D01*
X141446Y90381D01*
Y85618D01*
X141446Y85616D01*
Y76411D01*
X138839Y73804D01*
X110140D01*
X109605Y74605D01*
X107951Y75710D01*
X106000Y76098D01*
X104049Y75710D01*
X102395Y74605D01*
X101290Y72951D01*
X100902Y71000D01*
X101290Y69049D01*
X102395Y67395D01*
X104049Y66290D01*
X106000Y65902D01*
X107951Y66290D01*
X109605Y67395D01*
X110140Y68196D01*
X140000D01*
X141073Y68410D01*
X141983Y69017D01*
X146233Y73267D01*
X146840Y74177D01*
X147054Y75250D01*
Y85618D01*
X147054Y85619D01*
Y89220D01*
X150029Y92196D01*
X214860D01*
X215395Y91395D01*
X217049Y90290D01*
X219000Y89902D01*
X220951Y90290D01*
X222604Y91395D01*
X223710Y93049D01*
X224097Y95000D01*
X223710Y96951D01*
X222604Y98605D01*
X220951Y99710D01*
X219000Y100098D01*
D02*
G37*
G36*
X33621Y68600D02*
X23400D01*
Y58379D01*
X23924Y58447D01*
X27208Y59808D01*
X30028Y61972D01*
X32192Y64792D01*
X33552Y68076D01*
X33621Y68600D01*
D02*
G37*
G36*
X119000Y34021D02*
X118476Y33953D01*
X115192Y32592D01*
X112372Y30428D01*
X110208Y27608D01*
X108848Y24324D01*
X108778Y23800D01*
X119000D01*
Y34021D01*
D02*
G37*
G36*
X125000D02*
Y23800D01*
X135222D01*
X135153Y24324D01*
X133792Y27608D01*
X131628Y30428D01*
X128808Y32592D01*
X125524Y33953D01*
X125000Y34021D01*
D02*
G37*
G36*
X63250Y103556D02*
X61553Y103333D01*
X59972Y102678D01*
X58614Y101636D01*
X58385Y101337D01*
X57115D01*
X56886Y101636D01*
X55528Y102678D01*
X53947Y103333D01*
X52250Y103556D01*
X50553Y103333D01*
X48972Y102678D01*
X47614Y101636D01*
X46572Y100278D01*
X45917Y98697D01*
X45694Y97000D01*
X45917Y95303D01*
X46572Y93722D01*
X47614Y92364D01*
X48972Y91322D01*
X50553Y90667D01*
X52250Y90444D01*
X53947Y90667D01*
X55528Y91322D01*
X56886Y92364D01*
X57115Y92663D01*
X58385D01*
X58614Y92364D01*
X59972Y91322D01*
X61553Y90667D01*
X63250Y90444D01*
X64947Y90667D01*
X66528Y91322D01*
X67886Y92364D01*
X68928Y93722D01*
X69583Y95303D01*
X69806Y97000D01*
X69583Y98697D01*
X68928Y100278D01*
X67886Y101636D01*
X66528Y102678D01*
X64947Y103333D01*
X63250Y103556D01*
D02*
G37*
G36*
X119000Y271800D02*
X108778D01*
X108848Y271276D01*
X110208Y267992D01*
X112372Y265172D01*
X115192Y263008D01*
X118476Y261647D01*
X119000Y261579D01*
Y271800D01*
D02*
G37*
G36*
X135222D02*
X125000D01*
Y261579D01*
X125524Y261647D01*
X128808Y263008D01*
X131628Y265172D01*
X133792Y267992D01*
X135153Y271276D01*
X135222Y271800D01*
D02*
G37*
G36*
X23400Y211821D02*
Y201600D01*
X33621D01*
X33552Y202124D01*
X32192Y205408D01*
X30028Y208228D01*
X27208Y210392D01*
X23924Y211752D01*
X23400Y211821D01*
D02*
G37*
G36*
X251000Y124098D02*
X249049Y123710D01*
X247395Y122605D01*
X246290Y120951D01*
X245902Y119000D01*
X246290Y117049D01*
X247395Y115395D01*
X249049Y114290D01*
X251000Y113902D01*
X252951Y114290D01*
X254605Y115395D01*
X255140Y116196D01*
X298261D01*
X298290Y116049D01*
X299395Y114395D01*
X301049Y113290D01*
X303000Y112902D01*
X304951Y113290D01*
X306605Y114395D01*
X307710Y116049D01*
X308098Y118000D01*
X307710Y119951D01*
X306605Y121605D01*
X304951Y122710D01*
X303000Y123098D01*
X301049Y122710D01*
X299693Y121804D01*
X255140D01*
X254605Y122605D01*
X252951Y123710D01*
X251000Y124098D01*
D02*
G37*
G36*
X33621Y195600D02*
X23400D01*
Y185378D01*
X23924Y185448D01*
X27208Y186808D01*
X30028Y188972D01*
X32192Y191792D01*
X33552Y195076D01*
X33621Y195600D01*
D02*
G37*
%LPD*%
D18*
X274400Y8300D02*
D03*
X249000D02*
D03*
X223600D02*
D03*
X198200D02*
D03*
X172800D02*
D03*
X147400D02*
D03*
X122000D02*
D03*
X96600D02*
D03*
X274400Y287300D02*
D03*
X249000D02*
D03*
X223600D02*
D03*
X198200D02*
D03*
X172800D02*
D03*
X147400D02*
D03*
X122000D02*
D03*
X96600D02*
D03*
Y20800D02*
D03*
Y274800D02*
D03*
D19*
X7900Y224000D02*
D03*
Y198600D02*
D03*
Y173200D02*
D03*
Y147800D02*
D03*
Y122400D02*
D03*
Y97000D02*
D03*
Y71600D02*
D03*
X20400Y224000D02*
D03*
D30*
X134500Y207000D02*
X135250Y206250D01*
X211000Y114000D02*
Y114132D01*
X189000Y136132D02*
X211000Y114132D01*
X122000Y20800D02*
Y33300D01*
X136000Y207000D02*
X136250Y207250D01*
X135250Y206250D02*
X136000Y207000D01*
X136250Y207250D02*
X181750D01*
X235250Y167250D02*
X237000Y169000D01*
X226250Y167250D02*
X235250D01*
X302000Y119000D02*
X303000Y118000D01*
X251000Y119000D02*
X302000D01*
X34000Y58000D02*
X75000D01*
X20400Y71600D02*
X34000Y58000D01*
X95500Y110000D02*
X143000D01*
X83250Y122250D02*
X95500Y110000D01*
X83250Y122250D02*
Y144381D01*
X220750Y115250D02*
Y161750D01*
Y115250D02*
X221000Y115000D01*
X144250Y75250D02*
Y85618D01*
X140000Y71000D02*
X144250Y75250D01*
X106000Y71000D02*
X140000D01*
X144250Y90381D02*
X148868Y95000D01*
X219000D01*
X144250Y85618D02*
Y90381D01*
X150000Y76001D02*
Y88000D01*
Y76001D02*
X150000Y76001D01*
X122750Y227650D02*
Y274050D01*
X122000Y274800D02*
X122750Y274050D01*
X70000Y179868D02*
Y219000D01*
X65000Y224000D02*
X70000Y219000D01*
X21650Y224000D02*
X65000D01*
X28600Y156000D02*
X49000D01*
X20400Y147800D02*
X28600Y156000D01*
X20400Y173200D02*
X28600Y165000D01*
X49000D01*
X150000Y76000D02*
X172000D01*
X172000Y76000D01*
X197000D01*
X222000D01*
X230000Y173000D02*
Y195000D01*
X211000Y214000D02*
X230000Y195000D01*
X210000Y214000D02*
X211000D01*
X101000Y200000D02*
Y228000D01*
X111000Y238000D01*
Y258000D01*
X104000Y235950D02*
Y253000D01*
X93000Y224950D02*
X104000Y235950D01*
X93000Y200000D02*
Y224950D01*
X98000Y234899D02*
Y246999D01*
X85000Y221899D02*
X98000Y234899D01*
X85000Y200000D02*
Y221899D01*
X92000Y234000D02*
Y241000D01*
X77000Y219000D02*
X92000Y234000D01*
X77000Y200000D02*
Y219000D01*
X122550Y227450D02*
X122750Y227650D01*
X139250Y221250D02*
X141000Y222999D01*
X83000Y188000D02*
X98000D01*
X108000Y198000D01*
X76000Y182000D02*
X96950D01*
X111500Y196550D01*
X200000Y143500D02*
X201500D01*
X210000Y152000D01*
X215000Y160000D02*
X215750Y159249D01*
Y149618D02*
Y159249D01*
X212250Y146250D02*
X212382D01*
X215750Y149618D01*
X207000Y141000D02*
X212250Y146250D01*
X207000Y137000D02*
Y141000D01*
X179500Y201500D02*
X185000Y196000D01*
Y132000D02*
Y196000D01*
X194250Y169250D02*
X195000Y170000D01*
X194250Y137750D02*
X207000Y125000D01*
X194250Y137750D02*
Y169250D01*
X181750Y207250D02*
X189000Y200000D01*
Y136132D02*
Y200000D01*
X207000Y125000D02*
X213000D01*
X185000Y132000D02*
X203000Y114000D01*
X142500Y201500D02*
X179500D01*
X134500Y207000D02*
X136000D01*
X127000Y221000D02*
X133000Y227000D01*
X108000Y198000D02*
Y216000D01*
X113000Y221000D01*
X127000D01*
X111500Y196550D02*
Y213500D01*
X115500Y217500D01*
X115000Y195100D02*
Y212050D01*
X116950Y214000D01*
X115500Y217500D02*
X128469D01*
X132219Y221250D01*
X139250D01*
X116950Y214000D02*
X129919D01*
X160250Y217250D02*
X171000Y228000D01*
X129919Y214000D02*
X133168Y217250D01*
X160250D01*
X118500Y209450D02*
X119550Y210500D01*
X131368D01*
X134618Y213750D01*
X165749D01*
X180000Y228000D01*
X118500Y193651D02*
Y209450D01*
X180000Y228000D02*
X197000Y245000D01*
X224000D01*
X171000Y228000D02*
X194000Y251000D01*
X230000D01*
X230500Y250500D01*
X220750Y161750D02*
X226250Y167250D01*
X80000Y114000D02*
X82000Y112000D01*
X144250Y85618D02*
X144250Y85618D01*
X150000Y76000D02*
X150000Y76000D01*
X150000Y76000D02*
X150000Y76001D01*
X92500Y145500D02*
Y172601D01*
X96000Y135000D02*
Y171151D01*
X92500Y172601D02*
X115000Y195100D01*
X96000Y171151D02*
X118500Y193651D01*
X89000Y142000D02*
X92500Y145500D01*
X83250Y144381D02*
X89000Y150132D01*
Y173000D01*
X85750Y176250D02*
X89000Y173000D01*
X73618Y176250D02*
X85750D01*
X70000Y179868D02*
X73618Y176250D01*
X21650Y122000D02*
X58000D01*
X62000Y126000D01*
Y148000D01*
D33*
X122000Y20800D02*
D03*
Y800D02*
D03*
X147400Y20800D02*
D03*
Y800D02*
D03*
X172800Y20800D02*
D03*
Y800D02*
D03*
X198200Y20800D02*
D03*
Y800D02*
D03*
X223600Y20800D02*
D03*
Y800D02*
D03*
X249000Y20800D02*
D03*
Y800D02*
D03*
X274400Y20800D02*
D03*
Y800D02*
D03*
X96600D02*
D03*
X122000Y274800D02*
D03*
Y294800D02*
D03*
X147400Y274800D02*
D03*
Y294800D02*
D03*
X172800Y274800D02*
D03*
Y294800D02*
D03*
X198200Y274800D02*
D03*
Y294800D02*
D03*
X223600Y274800D02*
D03*
Y294800D02*
D03*
X249000Y274800D02*
D03*
Y294800D02*
D03*
X274400Y274800D02*
D03*
Y294800D02*
D03*
X96600D02*
D03*
X400Y224000D02*
D03*
Y71600D02*
D03*
X20400D02*
D03*
X400Y97000D02*
D03*
X20400D02*
D03*
X400Y122400D02*
D03*
X20400D02*
D03*
X400Y147800D02*
D03*
X20400D02*
D03*
X400Y173200D02*
D03*
X20400D02*
D03*
X400Y198600D02*
D03*
X20400D02*
D03*
D34*
X-665300Y-278450D02*
D03*
D35*
X63250Y97000D02*
D03*
X52250D02*
D03*
D36*
X272000Y157500D02*
D03*
X281000D02*
D03*
X272000Y148500D02*
D03*
X281000D02*
D03*
X363199Y32549D02*
D03*
X370699Y17549D02*
D03*
X378199Y32549D02*
D03*
X385699Y17549D02*
D03*
X393199Y32549D02*
D03*
X400699Y17549D02*
D03*
X408199Y32549D02*
D03*
X415699Y17549D02*
D03*
X423199Y32549D02*
D03*
X430699Y17549D02*
D03*
X438199Y32549D02*
D03*
X445699Y17549D02*
D03*
X237000Y169000D02*
D03*
X303000Y118000D02*
D03*
X251000Y119000D02*
D03*
X271000Y180000D02*
D03*
X301500Y167500D02*
D03*
X293000Y213000D02*
D03*
X75000Y58000D02*
D03*
X143000Y110000D02*
D03*
X221000Y115000D02*
D03*
X219000Y95000D02*
D03*
X150000Y88000D02*
D03*
X49000Y156000D02*
D03*
Y165000D02*
D03*
X-615300Y-228450D02*
D03*
X150000Y76000D02*
D03*
X172000D02*
D03*
X197000Y76000D02*
D03*
X222000D02*
D03*
X75000Y45000D02*
D03*
X82000Y80900D02*
D03*
X106000Y71000D02*
D03*
X215000Y160000D02*
D03*
X195000Y170000D02*
D03*
X230000Y173000D02*
D03*
X80000Y114000D02*
D03*
X210000Y214000D02*
D03*
X111000Y258000D02*
D03*
X92000Y241000D02*
D03*
X104000Y253000D02*
D03*
X77000Y200000D02*
D03*
X101000Y200000D02*
D03*
X93000D02*
D03*
X85000Y200000D02*
D03*
X98000Y246999D02*
D03*
X133000Y227000D02*
D03*
X141000Y222999D02*
D03*
X122550Y227450D02*
D03*
X83000Y188000D02*
D03*
X76000Y182000D02*
D03*
X200000Y143500D02*
D03*
X210000Y152000D02*
D03*
X207000Y137000D02*
D03*
X213000Y125000D02*
D03*
X203000Y114000D02*
D03*
X211000D02*
D03*
X142500Y201500D02*
D03*
X136000Y207000D02*
D03*
X180000Y228000D02*
D03*
X96000Y135000D02*
D03*
X171000Y228000D02*
D03*
X224000Y245000D02*
D03*
X230500Y250500D02*
D03*
X89000Y142000D02*
D03*
X348500Y178500D02*
D03*
X374500Y141500D02*
D03*
X400500Y178500D02*
D03*
X302750Y105250D02*
D03*
X431000Y171000D02*
D03*
Y121000D02*
D03*
X62000Y148000D02*
D03*
X25699Y17549D02*
D03*
X33199Y32549D02*
D03*
X25699Y47549D02*
D03*
X33199Y212549D02*
D03*
Y242549D02*
D03*
X25699Y257549D02*
D03*
X33199Y272549D02*
D03*
X40699Y17549D02*
D03*
X48199Y62549D02*
D03*
Y182549D02*
D03*
X40699Y257549D02*
D03*
X48199Y272549D02*
D03*
X63199Y32549D02*
D03*
X55699Y47549D02*
D03*
Y137549D02*
D03*
X63199Y182549D02*
D03*
X55699Y197549D02*
D03*
X78199Y92549D02*
D03*
X70699Y257549D02*
D03*
X85699D02*
D03*
X108199Y32549D02*
D03*
X138199D02*
D03*
X213199D02*
D03*
X243199Y92549D02*
D03*
X235699Y107549D02*
D03*
Y227549D02*
D03*
X250699Y77549D02*
D03*
X258199Y92549D02*
D03*
X250699Y107549D02*
D03*
X273199Y62549D02*
D03*
X265699Y77549D02*
D03*
X273199Y242549D02*
D03*
X288199Y32549D02*
D03*
X280699Y47549D02*
D03*
X288199Y62549D02*
D03*
X280699Y77549D02*
D03*
X288199Y242549D02*
D03*
X280699Y257549D02*
D03*
X288199Y272549D02*
D03*
X295699Y17549D02*
D03*
X303199Y32549D02*
D03*
X295699Y47549D02*
D03*
X303199Y62549D02*
D03*
X295699Y77549D02*
D03*
X303199Y92549D02*
D03*
X295699Y227549D02*
D03*
X303199Y242549D02*
D03*
X295699Y257549D02*
D03*
X303199Y272549D02*
D03*
X310699Y17549D02*
D03*
X318199Y32549D02*
D03*
X310699Y47549D02*
D03*
X318199Y62549D02*
D03*
X310699Y77549D02*
D03*
X318199Y92549D02*
D03*
X310699Y107549D02*
D03*
X318199Y212549D02*
D03*
X310699Y227549D02*
D03*
X318199Y242549D02*
D03*
X310699Y257549D02*
D03*
X318199Y272549D02*
D03*
X325699Y17549D02*
D03*
X333199Y32549D02*
D03*
X325699Y47549D02*
D03*
X333199Y62549D02*
D03*
X325699Y77549D02*
D03*
X333199Y92549D02*
D03*
X325699Y107549D02*
D03*
X333199Y122549D02*
D03*
X325699Y167549D02*
D03*
X333199Y182549D02*
D03*
Y212549D02*
D03*
X325699Y227549D02*
D03*
X333199Y242549D02*
D03*
X325699Y257549D02*
D03*
X333199Y272549D02*
D03*
X340699Y17549D02*
D03*
X348199Y32549D02*
D03*
X340699Y47549D02*
D03*
X348199Y62549D02*
D03*
X340699Y77549D02*
D03*
X348199Y92549D02*
D03*
X340699Y107549D02*
D03*
X348199Y122549D02*
D03*
X340699Y137549D02*
D03*
Y197549D02*
D03*
X348199Y212549D02*
D03*
X340699Y227549D02*
D03*
X348199Y242549D02*
D03*
X340699Y257549D02*
D03*
X348199Y272549D02*
D03*
X355699Y17549D02*
D03*
Y47549D02*
D03*
X363199Y62549D02*
D03*
X355699Y77549D02*
D03*
X363199Y92549D02*
D03*
X355699Y107549D02*
D03*
X363199Y122549D02*
D03*
X355699Y137549D02*
D03*
X363199Y182549D02*
D03*
X355699Y197549D02*
D03*
X363199Y212549D02*
D03*
X355699Y227549D02*
D03*
X363199Y242549D02*
D03*
X355699Y257549D02*
D03*
X363199Y272549D02*
D03*
X370699Y47549D02*
D03*
X378199Y62549D02*
D03*
X370699Y77549D02*
D03*
X378199Y92549D02*
D03*
X370699Y107549D02*
D03*
X378199Y122549D02*
D03*
Y182549D02*
D03*
X370699Y197549D02*
D03*
X378199Y212549D02*
D03*
X370699Y227549D02*
D03*
X378199Y242549D02*
D03*
X370699Y257549D02*
D03*
X378199Y272549D02*
D03*
X385699Y47549D02*
D03*
X393199Y62549D02*
D03*
X385699Y77549D02*
D03*
X393199Y92549D02*
D03*
X385699Y107549D02*
D03*
X393199Y122549D02*
D03*
X385699Y137549D02*
D03*
Y167549D02*
D03*
X393199Y182549D02*
D03*
X385699Y197549D02*
D03*
X393199Y212549D02*
D03*
X385699Y227549D02*
D03*
X393199Y242549D02*
D03*
X385699Y257549D02*
D03*
X393199Y272549D02*
D03*
X400699Y47549D02*
D03*
X408199Y62549D02*
D03*
X400699Y77549D02*
D03*
X408199Y92549D02*
D03*
X400699Y107549D02*
D03*
X408199Y122549D02*
D03*
X400699Y137549D02*
D03*
X408199Y182549D02*
D03*
X400699Y197549D02*
D03*
X408199Y212549D02*
D03*
X400699Y227549D02*
D03*
X408199Y242549D02*
D03*
X400699Y257549D02*
D03*
X408199Y272549D02*
D03*
X415699Y47549D02*
D03*
X423199Y62549D02*
D03*
X415699Y77549D02*
D03*
X423199Y92549D02*
D03*
X415699Y107549D02*
D03*
X423199Y182549D02*
D03*
X415699Y197549D02*
D03*
X423199Y212549D02*
D03*
X415699Y227549D02*
D03*
X423199Y242549D02*
D03*
X415699Y257549D02*
D03*
X423199Y272549D02*
D03*
X430699Y47549D02*
D03*
X438199Y62549D02*
D03*
X430699Y77549D02*
D03*
X438199Y92549D02*
D03*
X430699Y107549D02*
D03*
X438199Y182549D02*
D03*
X430699Y197549D02*
D03*
X438199Y212549D02*
D03*
X430699Y227549D02*
D03*
X438199Y242549D02*
D03*
X430699Y257549D02*
D03*
X438199Y272549D02*
D03*
X445699Y47549D02*
D03*
Y77549D02*
D03*
Y107549D02*
D03*
Y197549D02*
D03*
Y227549D02*
D03*
Y257549D02*
D03*
D37*
X172000Y178000D02*
D03*
Y167000D02*
D03*
Y156000D02*
D03*
Y145000D02*
D03*
Y134000D02*
D03*
X161000Y178000D02*
D03*
Y167000D02*
D03*
Y156000D02*
D03*
Y145000D02*
D03*
Y134000D02*
D03*
X150000Y178000D02*
D03*
Y167000D02*
D03*
Y156000D02*
D03*
Y145000D02*
D03*
Y134000D02*
D03*
X139000Y178000D02*
D03*
Y167000D02*
D03*
Y156000D02*
D03*
Y145000D02*
D03*
Y134000D02*
D03*
X128000Y178000D02*
D03*
Y167000D02*
D03*
Y156000D02*
D03*
Y145000D02*
D03*
Y134000D02*
D03*
D38*
X149924Y155984D02*
D03*
D39*
X276500Y153500D02*
D03*
M02*
