G04 Layer_Color=2752767*
%FSLAX44Y44*%
%MOMM*%
G71*
G01*
G75*
%ADD64C,0.0508*%
%ADD65C,0.0677*%
D64*
X94568Y18768D02*
Y22832D01*
X98632D01*
Y18768D01*
X94568D01*
X119968D02*
Y22832D01*
X124032D01*
Y18768D01*
X119968D01*
Y-1232D02*
Y2832D01*
X124032D01*
Y-1232D01*
X119968D01*
X145368Y18768D02*
Y22832D01*
X149432D01*
Y18768D01*
X145368D01*
Y-1232D02*
Y2832D01*
X149432D01*
Y-1232D01*
X145368D01*
X170768Y18768D02*
Y22832D01*
X174832D01*
Y18768D01*
X170768D01*
Y-1232D02*
Y2832D01*
X174832D01*
Y-1232D01*
X170768D01*
X196168Y18768D02*
Y22832D01*
X200232D01*
Y18768D01*
X196168D01*
Y-1232D02*
Y2832D01*
X200232D01*
Y-1232D01*
X196168D01*
X221568Y18768D02*
Y22832D01*
X225632D01*
Y18768D01*
X221568D01*
Y-1232D02*
Y2832D01*
X225632D01*
Y-1232D01*
X221568D01*
X246968Y18768D02*
Y22832D01*
X251032D01*
Y18768D01*
X246968D01*
Y-1232D02*
Y2832D01*
X251032D01*
Y-1232D01*
X246968D01*
X272368Y18768D02*
Y22832D01*
X276432D01*
Y18768D01*
X272368D01*
Y-1232D02*
Y2832D01*
X276432D01*
Y-1232D01*
X272368D01*
X94568D02*
Y2832D01*
X98632D01*
Y-1232D01*
X94568D01*
Y272768D02*
Y276832D01*
X98632D01*
Y272768D01*
X94568D01*
X119968D02*
Y276832D01*
X124032D01*
Y272768D01*
X119968D01*
Y292768D02*
Y296832D01*
X124032D01*
Y292768D01*
X119968D01*
X145368Y272768D02*
Y276832D01*
X149432D01*
Y272768D01*
X145368D01*
Y292768D02*
Y296832D01*
X149432D01*
Y292768D01*
X145368D01*
X170768Y272768D02*
Y276832D01*
X174832D01*
Y272768D01*
X170768D01*
Y292768D02*
Y296832D01*
X174832D01*
Y292768D01*
X170768D01*
X196168Y272768D02*
Y276832D01*
X200232D01*
Y272768D01*
X196168D01*
Y292768D02*
Y296832D01*
X200232D01*
Y292768D01*
X196168D01*
X221568Y272768D02*
Y276832D01*
X225632D01*
Y272768D01*
X221568D01*
Y292768D02*
Y296832D01*
X225632D01*
Y292768D01*
X221568D01*
X246968Y272768D02*
Y276832D01*
X251032D01*
Y272768D01*
X246968D01*
Y292768D02*
Y296832D01*
X251032D01*
Y292768D01*
X246968D01*
X272368Y272768D02*
Y276832D01*
X276432D01*
Y272768D01*
X272368D01*
Y292768D02*
Y296832D01*
X276432D01*
Y292768D01*
X272368D01*
X94568D02*
Y296832D01*
X98632D01*
Y292768D01*
X94568D01*
X-1632Y221968D02*
Y226032D01*
X2432D01*
Y221968D01*
X-1632D01*
Y69568D02*
Y73632D01*
X2432D01*
Y69568D01*
X-1632D01*
X18368D02*
Y73632D01*
X22432D01*
Y69568D01*
X18368D01*
X-1632Y94968D02*
Y99032D01*
X2432D01*
Y94968D01*
X-1632D01*
X18368D02*
Y99032D01*
X22432D01*
Y94968D01*
X18368D01*
X-1632Y120368D02*
Y124432D01*
X2432D01*
Y120368D01*
X-1632D01*
X18368D02*
Y124432D01*
X22432D01*
Y120368D01*
X18368D01*
X-1632Y145768D02*
Y149832D01*
X2432D01*
Y145768D01*
X-1632D01*
X18368D02*
Y149832D01*
X22432D01*
Y145768D01*
X18368D01*
X-1632Y171168D02*
Y175232D01*
X2432D01*
Y171168D01*
X-1632D01*
X18368D02*
Y175232D01*
X22432D01*
Y171168D01*
X18368D01*
X-1632Y196568D02*
Y200632D01*
X2432D01*
Y196568D01*
X-1632D01*
X18368D02*
Y200632D01*
X22432D01*
Y196568D01*
X18368D01*
Y221968D02*
Y226032D01*
X22432D01*
Y221968D01*
X18368D01*
X272000Y155468D02*
X269968Y159532D01*
X274032D01*
X272000Y155468D01*
X281000D02*
X278968Y159532D01*
X283032D01*
X281000Y155468D01*
X272000Y146468D02*
X269968Y150532D01*
X274032D01*
X272000Y146468D01*
X281000D02*
X278968Y150532D01*
X283032D01*
X281000Y146468D01*
X172000Y175968D02*
X173016Y176984D01*
X174032D01*
X173016Y178000D01*
X174032Y179016D01*
X173016D01*
X172000Y180032D01*
X170984Y179016D01*
X169968D01*
X170984Y178000D01*
X169968Y176984D01*
X170984D01*
X172000Y175968D01*
Y164968D02*
X173016Y165984D01*
X174032D01*
X173016Y167000D01*
X174032Y168016D01*
X173016D01*
X172000Y169032D01*
X170984Y168016D01*
X169968D01*
X170984Y167000D01*
X169968Y165984D01*
X170984D01*
X172000Y164968D01*
Y153968D02*
X173016Y154984D01*
X174032D01*
X173016Y156000D01*
X174032Y157016D01*
X173016D01*
X172000Y158032D01*
X170984Y157016D01*
X169968D01*
X170984Y156000D01*
X169968Y154984D01*
X170984D01*
X172000Y153968D01*
Y142968D02*
X173016Y143984D01*
X174032D01*
X173016Y145000D01*
X174032Y146016D01*
X173016D01*
X172000Y147032D01*
X170984Y146016D01*
X169968D01*
X170984Y145000D01*
X169968Y143984D01*
X170984D01*
X172000Y142968D01*
Y131968D02*
X173016Y132984D01*
X174032D01*
X173016Y134000D01*
X174032Y135016D01*
X173016D01*
X172000Y136032D01*
X170984Y135016D01*
X169968D01*
X170984Y134000D01*
X169968Y132984D01*
X170984D01*
X172000Y131968D01*
X161000Y175968D02*
X162016Y176984D01*
X163032D01*
X162016Y178000D01*
X163032Y179016D01*
X162016D01*
X161000Y180032D01*
X159984Y179016D01*
X158968D01*
X159984Y178000D01*
X158968Y176984D01*
X159984D01*
X161000Y175968D01*
Y164968D02*
X162016Y165984D01*
X163032D01*
X162016Y167000D01*
X163032Y168016D01*
X162016D01*
X161000Y169032D01*
X159984Y168016D01*
X158968D01*
X159984Y167000D01*
X158968Y165984D01*
X159984D01*
X161000Y164968D01*
Y153968D02*
X162016Y154984D01*
X163032D01*
X162016Y156000D01*
X163032Y157016D01*
X162016D01*
X161000Y158032D01*
X159984Y157016D01*
X158968D01*
X159984Y156000D01*
X158968Y154984D01*
X159984D01*
X161000Y153968D01*
Y142968D02*
X162016Y143984D01*
X163032D01*
X162016Y145000D01*
X163032Y146016D01*
X162016D01*
X161000Y147032D01*
X159984Y146016D01*
X158968D01*
X159984Y145000D01*
X158968Y143984D01*
X159984D01*
X161000Y142968D01*
Y131968D02*
X162016Y132984D01*
X163032D01*
X162016Y134000D01*
X163032Y135016D01*
X162016D01*
X161000Y136032D01*
X159984Y135016D01*
X158968D01*
X159984Y134000D01*
X158968Y132984D01*
X159984D01*
X161000Y131968D01*
X150000Y175968D02*
X151016Y176984D01*
X152032D01*
X151016Y178000D01*
X152032Y179016D01*
X151016D01*
X150000Y180032D01*
X148984Y179016D01*
X147968D01*
X148984Y178000D01*
X147968Y176984D01*
X148984D01*
X150000Y175968D01*
Y164968D02*
X151016Y165984D01*
X152032D01*
X151016Y167000D01*
X152032Y168016D01*
X151016D01*
X150000Y169032D01*
X148984Y168016D01*
X147968D01*
X148984Y167000D01*
X147968Y165984D01*
X148984D01*
X150000Y164968D01*
Y153968D02*
X151016Y154984D01*
X152032D01*
X151016Y156000D01*
X152032Y157016D01*
X151016D01*
X150000Y158032D01*
X148984Y157016D01*
X147968D01*
X148984Y156000D01*
X147968Y154984D01*
X148984D01*
X150000Y153968D01*
Y142968D02*
X151016Y143984D01*
X152032D01*
X151016Y145000D01*
X152032Y146016D01*
X151016D01*
X150000Y147032D01*
X148984Y146016D01*
X147968D01*
X148984Y145000D01*
X147968Y143984D01*
X148984D01*
X150000Y142968D01*
Y131968D02*
X151016Y132984D01*
X152032D01*
X151016Y134000D01*
X152032Y135016D01*
X151016D01*
X150000Y136032D01*
X148984Y135016D01*
X147968D01*
X148984Y134000D01*
X147968Y132984D01*
X148984D01*
X150000Y131968D01*
X139000Y175968D02*
X140016Y176984D01*
X141032D01*
X140016Y178000D01*
X141032Y179016D01*
X140016D01*
X139000Y180032D01*
X137984Y179016D01*
X136968D01*
X137984Y178000D01*
X136968Y176984D01*
X137984D01*
X139000Y175968D01*
Y164968D02*
X140016Y165984D01*
X141032D01*
X140016Y167000D01*
X141032Y168016D01*
X140016D01*
X139000Y169032D01*
X137984Y168016D01*
X136968D01*
X137984Y167000D01*
X136968Y165984D01*
X137984D01*
X139000Y164968D01*
Y153968D02*
X140016Y154984D01*
X141032D01*
X140016Y156000D01*
X141032Y157016D01*
X140016D01*
X139000Y158032D01*
X137984Y157016D01*
X136968D01*
X137984Y156000D01*
X136968Y154984D01*
X137984D01*
X139000Y153968D01*
Y142968D02*
X140016Y143984D01*
X141032D01*
X140016Y145000D01*
X141032Y146016D01*
X140016D01*
X139000Y147032D01*
X137984Y146016D01*
X136968D01*
X137984Y145000D01*
X136968Y143984D01*
X137984D01*
X139000Y142968D01*
Y131968D02*
X140016Y132984D01*
X141032D01*
X140016Y134000D01*
X141032Y135016D01*
X140016D01*
X139000Y136032D01*
X137984Y135016D01*
X136968D01*
X137984Y134000D01*
X136968Y132984D01*
X137984D01*
X139000Y131968D01*
X128000Y175968D02*
X129016Y176984D01*
X130032D01*
X129016Y178000D01*
X130032Y179016D01*
X129016D01*
X128000Y180032D01*
X126984Y179016D01*
X125968D01*
X126984Y178000D01*
X125968Y176984D01*
X126984D01*
X128000Y175968D01*
Y164968D02*
X129016Y165984D01*
X130032D01*
X129016Y167000D01*
X130032Y168016D01*
X129016D01*
X128000Y169032D01*
X126984Y168016D01*
X125968D01*
X126984Y167000D01*
X125968Y165984D01*
X126984D01*
X128000Y164968D01*
Y153968D02*
X129016Y154984D01*
X130032D01*
X129016Y156000D01*
X130032Y157016D01*
X129016D01*
X128000Y158032D01*
X126984Y157016D01*
X125968D01*
X126984Y156000D01*
X125968Y154984D01*
X126984D01*
X128000Y153968D01*
Y142968D02*
X129016Y143984D01*
X130032D01*
X129016Y145000D01*
X130032Y146016D01*
X129016D01*
X128000Y147032D01*
X126984Y146016D01*
X125968D01*
X126984Y145000D01*
X125968Y143984D01*
X126984D01*
X128000Y142968D01*
Y131968D02*
X129016Y132984D01*
X130032D01*
X129016Y134000D01*
X130032Y135016D01*
X129016D01*
X128000Y136032D01*
X126984Y135016D01*
X125968D01*
X126984Y134000D01*
X125968Y132984D01*
X126984D01*
X128000Y131968D01*
X363199Y30517D02*
X361167Y34581D01*
X365231D01*
X363199Y30517D01*
X370699Y15517D02*
X368667Y19581D01*
X372731D01*
X370699Y15517D01*
X378199Y30517D02*
X376167Y34581D01*
X380231D01*
X378199Y30517D01*
X385699Y15517D02*
X383667Y19581D01*
X387731D01*
X385699Y15517D01*
X393199Y30517D02*
X391167Y34581D01*
X395231D01*
X393199Y30517D01*
X400699Y15517D02*
X398667Y19581D01*
X402731D01*
X400699Y15517D01*
X408199Y30517D02*
X406167Y34581D01*
X410231D01*
X408199Y30517D01*
X415699Y15517D02*
X413667Y19581D01*
X417731D01*
X415699Y15517D01*
X423199Y30517D02*
X421167Y34581D01*
X425231D01*
X423199Y30517D01*
X430699Y15517D02*
X428667Y19581D01*
X432731D01*
X430699Y15517D01*
X438199Y30517D02*
X436167Y34581D01*
X440231D01*
X438199Y30517D01*
X445699Y15517D02*
X443667Y19581D01*
X447731D01*
X445699Y15517D01*
X237000Y166968D02*
X234968Y171032D01*
X239032D01*
X237000Y166968D01*
X303000Y115968D02*
X300968Y120032D01*
X305032D01*
X303000Y115968D01*
X251000Y116968D02*
X248968Y121032D01*
X253032D01*
X251000Y116968D01*
X271000Y177968D02*
X268968Y182032D01*
X273032D01*
X271000Y177968D01*
X301500Y165468D02*
X299468Y169532D01*
X303532D01*
X301500Y165468D01*
X293000Y210968D02*
X290968Y215032D01*
X295032D01*
X293000Y210968D01*
X75000Y55968D02*
X72968Y60032D01*
X77032D01*
X75000Y55968D01*
X143000Y107968D02*
X140968Y112032D01*
X145032D01*
X143000Y107968D01*
X221000Y112968D02*
X218968Y117032D01*
X223032D01*
X221000Y112968D01*
X219000Y92968D02*
X216968Y97032D01*
X221032D01*
X219000Y92968D01*
X150000Y85968D02*
X147968Y90032D01*
X152032D01*
X150000Y85968D01*
X49000Y153968D02*
X46968Y158032D01*
X51032D01*
X49000Y153968D01*
Y162968D02*
X46968Y167032D01*
X51032D01*
X49000Y162968D01*
X150000Y73968D02*
X147968Y78032D01*
X152032D01*
X150000Y73968D01*
X172000D02*
X169968Y78032D01*
X174032D01*
X172000Y73968D01*
X197000Y73968D02*
X194968Y78032D01*
X199032D01*
X197000Y73968D01*
X222000D02*
X219968Y78032D01*
X224032D01*
X222000Y73968D01*
X75000Y42968D02*
X72968Y47032D01*
X77032D01*
X75000Y42968D01*
X82000Y78868D02*
X79968Y82932D01*
X84032D01*
X82000Y78868D01*
X106000Y68968D02*
X103968Y73032D01*
X108032D01*
X106000Y68968D01*
X215000Y157968D02*
X212968Y162032D01*
X217032D01*
X215000Y157968D01*
X195000Y167968D02*
X192968Y172032D01*
X197032D01*
X195000Y167968D01*
X230000Y170968D02*
X227968Y175032D01*
X232032D01*
X230000Y170968D01*
X80000Y111968D02*
X77968Y116032D01*
X82032D01*
X80000Y111968D01*
X210000Y211968D02*
X207968Y216032D01*
X212032D01*
X210000Y211968D01*
X111000Y255968D02*
X108968Y260032D01*
X113032D01*
X111000Y255968D01*
X92000Y238968D02*
X89968Y243032D01*
X94032D01*
X92000Y238968D01*
X104000Y250968D02*
X101968Y255032D01*
X106032D01*
X104000Y250968D01*
X77000Y197967D02*
X74968Y202031D01*
X79032D01*
X77000Y197967D01*
X101000Y197968D02*
X98968Y202032D01*
X103032D01*
X101000Y197968D01*
X93000D02*
X90968Y202032D01*
X95032D01*
X93000Y197968D01*
X85000Y197967D02*
X82968Y202031D01*
X87032D01*
X85000Y197967D01*
X98000Y244967D02*
X95968Y249032D01*
X100032D01*
X98000Y244967D01*
X133000Y224968D02*
X130968Y229032D01*
X135032D01*
X133000Y224968D01*
X141000Y220968D02*
X138968Y225032D01*
X143032D01*
X141000Y220968D01*
X122550Y225418D02*
X120518Y229482D01*
X124582D01*
X122550Y225418D01*
X83000Y185968D02*
X80968Y190032D01*
X85032D01*
X83000Y185968D01*
X76000Y179968D02*
X73968Y184032D01*
X78032D01*
X76000Y179968D01*
X200000Y141468D02*
X197968Y145532D01*
X202032D01*
X200000Y141468D01*
X210000Y149968D02*
X207968Y154032D01*
X212032D01*
X210000Y149968D01*
X207000Y134968D02*
X204968Y139032D01*
X209032D01*
X207000Y134968D01*
X213000Y122968D02*
X210968Y127032D01*
X215032D01*
X213000Y122968D01*
X203000Y111968D02*
X200968Y116032D01*
X205032D01*
X203000Y111968D01*
X211000D02*
X208968Y116032D01*
X213032D01*
X211000Y111968D01*
X142500Y199468D02*
X140468Y203532D01*
X144532D01*
X142500Y199468D01*
X136000Y204968D02*
X133968Y209032D01*
X138032D01*
X136000Y204968D01*
X180000Y225968D02*
X177968Y230032D01*
X182032D01*
X180000Y225968D01*
X96000Y132968D02*
X93968Y137032D01*
X98032D01*
X96000Y132968D01*
X171000Y225968D02*
X168968Y230032D01*
X173032D01*
X171000Y225968D01*
X224000Y242968D02*
X221968Y247032D01*
X226032D01*
X224000Y242968D01*
X230500Y248468D02*
X228468Y252532D01*
X232532D01*
X230500Y248468D01*
X89000Y139968D02*
X86968Y144032D01*
X91032D01*
X89000Y139968D01*
X348500Y176468D02*
X346468Y180532D01*
X350532D01*
X348500Y176468D01*
X374500Y139468D02*
X372468Y143532D01*
X376532D01*
X374500Y139468D01*
X400500Y176468D02*
X398468Y180532D01*
X402532D01*
X400500Y176468D01*
X302750Y103218D02*
X300718Y107282D01*
X304782D01*
X302750Y103218D01*
X431000Y168968D02*
X428968Y173032D01*
X433032D01*
X431000Y168968D01*
Y118968D02*
X428968Y123032D01*
X433032D01*
X431000Y118968D01*
X62000Y145968D02*
X59968Y150032D01*
X64032D01*
X62000Y145968D01*
X25699Y15517D02*
X23667Y19581D01*
X27731D01*
X25699Y15517D01*
X33199Y30517D02*
X31167Y34581D01*
X35231D01*
X33199Y30517D01*
X25699Y45517D02*
X23667Y49581D01*
X27731D01*
X25699Y45517D01*
X33199Y210517D02*
X31167Y214581D01*
X35231D01*
X33199Y210517D01*
Y240517D02*
X31167Y244581D01*
X35231D01*
X33199Y240517D01*
X25699Y255517D02*
X23667Y259581D01*
X27731D01*
X25699Y255517D01*
X33199Y270517D02*
X31167Y274581D01*
X35231D01*
X33199Y270517D01*
X40699Y15517D02*
X38667Y19581D01*
X42731D01*
X40699Y15517D01*
X48199Y60517D02*
X46167Y64581D01*
X50231D01*
X48199Y60517D01*
Y180517D02*
X46167Y184581D01*
X50231D01*
X48199Y180517D01*
X40699Y255517D02*
X38667Y259581D01*
X42731D01*
X40699Y255517D01*
X48199Y270517D02*
X46167Y274581D01*
X50231D01*
X48199Y270517D01*
X63199Y30517D02*
X61167Y34581D01*
X65231D01*
X63199Y30517D01*
X55699Y45517D02*
X53667Y49581D01*
X57731D01*
X55699Y45517D01*
Y135517D02*
X53667Y139581D01*
X57731D01*
X55699Y135517D01*
X63199Y180517D02*
X61167Y184581D01*
X65231D01*
X63199Y180517D01*
X55699Y195517D02*
X53667Y199581D01*
X57731D01*
X55699Y195517D01*
X78199Y90517D02*
X76167Y94581D01*
X80231D01*
X78199Y90517D01*
X70699Y255517D02*
X68667Y259581D01*
X72731D01*
X70699Y255517D01*
X85699D02*
X83667Y259581D01*
X87731D01*
X85699Y255517D01*
X108199Y30517D02*
X106167Y34581D01*
X110231D01*
X108199Y30517D01*
X138199D02*
X136167Y34581D01*
X140231D01*
X138199Y30517D01*
X213199D02*
X211167Y34581D01*
X215231D01*
X213199Y30517D01*
X243199Y90517D02*
X241167Y94581D01*
X245231D01*
X243199Y90517D01*
X235699Y105517D02*
X233667Y109581D01*
X237731D01*
X235699Y105517D01*
Y225517D02*
X233667Y229581D01*
X237731D01*
X235699Y225517D01*
X250699Y75517D02*
X248667Y79581D01*
X252731D01*
X250699Y75517D01*
X258199Y90517D02*
X256167Y94581D01*
X260231D01*
X258199Y90517D01*
X250699Y105517D02*
X248667Y109581D01*
X252731D01*
X250699Y105517D01*
X273199Y60517D02*
X271167Y64581D01*
X275231D01*
X273199Y60517D01*
X265699Y75517D02*
X263667Y79581D01*
X267731D01*
X265699Y75517D01*
X273199Y240517D02*
X271167Y244581D01*
X275231D01*
X273199Y240517D01*
X288199Y30517D02*
X286167Y34581D01*
X290231D01*
X288199Y30517D01*
X280699Y45517D02*
X278667Y49581D01*
X282731D01*
X280699Y45517D01*
X288199Y60517D02*
X286167Y64581D01*
X290231D01*
X288199Y60517D01*
X280699Y75517D02*
X278667Y79581D01*
X282731D01*
X280699Y75517D01*
X288199Y240517D02*
X286167Y244581D01*
X290231D01*
X288199Y240517D01*
X280699Y255517D02*
X278667Y259581D01*
X282731D01*
X280699Y255517D01*
X288199Y270517D02*
X286167Y274581D01*
X290231D01*
X288199Y270517D01*
X295699Y15517D02*
X293667Y19581D01*
X297731D01*
X295699Y15517D01*
X303199Y30517D02*
X301167Y34581D01*
X305231D01*
X303199Y30517D01*
X295699Y45517D02*
X293667Y49581D01*
X297731D01*
X295699Y45517D01*
X303199Y60517D02*
X301167Y64581D01*
X305231D01*
X303199Y60517D01*
X295699Y75517D02*
X293667Y79581D01*
X297731D01*
X295699Y75517D01*
X303199Y90517D02*
X301167Y94581D01*
X305231D01*
X303199Y90517D01*
X295699Y225517D02*
X293667Y229581D01*
X297731D01*
X295699Y225517D01*
X303199Y240517D02*
X301167Y244581D01*
X305231D01*
X303199Y240517D01*
X295699Y255517D02*
X293667Y259581D01*
X297731D01*
X295699Y255517D01*
X303199Y270517D02*
X301167Y274581D01*
X305231D01*
X303199Y270517D01*
X310699Y15517D02*
X308667Y19581D01*
X312731D01*
X310699Y15517D01*
X318199Y30517D02*
X316167Y34581D01*
X320231D01*
X318199Y30517D01*
X310699Y45517D02*
X308667Y49581D01*
X312731D01*
X310699Y45517D01*
X318199Y60517D02*
X316167Y64581D01*
X320231D01*
X318199Y60517D01*
X310699Y75517D02*
X308667Y79581D01*
X312731D01*
X310699Y75517D01*
X318199Y90517D02*
X316167Y94581D01*
X320231D01*
X318199Y90517D01*
X310699Y105517D02*
X308667Y109581D01*
X312731D01*
X310699Y105517D01*
X318199Y210517D02*
X316167Y214581D01*
X320231D01*
X318199Y210517D01*
X310699Y225517D02*
X308667Y229581D01*
X312731D01*
X310699Y225517D01*
X318199Y240517D02*
X316167Y244581D01*
X320231D01*
X318199Y240517D01*
X310699Y255517D02*
X308667Y259581D01*
X312731D01*
X310699Y255517D01*
X318199Y270517D02*
X316167Y274581D01*
X320231D01*
X318199Y270517D01*
X325699Y15517D02*
X323667Y19581D01*
X327731D01*
X325699Y15517D01*
X333199Y30517D02*
X331167Y34581D01*
X335231D01*
X333199Y30517D01*
X325699Y45517D02*
X323667Y49581D01*
X327731D01*
X325699Y45517D01*
X333199Y60517D02*
X331167Y64581D01*
X335231D01*
X333199Y60517D01*
X325699Y75517D02*
X323667Y79581D01*
X327731D01*
X325699Y75517D01*
X333199Y90517D02*
X331167Y94581D01*
X335231D01*
X333199Y90517D01*
X325699Y105517D02*
X323667Y109581D01*
X327731D01*
X325699Y105517D01*
X333199Y120517D02*
X331167Y124581D01*
X335231D01*
X333199Y120517D01*
X325699Y165517D02*
X323667Y169581D01*
X327731D01*
X325699Y165517D01*
X333199Y180517D02*
X331167Y184581D01*
X335231D01*
X333199Y180517D01*
Y210517D02*
X331167Y214581D01*
X335231D01*
X333199Y210517D01*
X325699Y225517D02*
X323667Y229581D01*
X327731D01*
X325699Y225517D01*
X333199Y240517D02*
X331167Y244581D01*
X335231D01*
X333199Y240517D01*
X325699Y255517D02*
X323667Y259581D01*
X327731D01*
X325699Y255517D01*
X333199Y270517D02*
X331167Y274581D01*
X335231D01*
X333199Y270517D01*
X340699Y15517D02*
X338667Y19581D01*
X342731D01*
X340699Y15517D01*
X348199Y30517D02*
X346167Y34581D01*
X350231D01*
X348199Y30517D01*
X340699Y45517D02*
X338667Y49581D01*
X342731D01*
X340699Y45517D01*
X348199Y60517D02*
X346167Y64581D01*
X350231D01*
X348199Y60517D01*
X340699Y75517D02*
X338667Y79581D01*
X342731D01*
X340699Y75517D01*
X348199Y90517D02*
X346167Y94581D01*
X350231D01*
X348199Y90517D01*
X340699Y105517D02*
X338667Y109581D01*
X342731D01*
X340699Y105517D01*
X348199Y120517D02*
X346167Y124581D01*
X350231D01*
X348199Y120517D01*
X340699Y135517D02*
X338667Y139581D01*
X342731D01*
X340699Y135517D01*
Y195517D02*
X338667Y199581D01*
X342731D01*
X340699Y195517D01*
X348199Y210517D02*
X346167Y214581D01*
X350231D01*
X348199Y210517D01*
X340699Y225517D02*
X338667Y229581D01*
X342731D01*
X340699Y225517D01*
X348199Y240517D02*
X346167Y244581D01*
X350231D01*
X348199Y240517D01*
X340699Y255517D02*
X338667Y259581D01*
X342731D01*
X340699Y255517D01*
X348199Y270517D02*
X346167Y274581D01*
X350231D01*
X348199Y270517D01*
X355699Y15517D02*
X353667Y19581D01*
X357731D01*
X355699Y15517D01*
Y45517D02*
X353667Y49581D01*
X357731D01*
X355699Y45517D01*
X363199Y60517D02*
X361167Y64581D01*
X365231D01*
X363199Y60517D01*
X355699Y75517D02*
X353667Y79581D01*
X357731D01*
X355699Y75517D01*
X363199Y90517D02*
X361167Y94581D01*
X365231D01*
X363199Y90517D01*
X355699Y105517D02*
X353667Y109581D01*
X357731D01*
X355699Y105517D01*
X363199Y120517D02*
X361167Y124581D01*
X365231D01*
X363199Y120517D01*
X355699Y135517D02*
X353667Y139581D01*
X357731D01*
X355699Y135517D01*
X363199Y180517D02*
X361167Y184581D01*
X365231D01*
X363199Y180517D01*
X355699Y195517D02*
X353667Y199581D01*
X357731D01*
X355699Y195517D01*
X363199Y210517D02*
X361167Y214581D01*
X365231D01*
X363199Y210517D01*
X355699Y225517D02*
X353667Y229581D01*
X357731D01*
X355699Y225517D01*
X363199Y240517D02*
X361167Y244581D01*
X365231D01*
X363199Y240517D01*
X355699Y255517D02*
X353667Y259581D01*
X357731D01*
X355699Y255517D01*
X363199Y270517D02*
X361167Y274581D01*
X365231D01*
X363199Y270517D01*
X370699Y45517D02*
X368667Y49581D01*
X372731D01*
X370699Y45517D01*
X378199Y60517D02*
X376167Y64581D01*
X380231D01*
X378199Y60517D01*
X370699Y75517D02*
X368667Y79581D01*
X372731D01*
X370699Y75517D01*
X378199Y90517D02*
X376167Y94581D01*
X380231D01*
X378199Y90517D01*
X370699Y105517D02*
X368667Y109581D01*
X372731D01*
X370699Y105517D01*
X378199Y120517D02*
X376167Y124581D01*
X380231D01*
X378199Y120517D01*
Y180517D02*
X376167Y184581D01*
X380231D01*
X378199Y180517D01*
X370699Y195517D02*
X368667Y199581D01*
X372731D01*
X370699Y195517D01*
X378199Y210517D02*
X376167Y214581D01*
X380231D01*
X378199Y210517D01*
X370699Y225517D02*
X368667Y229581D01*
X372731D01*
X370699Y225517D01*
X378199Y240517D02*
X376167Y244581D01*
X380231D01*
X378199Y240517D01*
X370699Y255517D02*
X368667Y259581D01*
X372731D01*
X370699Y255517D01*
X378199Y270517D02*
X376167Y274581D01*
X380231D01*
X378199Y270517D01*
X385699Y45517D02*
X383667Y49581D01*
X387731D01*
X385699Y45517D01*
X393199Y60517D02*
X391167Y64581D01*
X395231D01*
X393199Y60517D01*
X385699Y75517D02*
X383667Y79581D01*
X387731D01*
X385699Y75517D01*
X393199Y90517D02*
X391167Y94581D01*
X395231D01*
X393199Y90517D01*
X385699Y105517D02*
X383667Y109581D01*
X387731D01*
X385699Y105517D01*
X393199Y120517D02*
X391167Y124581D01*
X395231D01*
X393199Y120517D01*
X385699Y135517D02*
X383667Y139581D01*
X387731D01*
X385699Y135517D01*
Y165517D02*
X383667Y169581D01*
X387731D01*
X385699Y165517D01*
X393199Y180517D02*
X391167Y184581D01*
X395231D01*
X393199Y180517D01*
X385699Y195517D02*
X383667Y199581D01*
X387731D01*
X385699Y195517D01*
X393199Y210517D02*
X391167Y214581D01*
X395231D01*
X393199Y210517D01*
X385699Y225517D02*
X383667Y229581D01*
X387731D01*
X385699Y225517D01*
X393199Y240517D02*
X391167Y244581D01*
X395231D01*
X393199Y240517D01*
X385699Y255517D02*
X383667Y259581D01*
X387731D01*
X385699Y255517D01*
X393199Y270517D02*
X391167Y274581D01*
X395231D01*
X393199Y270517D01*
X400699Y45517D02*
X398667Y49581D01*
X402731D01*
X400699Y45517D01*
X408199Y60517D02*
X406167Y64581D01*
X410231D01*
X408199Y60517D01*
X400699Y75517D02*
X398667Y79581D01*
X402731D01*
X400699Y75517D01*
X408199Y90517D02*
X406167Y94581D01*
X410231D01*
X408199Y90517D01*
X400699Y105517D02*
X398667Y109581D01*
X402731D01*
X400699Y105517D01*
X408199Y120517D02*
X406167Y124581D01*
X410231D01*
X408199Y120517D01*
X400699Y135517D02*
X398667Y139581D01*
X402731D01*
X400699Y135517D01*
X408199Y180517D02*
X406167Y184581D01*
X410231D01*
X408199Y180517D01*
X400699Y195517D02*
X398667Y199581D01*
X402731D01*
X400699Y195517D01*
X408199Y210517D02*
X406167Y214581D01*
X410231D01*
X408199Y210517D01*
X400699Y225517D02*
X398667Y229581D01*
X402731D01*
X400699Y225517D01*
X408199Y240517D02*
X406167Y244581D01*
X410231D01*
X408199Y240517D01*
X400699Y255517D02*
X398667Y259581D01*
X402731D01*
X400699Y255517D01*
X408199Y270517D02*
X406167Y274581D01*
X410231D01*
X408199Y270517D01*
X415699Y45517D02*
X413667Y49581D01*
X417731D01*
X415699Y45517D01*
X423199Y60517D02*
X421167Y64581D01*
X425231D01*
X423199Y60517D01*
X415699Y75517D02*
X413667Y79581D01*
X417731D01*
X415699Y75517D01*
X423199Y90517D02*
X421167Y94581D01*
X425231D01*
X423199Y90517D01*
X415699Y105517D02*
X413667Y109581D01*
X417731D01*
X415699Y105517D01*
X423199Y180517D02*
X421167Y184581D01*
X425231D01*
X423199Y180517D01*
X415699Y195517D02*
X413667Y199581D01*
X417731D01*
X415699Y195517D01*
X423199Y210517D02*
X421167Y214581D01*
X425231D01*
X423199Y210517D01*
X415699Y225517D02*
X413667Y229581D01*
X417731D01*
X415699Y225517D01*
X423199Y240517D02*
X421167Y244581D01*
X425231D01*
X423199Y240517D01*
X415699Y255517D02*
X413667Y259581D01*
X417731D01*
X415699Y255517D01*
X423199Y270517D02*
X421167Y274581D01*
X425231D01*
X423199Y270517D01*
X430699Y45517D02*
X428667Y49581D01*
X432731D01*
X430699Y45517D01*
X438199Y60517D02*
X436167Y64581D01*
X440231D01*
X438199Y60517D01*
X430699Y75517D02*
X428667Y79581D01*
X432731D01*
X430699Y75517D01*
X438199Y90517D02*
X436167Y94581D01*
X440231D01*
X438199Y90517D01*
X430699Y105517D02*
X428667Y109581D01*
X432731D01*
X430699Y105517D01*
X438199Y180517D02*
X436167Y184581D01*
X440231D01*
X438199Y180517D01*
X430699Y195517D02*
X428667Y199581D01*
X432731D01*
X430699Y195517D01*
X438199Y210517D02*
X436167Y214581D01*
X440231D01*
X438199Y210517D01*
X430699Y225517D02*
X428667Y229581D01*
X432731D01*
X430699Y225517D01*
X438199Y240517D02*
X436167Y244581D01*
X440231D01*
X438199Y240517D01*
X430699Y255517D02*
X428667Y259581D01*
X432731D01*
X430699Y255517D01*
X438199Y270517D02*
X436167Y274581D01*
X440231D01*
X438199Y270517D01*
X445699Y45517D02*
X443667Y49581D01*
X447731D01*
X445699Y45517D01*
Y75517D02*
X443667Y79581D01*
X447731D01*
X445699Y75517D01*
Y105517D02*
X443667Y109581D01*
X447731D01*
X445699Y105517D01*
Y195517D02*
X443667Y199581D01*
X447731D01*
X445699Y195517D01*
Y225517D02*
X443667Y229581D01*
X447731D01*
X445699Y225517D01*
Y255517D02*
X443667Y259581D01*
X447731D01*
X445699Y255517D01*
D65*
X65282Y97000D02*
G03*
X65282Y97000I-2032J0D01*
G01*
X54282D02*
G03*
X54282Y97000I-2032J0D01*
G01*
M02*
